<svg width="151" height="157" viewBox="0 0 151 157" fill="none" xmlns="http://www.w3.org/2000/svg">
<path d="M16.386 128.84C18.0243 143.175 20.232 157.161 32.4693 154.713C44.7066 152.266 48.203 131.287 55.1957 115.903C61.8286 101.311 77.9698 107.055 81.0689 115.903C94.1721 153.315 94.1721 152.266 103.612 152.266C112.106 152.266 117.781 122.546 124.774 101.918C134.563 79.1915 141.626 63.3879 136.312 42.1299C129.668 15.5575 110.788 15.2079 98.5508 15.9072C86.3134 16.6064 74.7754 28.1444 66.3841 29.1933C50.375 31.1945 58.0752 18.7043 27.3071 23.5992C-3.46099 28.4941 -1.44536 77.7929 6.5963 90.7294C13.0296 101.079 13.589 104.365 16.386 128.84Z" fill="white"/>
<path d="M39.1124 46.6752C40.9772 45.0436 52.3986 45.6263 58.3425 48.773C64.2863 51.9198 70.9294 49.822 79.3207 42.1299C83.1349 38.6336 88.1316 37.235 94.0055 38.6336M16.386 61.0103C14.2882 66.9542 12.1204 82.548 20.232 97.3726M110.788 97.3726C110.322 101.918 108.83 112.547 106.592 118.7M32.4693 154.713C20.232 157.161 18.0243 143.175 16.386 128.84C13.589 104.365 13.0296 101.079 6.5963 90.7294C-1.44536 77.7929 -3.46099 28.4941 27.3071 23.5992C58.0752 18.7043 50.375 31.1945 66.3841 29.1933C74.7754 28.1444 86.3134 16.6064 98.5508 15.9072C110.788 15.2079 129.668 15.5575 136.312 42.1299C141.626 63.3879 134.563 79.1915 124.774 101.918C117.781 122.546 112.106 152.266 103.612 152.266C94.1721 152.266 94.1721 153.315 81.0689 115.903C77.9698 107.055 61.8286 101.311 55.1957 115.903C48.203 131.287 44.7066 152.266 32.4693 154.713Z" stroke="black" stroke-width="3" stroke-linecap="round"/>
<path d="M139.808 98.7711C139.839 97.6012 139.98 96.1028 140.28 94.5105C140.027 89.2095 136.854 84.629 134.913 82.6878C138.505 81.5827 141.71 73.7917 142.911 69.8945C142.925 69.8467 142.94 69.7989 142.955 69.7512C142.94 69.7984 142.926 69.8461 142.911 69.8945C141.348 75.1812 145.305 81.5453 147.5 84.0863C143.178 84.9096 141.115 90.0746 140.28 94.5105C140.346 95.893 140.213 97.3246 139.808 98.7711Z" fill="white"/>
<path d="M139.808 98.7711C139.924 94.3424 141.626 85.2052 147.5 84.0863C145.286 81.5223 141.276 75.0657 142.955 69.7512C141.789 73.5972 138.549 81.569 134.913 82.6878C137.36 85.1353 141.766 91.7784 139.808 98.7711Z" stroke="#00BCFF" stroke-width="3"/>
<path d="M130.368 0.17334C130.476 1.61205 130.375 3.55279 129.937 5.83914C129.268 25.7826 138.521 34.1255 143.654 35.8363C130.228 37.2349 125.706 53.2016 125.123 61.0102C125.962 41.9899 115.45 35.1371 110.089 34.0881C123.392 24.6475 128.492 13.369 129.937 5.83914C129.997 4.04557 130.137 2.15818 130.368 0.17334Z" fill="white"/>
<path d="M130.368 0.17334C130.834 6.35026 127.431 21.7809 110.089 34.0881C115.45 35.1371 125.962 41.9899 125.123 61.0102C125.706 53.2016 130.228 37.2349 143.654 35.8363C138.06 33.9716 127.571 24.2284 130.368 0.17334Z" stroke="#00BCFF" stroke-width="3"/>
<path d="M106.243 72.5484C110.159 69.4716 112.07 62.4089 112.536 59.2622C112.536 66.2549 116.266 69.6348 118.13 70.4506C113.65 71.6296 111.506 78.1925 110.733 82.8074C110.696 83.5469 110.601 84.323 110.438 85.1354C110.493 84.4585 110.59 83.6667 110.733 82.8074C111.02 77.1816 107.994 73.6815 106.243 72.5484Z" fill="white"/>
<path d="M112.536 59.2622C112.07 62.4089 110.159 69.4716 106.243 72.5484C108.224 73.8304 111.837 78.1426 110.438 85.1354C110.788 80.8232 112.816 71.8491 118.13 70.4506C116.266 69.6348 112.536 66.2549 112.536 59.2622Z" stroke="#00BCFF" stroke-width="3"/>
</svg>
