<svg width="132" height="142" viewBox="0 0 132 142" fill="none" xmlns="http://www.w3.org/2000/svg">
<path d="M27.6427 67.7591L66.7234 56.5605" stroke="black" stroke-width="3" stroke-linecap="round"/>
<path d="M31.7565 79.8721L98.0337 58.3892" stroke="black" stroke-width="3" stroke-linecap="round"/>
<path d="M1.58887 51.7612L13.2445 24.7932L16.4441 23.9315M1.58887 51.7612C1.58887 51.7612 26.2714 138.807 30.6137 140.436C34.956 142.064 128.071 112.325 130.03 108.897C131.988 105.469 103.062 4.45304 98.9478 1.71049C94.834 -1.03205 16.4441 23.9315 16.4441 23.9315M1.58887 51.7612L25.1287 46.9618L16.4441 23.9315" stroke="black" stroke-width="3" stroke-linecap="round"/>
<path d="M23.3003 57.7036L92.5485 36.4492" stroke="black" stroke-width="3" stroke-linecap="round"/>
<circle cx="96.6623" cy="82.1574" r="8.55585" stroke="#00BCFF" stroke-width="3"/>
<path d="M91.1774 88.5566C91.1774 88.5566 86.378 109.354 87.5207 109.582C88.6634 109.811 94.6055 101.355 94.8341 101.355C95.0626 101.355 99.0369 105.926 100.091 105.926C100.776 105.926 100.091 96.6832 100.091 96.6832M100.091 89.9278V96.6832M100.091 96.6832C100.091 96.6832 106.947 105.012 107.175 105.012C107.404 105.012 107.92 97.8208 108.149 97.8208C108.377 97.8208 116.546 99.7551 116.774 99.5266C117.003 99.2981 104.661 84.8999 104.661 84.8999" stroke="#00BCFF" stroke-width="3" stroke-linecap="round"/>
</svg>
