<svg width="109" height="135" viewBox="0 0 109 135" fill="none" xmlns="http://www.w3.org/2000/svg">
<path d="M11.0274 123.526L25.0976 83.2429L85.8117 79.9663C90.566 93.0086 100.113 119.787 100.267 122.563C100.46 126.032 98.7255 126.803 95.8343 126.803C93.5214 126.803 86.9039 123.334 83.8843 121.599C82.5993 123.334 79.3355 127.651 76.56 131.043C73.7845 134.436 71.5487 132.457 70.7777 131.043L56.9002 92.1091C52.4671 103.674 43.0998 127.651 41.0953 131.043C39.0908 134.436 36.4052 132.457 35.313 131.043L27.9888 121.599C26.4468 122.241 21.9752 124.182 16.4242 126.803C10.8732 129.424 10.5134 125.711 11.0274 123.526Z" fill="#00BCFF" stroke="black" stroke-width="2.5"/>
<path d="M25.4832 15.3974C11.0334 17.5754 7.12845 22.3958 9.1 38.7194C-0.621971 49.3282 -2.0858 55.7114 9.1 68.5945C6.45784 82.3151 9.70451 87.6142 26.0614 91.7237C35.9898 106.257 42.3423 106.937 54.5874 99.3672C69.3336 107.303 75.4007 105.081 83.1134 91.7237C100.249 88.7125 102.139 82.7582 99.1111 68.5945C110.359 56.3503 109.852 49.8358 99.1111 38.7194C102.296 23.6021 98.1557 18.1531 80.8005 13.6628C74.7134 -0.704424 68.6438 -1.54025 54.5874 5.76029C40.3322 -1.54703 33.5966 -0.832267 25.4832 15.3974Z" fill="white" stroke="black" stroke-width="2.5"/>
<circle cx="54.75" cy="53.4165" r="31.25" stroke="black" stroke-width="2.5"/>
<path d="M50.4458 35.6247C51.6432 31.9395 56.8568 31.9395 58.0542 35.6247L60.0874 41.8821C60.6229 43.5302 62.1587 44.646 63.8916 44.646H70.471C74.3459 44.646 75.957 49.6045 72.8221 51.8821L67.4993 55.7493C66.0973 56.7679 65.5107 58.5734 66.0462 60.2215L68.0793 66.4788C69.2767 70.164 65.0588 73.2285 61.924 70.9509L56.6011 67.0837C55.1992 66.0651 53.3008 66.0651 51.8989 67.0837L46.576 70.9509C43.4412 73.2285 39.2233 70.1641 40.4207 66.4788L42.4538 60.2215C42.9893 58.5734 42.4027 56.7679 41.0007 55.7493L35.6779 51.8821C32.543 49.6045 34.1541 44.646 38.029 44.646H44.6084C46.3413 44.646 47.8771 43.5302 48.4126 41.8821L50.4458 35.6247Z" fill="#00BCFF"/>
</svg>
