<svg width="140" height="174" viewBox="0 0 140 174" fill="none" xmlns="http://www.w3.org/2000/svg">
<path d="M9.39325 166.263C5.89325 151.763 1.39325 114.219 1.39325 114.219C1.39325 114.219 18.2511 112.582 24.8931 119.763C28.1283 123.261 31.1802 126.985 31.1802 126.985C31.1802 126.985 67.9303 108.417 70.2514 108.417C72.5724 108.417 86.4988 106.869 87.6593 108.417C88.8199 109.964 72.7272 129.152 59.4197 133.175H81.083L104.68 109.964C109.323 109.577 118.452 109.345 117.833 111.511C121.315 111.254 128.123 111.434 127.504 114.219C132.017 114.993 140.27 117.391 137.175 120.796C130.083 131.498 110.019 153.677 86.4988 156.772L31.1802 158.32V168.764C31.1802 168.764 12.1227 177.571 9.39325 166.263Z" fill="white"/>
<path d="M31.1802 126.985C31.1802 126.985 28.1283 123.261 24.8931 119.763C18.2511 112.582 1.39325 114.219 1.39325 114.219C1.39325 114.219 5.89325 151.763 9.39325 166.263C12.1227 177.571 31.1802 168.764 31.1802 168.764V158.32M31.1802 126.985C31.1802 126.985 67.9303 108.417 70.2514 108.417C72.5724 108.417 86.4988 106.869 87.6593 108.417C88.8199 109.964 72.7272 129.152 59.4197 133.175H81.083M31.1802 126.985V158.32M81.083 133.175L104.68 109.964C109.323 109.577 118.452 109.345 117.833 111.511M81.083 133.175H93.0751M117.833 111.511C121.315 111.254 128.123 111.434 127.504 114.219M117.833 111.511L93.0751 133.175M127.504 114.219C132.017 114.993 140.27 117.391 137.175 120.796C130.083 131.498 110.019 153.677 86.4988 156.772L31.1802 158.32M127.504 114.219L102.359 133.175H93.0751" stroke="black" stroke-width="2.5"/>
<path d="M83.7931 96.0384C80.6986 96.426 42.014 39.5592 43.1745 36.0776C44.335 32.5961 58.2617 19.8302 60.5825 20.6039C62.9032 21.3776 81.8589 58.1277 81.8589 58.1277C81.8589 58.1277 109.712 1.64858 113.58 1.26174C117.448 0.874895 131.476 10.159 131.812 12.867C132.148 15.575 86.8875 95.6507 83.7931 96.0384Z" fill="#00BCFF" stroke="black" stroke-width="2.5"/>
</svg>
