<svg width="198" height="235" viewBox="0 0 198 235" fill="none" xmlns="http://www.w3.org/2000/svg">
<path d="M76.0852 62.5793C78.8341 59.5805 84.9315 55.8321 87.3306 64.8283" stroke="black" stroke-width="2" stroke-linecap="round"/>
<path d="M87.3304 110.185C89.2046 108.123 89.9543 99.8764 82.27 98.1895C74.5856 96.5027 61.7659 91.2549 68.963 72.5127C67.2769 71.3225 66.5913 68.4814 66.3747 65.9529C66.361 65.7935 66.3492 65.6354 66.3391 65.479C66.2675 64.3654 66.2835 63.3396 66.3391 62.5793C66.3391 58.6536 66.6574 55.1034 67.24 51.8962C71.8203 26.6844 92.7389 22.6751 103.824 24.1774C104.008 24.091 104.196 24.0082 104.386 23.9294C103.524 16.4524 105.347 3.02944 117.693 1.20692C118.176 1.13555 118.676 1.08196 119.192 1.04722C120.41 0.965301 121.72 0.988202 123.128 1.12976C123.556 1.17279 123.994 1.22678 124.44 1.29213C125.987 1.51844 127.356 1.83595 128.563 2.2322C129.238 2.45344 129.862 2.69924 130.438 2.96741C141.134 7.94647 135.38 20.6392 130.438 27.1564C135.873 31.6546 146.556 41.7754 146.181 60.8925C145.881 76.1862 141.128 83.5081 138.789 85.2574C138.969 85.7756 139.122 86.3381 139.246 86.9442C140.746 94.2537 128.563 95.3782 120.129 98.1895C113.382 100.439 112.32 107.123 112.632 110.185L117.369 142.361L95.5009 148.609L80.6619 128.303L87.3304 110.185Z" fill="white"/>
<path d="M68.963 72.5127C61.7659 91.2549 74.5856 96.5027 82.27 98.1895C89.9543 99.8763 89.2046 108.123 87.3304 110.185L80.6619 128.303L95.5009 148.609L117.369 142.361L112.632 110.185C112.32 107.123 113.382 100.439 120.129 98.1895C128.563 95.3782 140.746 94.2537 139.246 86.9442C139.122 86.3381 138.969 85.7756 138.789 85.2574M68.963 72.5127L72.7115 60.8925M68.963 72.5127C67.2769 71.3225 66.5913 68.4814 66.3747 65.9529M125.002 85.2574C126.752 81.6964 128.039 72.85 119.192 65.9529C108.134 57.3314 93.1405 47.9603 94.0777 35.7779M125.002 85.2574C126.935 83.4479 128.767 82.208 130.438 81.5123M125.002 85.2574C137.372 70.451 119.192 42.5251 108.697 38.4018C100.3 35.1031 97.2157 31.7795 96.7231 30.53M125.002 85.2574C134.186 67.8271 113.382 48.5226 105.323 44.9616C98.8757 42.1127 95.1397 37.6521 94.0777 35.7779M94.0777 35.7779C91.8911 40.276 85.7561 50.8466 72.7115 60.8925M94.0777 35.7779C94.5043 34.4479 95.3804 32.5051 96.7231 30.53M94.0777 35.7779C91.0401 36.6525 81.2469 43.912 66.3747 65.9529M72.7115 60.8925C68.963 62.5418 66.9251 64.9533 66.3747 65.9529M130.438 27.1564C135.873 31.6546 146.556 41.7754 146.181 60.8925C145.881 76.1862 141.128 83.5081 138.789 85.2574M130.438 27.1564C135.38 20.6392 141.134 7.94647 130.438 2.96741M130.438 27.1564C129.406 26.3024 128.191 25.5497 126.842 24.9073M138.789 85.2574C138.219 83.6227 137.379 82.4283 136.319 81.6964M103.824 24.1774C118.865 25.7327 146.422 39.4139 136.319 81.6964M103.824 24.1774C101.942 25.0575 100.333 26.3189 98.9896 27.7187M103.824 24.1774C92.7389 22.6751 71.8203 26.6844 67.24 51.8962M103.824 24.1774C104.008 24.091 104.196 24.0082 104.386 23.9294M136.319 81.6964C134.774 80.6293 132.761 80.5451 130.438 81.5123M136.319 81.6964C150.021 35.8153 123.613 23.2937 108.697 22.768M98.9896 27.7187C114.158 33.2186 141.683 51.6772 130.438 81.5123M98.9896 27.7187C98.1246 28.6201 97.3697 29.5788 96.7231 30.53M98.9896 27.7187C90.8309 27.8437 73.0587 32.8541 67.24 51.8962M96.7231 30.53C88.5318 32.2757 70.9872 41.7095 66.3391 65.479M108.697 22.768C107.744 22.9356 106.804 23.1484 105.885 23.408C105.368 23.554 104.869 23.7291 104.386 23.9294M108.697 22.768C109.255 22.6698 109.818 22.5871 110.383 22.5196M67.24 51.8962C66.6574 55.1034 66.3391 58.6536 66.3391 62.5793C66.2835 63.3396 66.2675 64.3654 66.3391 65.479M66.3391 65.479C66.3492 65.6354 66.361 65.7935 66.3747 65.9529M104.386 23.9294C103.524 16.4524 105.347 3.02944 117.693 1.20692M117.693 1.20692C115.069 3.32948 109.934 10.5636 110.383 22.5196M117.693 1.20692C118.176 1.13555 118.676 1.08196 119.192 1.04722M110.383 22.5196C111.812 22.3492 113.258 22.2759 114.694 22.2945M119.192 1.04722C119.692 3.32283 119.492 10.7581 114.694 22.2945M119.192 1.04722C120.41 0.965301 121.72 0.988202 123.128 1.12976M114.694 22.2945C116.215 22.3142 117.725 22.437 119.192 22.6567M123.128 1.12976C123.556 1.17279 123.994 1.22678 124.44 1.29213C125.987 1.51844 127.356 1.83595 128.563 2.2322M123.128 1.12976C124.315 4.48238 125.19 13.4814 119.192 22.6567M119.192 22.6567C120.419 22.8405 121.616 23.0921 122.763 23.408M128.563 2.2322C129.512 5.16749 129.68 13.5121 122.763 23.408M128.563 2.2322C129.238 2.45344 129.862 2.69924 130.438 2.96741M122.763 23.408C124.214 23.8074 125.586 24.3096 126.842 24.9073M130.438 2.96741C133.038 5.09537 135.961 12.4625 126.842 24.9073" stroke="black" stroke-width="2" stroke-linecap="round"/>
<path d="M76.8765 62.1219C76.8765 62.1219 84.0215 56.0299 87.6252 64.6148" stroke="black" stroke-width="2" stroke-linecap="round"/>
<path d="M1.49097 94.8157C2.24066 88.3684 5.80168 87.1314 7.48849 87.3188C10.6372 87.9185 11.7992 89.5679 14.4231 90.505C17.0471 91.4421 21.1703 91.6296 22.8571 91.4421C24.544 91.2547 30.9788 88.7557 32.4157 88.8182C40.6623 89.1181 37.1013 103.062 33.9151 106.623C30.7289 110.184 27.7301 113.745 28.2924 120.493L23.9817 118.618C22.0325 112.321 19.671 110.372 18.7339 110.184C16.035 109.585 12.1116 114.807 10.4873 117.494L7.48849 116.557C7.48849 113.558 5.48931 109.06 4.48973 107.186C3.17777 105.624 0.741277 100.963 1.49097 94.8157Z" fill="white" stroke="#00BCFF" stroke-width="2" stroke-linecap="round"/>
<path d="M10.1124 93.8789C9.23774 94.7535 7.86331 97.215 9.36269 100.064" stroke="#00BCFF" stroke-width="2" stroke-linecap="round"/>
<path d="M182.929 105.986C175.433 111.234 175.433 122.541 176.37 127.539L186.491 139.722C190.052 137.098 197.361 130.351 196.986 122.104C196.911 120.452 196.278 118.781 195.299 117.163C194.538 115.904 193.568 114.677 192.488 113.516C191.662 112.628 190.773 111.779 189.864 110.983C187.392 108.818 184.779 107.05 182.929 105.986Z" fill="white" stroke="black" stroke-width="2" stroke-linecap="round"/>
<path d="M183.304 88.5558C183.304 98.3018 179.556 127.977 177.682 141.596C177.869 145.157 180.306 143.97 181.43 142.533C183.044 140.472 185.179 125.103 185.928 116.482C187.128 109.135 188.177 86.9315 188.552 76.7482C184.504 73.4496 183.367 83.2455 183.304 88.5558Z" fill="white" stroke="black" stroke-width="2" stroke-linecap="round"/>
<path d="M179.207 117.706C179.506 112.158 185.861 110.973 189.36 111.077L192.701 113.616L195.608 117.325C196.17 117.91 196.767 119.655 196.767 122.204C192.868 122.204 189.952 124.328 188.765 125.391C185.466 126.89 184.08 124.079 186.703 122.204C181.081 125.016 180.519 121.642 183.142 119.018C181.193 120.218 179.331 118.831 179.207 117.706Z" fill="white"/>
<path d="M183.142 119.018C181.193 120.218 179.331 118.831 179.207 117.706C179.506 112.158 185.861 110.973 189.36 111.077L192.701 113.616M183.142 119.018C180.519 121.642 181.081 125.016 186.703 122.204M183.142 119.018C184.329 117.416 187.903 114.093 192.701 113.616M186.703 122.204C184.08 124.079 185.466 126.89 188.765 125.391M186.703 122.204C188.015 121.034 191.709 118.47 195.608 117.325M188.765 125.391C186.516 127.077 184.642 131.95 192.701 127.64M188.765 125.391C189.952 124.328 192.868 122.204 196.767 122.204C196.767 119.655 196.17 117.91 195.608 117.325M195.608 117.325L192.701 113.616" stroke="black" stroke-width="2" stroke-linecap="round"/>
<path d="M190.052 75.998C192.488 75.8106 195.549 76.8727 195.674 77.31V78.9968V81.9956V84.9943V87.4308C195.679 87.5577 195.682 87.6826 195.686 87.8057C195.713 88.7956 195.709 89.6614 195.674 90.4186C195.509 93.9906 193.468 93.9906 190.052 93.9906C186.811 93.9906 186.154 91.484 186.197 87.8057C186.206 87.0168 186.248 86.2516 186.303 85.5566C186.312 85.366 186.321 85.1786 186.331 84.9943C186.386 83.9592 186.461 83.0238 186.558 82.183C186.695 81.0018 186.875 80.0071 187.108 79.1842C187.702 77.0882 188.636 76.1069 190.052 75.998Z" fill="#00BCFF"/>
<path d="M195.674 78.9968V77.31C195.549 76.8727 192.488 75.8106 190.052 75.998C188.636 76.1069 187.702 77.0882 187.108 79.1842M195.674 78.9968L187.108 79.1842M195.674 78.9968V81.9956M187.108 79.1842C186.875 80.0071 186.695 81.0018 186.558 82.183M195.674 81.9956L186.558 82.183M195.674 81.9956V84.9943M186.558 82.183C186.461 83.0238 186.386 83.9592 186.331 84.9943M195.674 84.9943V87.4308C195.679 87.5577 195.682 87.6826 195.686 87.8057M195.674 84.9943H186.331M186.331 84.9943C186.321 85.1786 186.312 85.366 186.303 85.5566C186.248 86.2516 186.206 87.0168 186.197 87.8057M195.686 87.8057H186.197M195.686 87.8057C195.713 88.7956 195.709 89.6614 195.674 90.4186M186.197 87.8057C186.154 91.484 186.811 93.9906 190.052 93.9906C193.468 93.9906 195.509 93.9906 195.674 90.4186M195.674 90.4186H186.558" stroke="black" stroke-linecap="round"/>
<path d="M12.7364 125.927C-0.158272 128.476 0.116614 116.369 1.86589 109.997C2.24071 109.059 2.42814 119.702 20.0459 118.618C29.7918 118.018 32.7711 124.43 33.021 128.303L21.306 134.551C21.0061 126.004 15.4228 125.677 12.7364 125.927Z" fill="white" stroke="black" stroke-width="2" stroke-linecap="round"/>
<path d="M50.984 233.738C49.8989 223.173 49.6362 194.67 57.6823 163.693C49.7632 168.691 31.676 175.576 27.1778 168.379C23.6168 164.005 15.895 151.736 13.496 137.641L34.6747 126.583L42.1313 146.157C47.1234 137.036 61.4895 119.683 87.7153 108.778H113.017C121.764 115.463 141.431 132.319 150.127 146.263L173.367 123.585C175.491 127.521 181.614 136.479 189.111 140.828C177.053 156.696 150.962 179.005 145.816 173.814C140.671 168.623 138.432 167.067 136.633 159.57L137.757 229.291V230.614L50.984 233.738Z" fill="white"/>
<path d="M50.5957 233.509C49.5106 222.943 49.6263 195.514 57.6724 164.537M60.1543 155.728C59.2533 158.689 58.4279 161.629 57.6724 164.537M57.6724 164.537C49.7533 169.535 31.6661 176.42 27.1679 169.223C23.6069 164.85 15.8851 152.58 13.4861 138.486L34.6648 127.428L42.1617 147.107L41.0372 149.169C40.5 150.489 59.2172 121.468 87.7054 109.623M87.7054 109.623C83.1448 113.996 74.061 123.679 74.211 127.428C74.3414 130.688 78.9723 144.676 82.1707 153.854M87.7054 109.623C87.1819 115.188 86.5861 121.687 85.9587 128.74M87.7054 109.623H113.007M79.4588 231.822C79.0048 228.281 79.2725 218.968 79.9602 206.707M83.4915 157.603C83.0966 156.496 82.6497 155.229 82.1707 153.854M83.4915 157.603C82.0672 175.013 80.7422 192.766 79.9602 206.707M83.4915 157.603C84.3092 147.607 85.1596 137.724 85.9587 128.74M82.1707 153.854C78.8927 159.102 71.9619 169.823 70.4625 170.722C73.8034 179.094 80.3803 198.011 79.9602 206.707M113.007 109.623L122.379 120.868C122.528 129.114 113.888 145.17 109.549 152.167M113.007 109.623C121.754 116.307 141.421 133.163 150.117 147.107L173.357 124.429C175.482 128.365 181.604 137.324 189.101 141.672C177.043 157.54 150.952 179.849 145.806 174.658C140.661 169.467 138.422 167.911 136.623 160.414L137.747 230.135M113.007 109.623L111.278 130.895M119.005 162.851C113.157 176.795 102.975 219.556 102.53 230.135C102.085 240.715 109.549 152.167 109.549 152.167M119.005 162.851C118.199 160.414 114.729 156.216 109.549 152.167M119.005 162.851L109.549 152.167M109.549 152.167L111.278 130.895M85.9587 128.74C88.3244 133.613 96.7003 140.866 111.278 130.895" stroke="black" stroke-width="2" stroke-linecap="round"/>
<circle cx="9.92501" cy="104.749" r="1.12453" fill="#00BCFF"/>
<circle cx="79.8336" cy="69.7008" r="3.18618" fill="black"/>
<path d="M85.831 81.1339C83.7695 82.6333 86.46 105.555 98.5758 86.3817M107.01 67.6395C107.01 67.6395 114.919 62.5791 117.318 71.5754" stroke="black" stroke-width="2" stroke-linecap="round"/>
<circle cx="110.758" cy="74.404" r="3.18618" fill="black"/>
</svg>
