<svg width="85" height="84" viewBox="0 0 85 84" fill="none" xmlns="http://www.w3.org/2000/svg">
<path d="M2.95613 22.9368C10.4433 15.6254 13.6878 25.6103 14.3741 31.5166C18.2108 33.73 22.8869 28.6062 26.4634 22.9368C28.1914 20.1976 29.6628 17.331 30.6587 15.1031C35.5254 8.38847 36.8981 13.3622 37.2101 16.4087C40.0178 24.4289 46.3819 16.5952 44.5101 13.7975C42.6383 10.9997 35.7126 10.9997 36.4613 7.82892C37.2101 4.65813 40.2424 -0.527028 46.3819 5.59072C52.5214 11.7085 55.0546 8.13979 55.5537 5.59072C56.3025 -0.191293 60.0461 -0.93736 64.3512 2.79297C68.6564 6.52331 67.5333 11.3727 60.0461 11.9323C54.0563 12.3799 54.2435 16.4087 58.3614 18.0873C60.4912 18.9555 63.0381 21.2871 65.4067 23.8694C67.618 26.2801 70.1764 29.3326 71.0897 30.7705C72.003 32.2083 73.1112 34.1278 80.4487 37.8581C87.7862 41.5884 83.506 46.127 80.4487 47.93C74.5899 51.2181 70.4044 54.4534 67.5039 57.2558C63.9548 60.685 62.3299 63.4661 61.9179 64.903C60.5702 68.0365 64.7481 69.4337 66.223 70.1255C67.6979 70.8173 72.0256 77.3997 62.4794 81.3165C52.9332 85.2334 56.1153 76.094 55.7409 73.6693C55.4414 71.7295 53.4947 72.8611 52.5588 73.6693C39.9022 76.8679 36.0053 72.5534 28.6445 66.0816C25.6049 63.0614 25.2929 58.6858 25.6049 56.1367C19.0161 60.6131 17.2825 55.9502 18.8664 53.8985C24.4818 46.6244 15.6843 44.1997 12.8766 46.2514C7.03657 48.0419 5.38932 40.2828 7.82273 38.7907C10.2561 37.2986 12.1279 33.3817 9.69462 32.6356C7.26134 31.8896 -4.53109 30.2483 2.95613 22.9368Z" fill="white"/>
<path d="M25.6049 56.1367C19.0161 60.6131 17.2825 55.9502 18.8664 53.8985C24.4818 46.6244 15.6843 44.1997 12.8766 46.2514C7.03657 48.0419 5.38932 40.2828 7.82273 38.7907C10.2561 37.2986 12.1279 33.3817 9.69462 32.6356C7.26134 31.8896 -4.53109 30.2483 2.95613 22.9368C10.4433 15.6254 13.6878 25.6103 14.3741 31.5166C18.2108 33.73 22.8869 28.6062 26.4634 22.9368M25.6049 56.1367C25.2929 58.6858 25.6049 63.0614 28.6445 66.0816C36.0053 72.5534 39.9022 76.8679 52.5588 73.6693C53.4947 72.8611 55.4414 71.7295 55.7409 73.6693C56.1153 76.094 52.9332 85.2333 62.4794 81.3165C72.0256 77.3996 67.6979 70.8173 66.223 70.1255C64.7481 69.4337 60.5702 68.0365 61.9179 64.903C62.3299 63.4661 63.9548 60.685 67.5039 57.2558M25.6049 56.1367C26.728 53.8985 29.311 50.0936 30.6587 52.7794C32.3434 56.1367 35.5254 63.7839 40.9537 57.2558C45.2962 52.0334 35.1511 50.7278 34.2152 50.1682C33.2793 49.6087 31.6321 46.9974 32.5305 46.2514C37.6306 45.7749 44.3412 45.7005 48.4409 40.8424M65.4067 23.8694C67.618 26.2801 70.1764 29.3326 71.0897 30.7705C72.003 32.2083 73.1112 34.1278 80.4487 37.8581C87.7862 41.5884 83.506 46.127 80.4487 47.93C74.5899 51.2181 70.4044 54.4534 67.5039 57.2558M65.4067 23.8694C63.0381 21.2871 60.4912 18.9555 58.3614 18.0873C54.2435 16.4087 54.0563 12.3799 60.0461 11.9323C67.5333 11.3727 68.6564 6.52331 64.3512 2.79297C60.0461 -0.93736 56.3025 -0.191293 55.5537 5.59072C55.0546 8.13979 52.5214 11.7085 46.3819 5.59072C40.2424 -0.527028 37.2101 4.65813 36.4613 7.82892C35.7126 10.9997 42.6383 10.9997 44.5101 13.7975C46.3819 16.5952 40.0178 24.4289 37.2101 16.4087C36.8981 13.3622 35.5254 8.38847 30.6587 15.1031C29.6628 17.331 28.1914 20.1976 26.4634 22.9368M65.4067 23.8694C61.9179 25.3615 58.3614 30.2109 64.7256 34.5008C71.0897 38.7907 69.2179 40.0963 64.7256 42.521C60.2332 44.9457 60.032 36.0472 58.3614 32.6356C56.6909 29.2241 55.7183 32.0218 53.1204 35.9929C50.5224 39.9641 49.1561 39.9948 48.4409 40.8424M48.4409 40.8424C43.2232 41.5263 34.8141 41.2527 41.7024 32.4491C42.5135 28.6566 41.8147 22.4891 32.5305 28.1592C30.9815 30.1488 29.8456 29.8007 26.4634 22.9368M48.4409 40.8424C51.6463 43.7023 59.1476 48.5269 54.805 50.1682C49.3768 52.2199 50.3802 60.2401 57.4255 55.2042C63.0618 51.1754 66.8048 54.6446 67.5039 57.2558" stroke="black" stroke-linecap="round"/>
<path d="M3.70466 41.9613L7.63545 38.9771C7.1753 39.6102 6.89391 40.2561 6.76171 40.89C6.64925 41.4292 6.64475 41.9598 6.73001 42.4666C6.81901 42.9956 7.00583 43.4988 7.26977 43.9587C7.5118 44.3805 7.81867 44.766 8.17443 45.1019C8.49438 45.404 8.85386 45.6659 9.24128 45.8782C9.6677 46.1118 10.128 46.2851 10.6066 46.3852C11.0673 46.4816 11.5451 46.5102 12.0261 46.4595C12.6254 46.3963 13.2298 46.2099 13.8124 45.8782C13.4379 46.0914 13.116 46.7474 12.8569 47.5025C12.3908 48.8613 12.1279 50.5411 12.1279 50.5411C11.4888 53.725 10.4255 54.3122 9.11034 53.6427C8.75338 53.461 8.37787 53.1867 7.98725 52.8466C7.637 52.5416 7.27461 52.1838 6.90255 51.7924C6.53169 51.4023 6.15124 50.9788 5.76365 50.5411C5.29439 50.0111 4.82618 49.4968 4.38821 48.9947C3.94459 48.486 3.53199 47.9899 3.18074 47.5025C2.81636 46.997 2.518 46.501 2.31951 46.0104C2.11653 45.5087 2.018 45.0128 2.06013 44.5183C2.13247 43.6691 2.61954 42.8241 3.70466 41.9613Z" fill="#00BCFF"/>
<path d="M5.76365 50.5411C5.29439 50.0111 4.82618 49.4968 4.38821 48.9947M5.76365 50.5411L9.24128 45.8782M5.76365 50.5411C6.15124 50.9788 6.53169 51.4023 6.90255 51.7924M6.76171 40.89C6.89391 40.2561 7.1753 39.6102 7.63545 38.9771L3.70466 41.9613C2.61954 42.8241 2.13247 43.6691 2.06013 44.5183M6.76171 40.89L2.06013 44.5183M6.76171 40.89C6.64925 41.4292 6.64475 41.9598 6.73001 42.4666M2.06013 44.5183C2.018 45.0128 2.11653 45.5087 2.31951 46.0104M6.73001 42.4666L2.31951 46.0104M6.73001 42.4666C6.81901 42.9956 7.00583 43.4988 7.26977 43.9587M2.31951 46.0104C2.518 46.501 2.81636 46.997 3.18074 47.5025M7.26977 43.9587L3.18074 47.5025M7.26977 43.9587C7.5118 44.3805 7.81867 44.766 8.17443 45.1019M3.18074 47.5025C3.53199 47.9899 3.94459 48.486 4.38821 48.9947M8.17443 45.1019L4.38821 48.9947M8.17443 45.1019C8.49438 45.404 8.85386 45.6659 9.24128 45.8782M9.24128 45.8782C10.0782 46.3366 11.0455 46.5629 12.0261 46.4595M10.6078 46.3834L6.90255 51.7924M6.90255 51.7924C7.27461 52.1838 7.637 52.5416 7.98725 52.8466M12.0261 46.4595C12.6254 46.3963 13.2298 46.2099 13.8124 45.8782C13.4379 46.0914 13.116 46.7474 12.8569 47.5025M12.0261 46.4595L7.98725 52.8466M7.98725 52.8466C8.37787 53.1867 8.75338 53.461 9.11034 53.6427M12.8569 47.5025C12.3908 48.8613 12.1279 50.5411 12.1279 50.5411C11.4888 53.725 10.4255 54.3122 9.11034 53.6427M12.8569 47.5025L9.11034 53.6427" stroke="black" stroke-width="0.5" stroke-linecap="round"/>
<path d="M45.9849 43.0259L43.5515 44.3315C43.3093 44.3633 43.0588 44.389 42.8028 44.4081C42.1991 44.4531 41.5642 44.4615 40.931 44.4259C40.3388 44.3925 39.7482 44.3208 39.1861 44.2046C38.715 44.1073 38.264 43.9788 37.8489 43.8157C37.43 43.6511 37.0477 43.4512 36.7182 43.2124C36.2952 42.9059 35.9594 42.5354 35.7451 42.0933C35.6088 41.8121 35.5216 41.5019 35.4926 41.1607C35.468 40.8724 35.4849 40.5619 35.5487 40.2282C35.6253 39.8272 35.7696 39.3927 35.9907 38.9225C36.2333 38.4068 36.5684 37.8481 37.0084 37.2439C37.9972 35.8859 39.5154 34.2977 41.7023 32.4487C41.2047 33.1145 40.0569 34.7819 39.4471 36.1248C39.2077 36.7581 39.0994 37.3149 39.101 37.8034C39.1023 38.2256 39.1857 38.5968 39.3373 38.9225C39.4911 39.253 39.7152 39.5366 39.9951 39.7789C40.3068 40.0487 40.6878 40.2674 41.1182 40.4427C41.4641 40.5836 41.8419 40.6965 42.2413 40.7854C42.6726 40.8814 43.1292 40.9495 43.598 40.9946C44.2139 41.054 44.851 41.0738 45.4796 41.0657C46.5371 41.052 47.5709 40.9591 48.4408 40.842L45.9849 43.0259Z" fill="#00BCFF"/>
<path d="M35.9907 38.9225C36.2333 38.4068 36.5684 37.8481 37.0084 37.2439C37.9972 35.8859 39.5154 34.2977 41.7023 32.4487C41.2047 33.1145 40.0569 34.7819 39.4471 36.1248M35.9907 38.9225L39.4471 36.1248M35.9907 38.9225C35.7696 39.3927 35.6253 39.8272 35.5487 40.2282M39.4471 36.1248C39.2077 36.7581 39.0994 37.3149 39.101 37.8034M35.5487 40.2282L39.101 37.8034M35.5487 40.2282C35.4849 40.5619 35.468 40.8724 35.4926 41.1607M39.101 37.8034C39.1023 38.2256 39.1857 38.5968 39.3373 38.9225M35.4926 41.1607L39.3373 38.9225M35.4926 41.1607C35.5216 41.5019 35.6088 41.8121 35.7451 42.0933M39.3373 38.9225C39.4911 39.253 39.7152 39.5366 39.9951 39.7789M35.7451 42.0933L39.9951 39.7789M35.7451 42.0933C35.9594 42.5354 36.2952 42.9059 36.7182 43.2124M39.9951 39.7789C40.3068 40.0487 40.6878 40.2674 41.1182 40.4427M36.7182 43.2124L41.1182 40.4427M36.7182 43.2124C37.0477 43.4512 37.43 43.6511 37.8489 43.8157M41.1182 40.4427C41.4641 40.5836 41.8419 40.6965 42.2413 40.7854M37.8489 43.8157L42.2413 40.7854M37.8489 43.8157C38.264 43.9788 38.715 44.1073 39.1861 44.2046M42.2413 40.7854C42.6726 40.8814 43.1292 40.9495 43.598 40.9946M39.1861 44.2046L43.598 40.9946M39.1861 44.2046C39.7482 44.3208 40.3388 44.3925 40.931 44.4259M43.598 40.9946C44.2139 41.054 44.851 41.0738 45.4796 41.0657M40.931 44.4259L45.4796 41.0657M40.931 44.4259C41.5642 44.4615 42.1991 44.4531 42.8028 44.4081M45.4796 41.0657C46.5371 41.052 47.5709 40.9591 48.4408 40.842L45.9849 43.0259L43.5515 44.3315C43.3093 44.3633 43.0588 44.389 42.8028 44.4081M42.8028 44.4081L46.9208 41.0657" stroke="black" stroke-width="0.5" stroke-linecap="round"/>
<path d="M23.8977 26.7996L26.5408 22.937C26.6974 23.313 26.851 23.6676 27.0016 24.0018C27.1962 24.4339 27.3858 24.832 27.5704 25.1984C27.7741 25.6029 27.9717 25.9687 28.1632 26.2989C28.3707 26.6568 28.5711 26.9729 28.7644 27.2513C28.9398 27.5039 29.1094 27.7254 29.2733 27.9187C29.5109 28.1991 29.7363 28.4202 29.9497 28.591C30.2493 28.8307 30.5251 28.9714 30.7776 29.0378C31.1992 29.1487 31.5556 29.0525 31.8486 28.8654C32.0659 28.6412 32.2929 28.4057 32.5306 28.1595C32.3635 28.4093 32.1367 28.6813 31.8486 28.8654C30.3526 30.4084 29.3156 31.4183 28.4422 31.7534C28.1108 31.8805 27.803 31.9104 27.5026 31.8355C27.1979 31.7596 26.9009 31.5757 26.5946 31.276C26.4471 31.1316 26.2975 30.9604 26.1439 30.7613C25.7653 30.2709 25.3624 29.6117 24.907 28.7704C24.7341 28.4508 24.5536 28.105 24.3639 27.7322C24.2144 27.4382 24.0593 27.1275 23.8977 26.7996Z" fill="#00BCFF"/>
<path d="M24.3639 27.7322C24.2144 27.4382 24.0593 27.1275 23.8977 26.7996L26.5408 22.937C26.6974 23.313 26.851 23.6676 27.0016 24.0018M24.3639 27.7322L27.0016 24.0018M24.3639 27.7322C24.5536 28.105 24.7341 28.4508 24.907 28.7704M27.0016 24.0018C27.1962 24.4339 27.3858 24.832 27.5704 25.1984M24.907 28.7704L27.5704 25.1984M24.907 28.7704C25.3624 29.6117 25.7653 30.2709 26.1439 30.7613M27.5704 25.1984C27.7741 25.6029 27.9717 25.9687 28.1632 26.2989M25.5823 29.7838L28.1632 26.2989M28.1632 26.2989C28.3707 26.6568 28.5711 26.9729 28.7644 27.2513M26.1439 30.7613L28.7644 27.2513M26.1439 30.7613C26.2975 30.9604 26.4471 31.1316 26.5946 31.276M28.7644 27.2513C28.9398 27.5039 29.1094 27.7254 29.2733 27.9187M26.5946 31.276L29.2733 27.9187M26.5946 31.276C26.9009 31.5757 27.1979 31.7596 27.5026 31.8355M29.2733 27.9187C29.5109 28.1991 29.7363 28.4202 29.9497 28.591M27.5026 31.8355L29.9497 28.591M27.5026 31.8355C27.803 31.9104 28.1108 31.8805 28.4422 31.7534M29.9497 28.591C30.2493 28.8307 30.5251 28.9714 30.7776 29.0378M28.4422 31.7534C29.4426 31.3697 30.6574 30.1006 32.5306 28.1595C32.1935 28.6632 31.6138 29.2577 30.7776 29.0378M28.4422 31.7534L30.7776 29.0378" stroke="black" stroke-width="0.5" stroke-linecap="round"/>
<path d="M54.9697 72.8688C54.5953 72.3092 49.9384 76.0939 46.7563 82.0624C46.1859 83.1322 45.3293 83.6103 44.3004 83.6619C43.8522 83.6844 43.3714 83.6259 42.8673 83.5002C42.2509 83.3465 41.5998 83.0923 40.9312 82.7624C40.2939 82.4481 39.6408 82.0651 38.9867 81.6351C38.5104 81.3219 38.0335 80.9838 37.5619 80.6291C37.0543 80.2473 36.5527 79.8463 36.0645 79.4366C35.61 79.0551 35.167 78.6661 34.7413 78.2778C34.3556 77.926 33.9841 77.5748 33.6311 77.2305C33.2105 76.8202 32.8161 76.4197 32.4554 76.0396C32.3529 75.9316 32.2531 75.8253 32.1563 75.7208C31.9257 75.4592 31.6893 75.1924 31.4445 74.9205C31.1167 74.5563 30.7738 74.1831 30.4102 73.8014C30.0622 73.436 29.6952 73.0629 29.304 72.6823C28.9274 72.316 28.5285 71.9428 28.1027 71.5632C27.6909 71.1961 27.2539 70.8229 26.7877 70.4441C26.3689 70.1038 25.9266 69.759 25.4576 69.4098C24.9678 69.0451 24.449 68.6756 23.8977 68.3017C23.3672 67.9419 22.8067 67.5779 22.2131 67.21C21.9764 67.0633 21.7344 66.916 21.487 66.768C21.1137 66.5653 20.7297 66.3457 20.3413 66.1112C19.721 65.7368 19.0891 65.3242 18.4705 64.8814C17.8222 64.4173 17.1884 63.9199 16.5977 63.3982C16.1063 62.9642 15.6447 62.5134 15.2293 62.0508C14.6855 61.4453 14.221 60.8197 13.8726 60.1857C13.5451 59.5897 13.3202 58.9863 13.2285 58.385C13.1391 57.7989 13.1762 57.215 13.368 56.6418C13.9414 54.9295 15.8967 53.3143 19.9895 52.0332C19.5831 52.6407 19.2671 53.1962 19.031 53.7021C18.622 54.5787 18.4532 55.3061 18.4705 55.8958C18.4909 56.5904 18.7696 57.0939 19.2182 57.4251C19.6891 57.7727 20.3471 57.9304 21.09 57.92C22.0221 57.9069 23.0877 57.6292 24.0849 57.1297C24.6219 56.8607 25.1391 56.5274 25.6049 56.1366C25.5199 56.6957 25.4727 57.2377 25.4576 57.7609C25.4306 58.6939 25.5055 59.5673 25.6497 60.3722C25.7967 61.1927 26.0157 61.9419 26.2721 62.6104C26.548 63.3295 26.8673 63.9552 27.1868 64.4755C27.5545 65.0743 27.9226 65.5336 28.2255 65.8354C28.6264 66.3158 29.0287 66.7737 29.4318 67.21C29.8326 67.6439 30.2343 68.0564 30.6362 68.4485C31.0105 68.8136 31.3849 69.1609 31.7593 69.4912C32.1389 69.8261 32.5185 70.1435 32.8974 70.4441C33.3145 70.775 33.731 71.0855 34.1463 71.3767C34.4746 71.6068 34.8021 71.8249 35.1286 72.0313C35.5674 72.3088 36.0044 72.5653 36.4388 72.8018C36.9417 73.0757 37.4412 73.3229 37.9363 73.5453C38.5042 73.8005 39.0663 74.023 39.6209 74.2155C40.3201 74.4582 41.0075 74.6533 41.6799 74.8062C42.4498 74.9813 43.2001 75.1012 43.926 75.1739C44.7728 75.2587 45.5864 75.2795 46.3594 75.2491C47.1537 75.2179 47.9051 75.1328 48.6055 75.0079C49.4291 74.861 50.1822 74.6589 50.8517 74.4247C51.5044 74.1964 52.0775 73.9375 52.5589 73.6691C54.0338 72.6823 54.9073 72.1849 54.9697 72.8688Z" fill="#00BCFF"/>
<path d="M28.2255 65.8354C27.9226 65.5336 27.5545 65.0743 27.1868 64.4755M28.2255 65.8354L25.4576 69.4098M28.2255 65.8354C28.6264 66.3158 29.0287 66.7737 29.4318 67.21M19.031 53.7021C19.2671 53.1962 19.5831 52.6407 19.9895 52.0332C15.8967 53.3143 13.9414 54.9295 13.368 56.6418M19.031 53.7021L13.368 56.6418M19.031 53.7021C18.622 54.5787 18.4532 55.3061 18.4705 55.8958M13.368 56.6418C13.1762 57.215 13.1391 57.7989 13.2285 58.385M18.4705 55.8958L13.2285 58.385M18.4705 55.8958C18.4909 56.5904 18.7696 57.0939 19.2182 57.4251M13.2285 58.385C13.3202 58.9863 13.5451 59.5897 13.8726 60.1857M19.2182 57.4251L13.8726 60.1857M19.2182 57.4251C19.6891 57.7727 20.3471 57.9304 21.09 57.92M13.8726 60.1857C14.221 60.8197 14.6855 61.4453 15.2293 62.0508M21.09 57.92L15.2293 62.0508M21.09 57.92C22.0221 57.9069 23.0877 57.6292 24.0849 57.1297M15.2293 62.0508C15.6447 62.5134 16.1063 62.9642 16.5977 63.3982M24.0849 57.1297C24.6219 56.8607 25.1391 56.5274 25.6049 56.1366C25.5199 56.6957 25.4727 57.2377 25.4576 57.7609M24.0849 57.1297L16.5977 63.3982M16.5977 63.3982C17.1884 63.9199 17.8222 64.4173 18.4705 64.8814M25.4576 57.7609L18.4705 64.8814M25.4576 57.7609C25.4306 58.6939 25.5055 59.5673 25.6497 60.3722M18.4705 64.8814C19.0891 65.3242 19.721 65.7368 20.3413 66.1112M25.6497 60.3722L20.3413 66.1112M25.6497 60.3722C25.7967 61.1927 26.0157 61.9419 26.2721 62.6104M20.3413 66.1112C20.7297 66.3457 21.1137 66.5653 21.487 66.768C21.7344 66.916 21.9764 67.0633 22.2131 67.21M26.2721 62.6104L22.2131 67.21M26.2721 62.6104C26.548 63.3295 26.8673 63.9552 27.1868 64.4755M22.2131 67.21C22.8067 67.5779 23.3672 67.9419 23.8977 68.3017M27.1868 64.4755L23.8977 68.3017M23.8977 68.3017C24.449 68.6756 24.9678 69.0451 25.4576 69.4098M25.4576 69.4098C25.9266 69.759 26.3689 70.1038 26.7877 70.4441M29.4318 67.21L26.7877 70.4441M29.4318 67.21C29.8326 67.6439 30.2343 68.0564 30.6362 68.4485M26.7877 70.4441C27.2539 70.8229 27.6909 71.1961 28.1027 71.5632M30.6362 68.4485L28.1027 71.5632M30.6362 68.4485C31.0105 68.8136 31.3849 69.1609 31.7593 69.4912M28.1027 71.5632C28.5285 71.9428 28.9274 72.316 29.304 72.6823M31.7593 69.4912L29.304 72.6823M31.7593 69.4912C32.1389 69.8261 32.5185 70.1435 32.8974 70.4441M29.304 72.6823C29.6952 73.0629 30.0622 73.436 30.4102 73.8014M32.8974 70.4441L30.4102 73.8014M32.8974 70.4441C33.3145 70.775 33.731 71.0855 34.1463 71.3767M30.4102 73.8014C30.7738 74.1831 31.1167 74.5563 31.4445 74.9205M31.4445 74.9205C31.6893 75.1924 31.9257 75.4592 32.1563 75.7208C32.2531 75.8253 32.3529 75.9316 32.4554 76.0396M31.4445 74.9205L34.1463 71.3767M34.1463 71.3767C34.4746 71.6068 34.8021 71.8249 35.1286 72.0313M32.4554 76.0396L35.1286 72.0313M32.4554 76.0396C32.8161 76.4197 33.2105 76.8202 33.6311 77.2305M35.1286 72.0313C35.5674 72.3088 36.0044 72.5653 36.4388 72.8018M33.6311 77.2305L36.4388 72.8018M33.6311 77.2305C33.9841 77.5748 34.3556 77.926 34.7413 78.2778M36.4388 72.8018C36.9417 73.0757 37.4412 73.3229 37.9363 73.5453M34.7413 78.2778L37.9363 73.5453M34.7413 78.2778C35.167 78.6661 35.61 79.0551 36.0645 79.4366M37.9363 73.5453C38.5042 73.8005 39.0663 74.023 39.6209 74.2155M36.0645 79.4366L39.6209 74.2155M36.0645 79.4366C36.5527 79.8463 37.0543 80.2473 37.5619 80.6291M39.6209 74.2155C40.3201 74.4582 41.0075 74.6533 41.6799 74.8062M37.5619 80.6291L41.6799 74.8062M37.5619 80.6291C38.0335 80.9838 38.5104 81.3219 38.9867 81.6351M41.6799 74.8062C42.4498 74.9813 43.2001 75.1012 43.926 75.1739M38.9867 81.6351L43.926 75.1739M38.9867 81.6351C39.6408 82.0651 40.2939 82.4481 40.9312 82.7624M43.926 75.1739C44.7728 75.2587 45.5864 75.2795 46.3594 75.2491M40.9312 82.7624L46.3594 75.2491M40.9312 82.7624C41.5998 83.0923 42.2509 83.3465 42.8673 83.5002M46.3594 75.2491C47.1537 75.2179 47.9051 75.1328 48.6055 75.0079M42.8673 83.5002L48.6055 75.0079M42.8673 83.5002C43.3714 83.6259 43.8522 83.6844 44.3004 83.6619M48.6055 75.0079C49.4291 74.861 50.1822 74.6589 50.8517 74.4247M44.3004 83.6619C45.3293 83.6103 46.1859 83.1322 46.7563 82.0624C49.9384 76.0939 54.5953 72.3092 54.9697 72.8688C54.9073 72.1849 54.0338 72.6823 52.5589 73.6691C52.0775 73.9375 51.5044 74.1964 50.8517 74.4247M44.3004 83.6619L50.8517 74.4247" stroke="black" stroke-width="0.5" stroke-linecap="round"/>
<path d="M51.9747 52.5388C51.9922 52.4995 52.0132 52.4568 52.0376 52.411C52.1591 52.1033 52.1286 51.6909 51.9747 51.2153C51.9004 50.9857 51.7974 50.7414 51.6688 50.487C51.5002 50.1534 51.2878 49.8025 51.0388 49.4447C50.7889 49.0857 50.5022 48.7197 50.1859 48.3573C49.8728 47.9986 49.5308 47.6435 49.167 47.3021C48.8113 46.9683 48.4347 46.6478 48.0439 46.3499C47.6078 46.0175 47.1539 45.7135 46.6916 45.451C46.2122 45.1789 45.7236 44.9515 45.2362 44.7836C44.4047 44.4973 43.5766 44.3844 42.8029 44.5185C45.4983 43.6232 47.6695 41.7829 48.4183 40.9746C48.6558 41.1166 48.9067 41.2808 49.167 41.4626C49.4941 41.691 49.8362 41.9472 50.1859 42.2223C50.5574 42.5146 50.9375 42.8283 51.3171 43.1526C51.6637 43.4487 52.01 43.7537 52.3491 44.0594C52.7362 44.4084 53.114 44.7583 53.4721 45.097C53.882 45.4845 54.2663 45.8573 54.6097 46.1971C54.9667 46.5504 55.2796 46.8681 55.5311 47.1297C55.7601 47.4339 56.0077 47.8869 56.0989 48.3573C56.2314 49.0406 56.0338 49.7604 54.9696 50.1139C53.2987 50.6689 52.3615 51.8045 52.0376 52.411C52.0199 52.4559 51.999 52.4985 51.9747 52.5388Z" fill="#00BCFF"/>
<path d="M55.5311 47.1297C55.2796 46.8681 54.9667 46.5504 54.6097 46.1971M55.5311 47.1297L51.6688 50.487M55.5311 47.1297C55.7601 47.4339 56.0077 47.8869 56.0989 48.3573M45.2362 44.7836C44.4047 44.4973 43.5766 44.3844 42.8029 44.5185C45.4983 43.6232 47.6695 41.7829 48.4183 40.9746C48.6558 41.1166 48.9067 41.2808 49.167 41.4626M45.2362 44.7836C46.4217 43.8393 48.8675 41.8529 49.167 41.4626M45.2362 44.7836C45.7236 44.9515 46.2122 45.1789 46.6916 45.451M49.167 41.4626C49.4941 41.691 49.8362 41.9472 50.1859 42.2223M46.6916 45.451L50.1859 42.2223M46.6916 45.451C47.1539 45.7135 47.6078 46.0175 48.0439 46.3499M50.1859 42.2223C50.5574 42.5146 50.9375 42.8283 51.3171 43.1526M48.0439 46.3499L51.3171 43.1526M48.0439 46.3499C48.4347 46.6478 48.8113 46.9683 49.167 47.3021M51.3171 43.1526C51.6637 43.4487 52.01 43.7537 52.3491 44.0594M49.167 47.3021L52.3491 44.0594M49.167 47.3021C49.5308 47.6435 49.8728 47.9986 50.1859 48.3573M52.3491 44.0594C52.7362 44.4084 53.114 44.7583 53.4721 45.097M50.1859 48.3573L53.4721 45.097M50.1859 48.3573C50.5022 48.7197 50.7889 49.0857 51.0388 49.4447M53.4721 45.097C53.882 45.4845 54.2663 45.8573 54.6097 46.1971M51.0388 49.4447L54.6097 46.1971M51.0388 49.4447C51.2878 49.8025 51.5002 50.1534 51.6688 50.487M51.6688 50.487C51.7974 50.7414 51.9004 50.9857 51.9747 51.2153M51.9747 51.2153C52.151 51.7603 52.1654 52.2221 51.9747 52.5388C52.2243 51.9792 53.1726 50.7108 54.9696 50.1139C56.0338 49.7604 56.2314 49.0406 56.0989 48.3573M51.9747 51.2153L56.0989 48.3573" stroke="black" stroke-width="0.5" stroke-linecap="round"/>
<path d="M67.5107 57.2047L64.1415 60.9351C64.1618 60.6312 64.1203 60.3433 64.0263 60.0709C63.9502 59.8506 63.8397 59.6403 63.6999 59.4397C63.5524 59.2283 63.3723 59.0276 63.1653 58.8373C62.9549 58.6439 62.7167 58.4612 62.4569 58.2887C62.2233 58.1337 61.9723 57.9869 61.7081 57.8481C61.4512 57.713 61.1818 57.5854 60.9042 57.465C60.5585 57.3151 60.1999 57.1764 59.8363 57.0482C59.5019 56.9302 59.1633 56.8212 58.8266 56.7207C58.4724 56.6149 58.1202 56.5185 57.7774 56.4308C57.2473 56.2954 56.7394 56.181 56.2799 56.0856C57.2882 55.3211 58.2233 54.7498 59.0876 54.3395C59.5737 54.1087 60.0375 53.9289 60.4793 53.7943C60.9522 53.6502 61.3999 53.5579 61.8232 53.5103C62.3016 53.4565 62.7487 53.4599 63.1653 53.5103C63.5529 53.5572 63.9141 53.6448 64.2496 53.765C64.5864 53.8857 64.8973 54.0392 65.1829 54.2173C65.4884 54.4077 65.7649 54.6263 66.0133 54.8629C66.232 55.0713 66.4289 55.2935 66.6045 55.5229C66.8108 55.7923 66.9878 56.0715 67.1364 56.3492C67.2921 56.6402 67.4165 56.9297 67.5107 57.2047Z" fill="#00BCFF"/>
<path d="M57.7774 56.4308C57.2473 56.2954 56.7394 56.181 56.2799 56.0856C57.2882 55.3211 58.2233 54.7498 59.0876 54.3395M57.7774 56.4308L59.0876 54.3395M57.7774 56.4308C58.1202 56.5185 58.4724 56.6149 58.8266 56.7207M59.0876 54.3395C59.5737 54.1087 60.0375 53.9289 60.4793 53.7943M58.8266 56.7207L60.4793 53.7943M58.8266 56.7207C59.1633 56.8212 59.5019 56.9302 59.8363 57.0482M60.4793 53.7943C60.9522 53.6502 61.3999 53.5579 61.8232 53.5103M59.8363 57.0482L61.8232 53.5103M59.8363 57.0482C60.1999 57.1764 60.5585 57.3151 60.9042 57.465M61.8232 53.5103C62.3016 53.4565 62.7487 53.4599 63.1653 53.5103M60.9042 57.465L63.1653 53.5103M60.9042 57.465C61.1818 57.5854 61.4512 57.713 61.7081 57.8481M63.1653 53.5103C63.5529 53.5572 63.9141 53.6448 64.2496 53.765M61.7081 57.8481L64.2496 53.765M61.7081 57.8481C61.9723 57.9869 62.2233 58.1337 62.4569 58.2887M64.2496 53.765C64.5864 53.8857 64.8973 54.0392 65.1829 54.2173M62.4569 58.2887L65.1829 54.2173M62.4569 58.2887C62.7167 58.4612 62.9549 58.6439 63.1653 58.8373M65.1829 54.2173C65.4884 54.4077 65.7649 54.6263 66.0133 54.8629M63.1653 58.8373L66.0133 54.8629M63.1653 58.8373C63.3723 59.0276 63.5524 59.2283 63.6999 59.4397M66.0133 54.8629C66.232 55.0713 66.4289 55.2935 66.6045 55.5229M63.6999 59.4397L66.6045 55.5229M63.6999 59.4397C63.8397 59.6403 63.9502 59.8506 64.0263 60.0709M66.6045 55.5229C66.8108 55.7923 66.9878 56.0715 67.1364 56.3492M64.0263 60.0709C64.1203 60.3433 64.1618 60.6312 64.1415 60.9351L67.5107 57.2047C67.4165 56.9297 67.2921 56.6402 67.1364 56.3492M64.0263 60.0709L67.1364 56.3492" stroke="black" stroke-width="0.5" stroke-linecap="round"/>
</svg>
