<svg width="115" height="60" viewBox="0 0 115 60" fill="none" xmlns="http://www.w3.org/2000/svg">
<path d="M86.2602 58.8852C85.7673 59.3781 76.4027 49.5206 76.4027 49.5206C53.5334 49.5206 58.6592 28.8203 57.6736 9.59794C56.195 -4.69536 94.9506 3.13313 95.6247 3.19099C106.962 4.16414 97.1034 29.3128 95.6248 39.6632C94.4419 47.9434 86.9173 49.0277 83.3029 48.5349C83.3029 48.5349 86.7531 58.3923 86.2602 58.8852Z" fill="white" stroke="black" stroke-width="2" stroke-linecap="round"/>
<path d="M26.6228 58.8845C26.1299 58.3916 29.0871 49.5199 29.0871 49.5199C11.8366 52.9696 12.8224 21.4266 11.8366 9.59765C11.048 0.134496 35.3301 1.38269 47.8162 2.69701C58.1665 2.69673 54.7164 19.4547 54.2236 35.2266C53.8293 47.8441 41.5732 50.3413 35.4945 50.0128C35.4945 50.0128 27.1156 59.3773 26.6228 58.8845Z" fill="white" stroke="black" stroke-width="2" stroke-linecap="round"/>
<path d="M30.0726 37.1994C29.5797 37.3637 28.594 38.0866 28.594 39.6638C28.594 41.6353 32.0441 42.1281 32.537 39.1709C32.9313 36.8051 31.7155 36.8708 31.0584 37.1994" stroke="#00BCFF" stroke-width="2" stroke-linecap="round"/>
<path d="M33.0299 34.735C40.5873 27.0134 51.8335 9 33.5227 10.0914C23.1725 11.57 25.3825 29.7099 33.5228 24.8776C34.5085 24.2204 35.0014 21.9204 33.0299 19.456C31.0584 16.9916 33.4242 12.7529 36.9729 15.513C38.7801 17.4845 40.3244 23.5961 32.0442 32.2707" stroke="#00BCFF" stroke-width="2" stroke-linecap="round"/>
<path d="M78.3739 37.1983C77.3881 36.8697 74.4309 37.6916 75.4167 39.6635C76.4024 41.6354 79.8525 42.1279 79.8525 38.1845" stroke="#00BCFF" stroke-width="2" stroke-linecap="round"/>
<path d="M76.4027 33.7507L74.9241 13.05C74.9241 11.4071 76.8956 9.10573 78.8671 11.0767C80.8385 13.0477 79.3675 21.0568 78.3742 32.2708" stroke="#00BCFF" stroke-width="2" stroke-linecap="round"/>
<path d="M107.946 23.3987C108.932 20.7701 111.396 16.2028 113.368 18.9629C115.339 21.723 110.575 23.0701 107.946 23.3987Z" stroke="#00BCFF" stroke-linecap="round"/>
<path d="M111.889 29.3135C111.889 28.8206 106.468 29.1903 106.468 29.3135C106.468 29.4368 111.396 29.8064 111.396 29.8064C111.396 29.8064 111.889 29.8064 111.889 29.3135Z" stroke="#00BCFF" stroke-linecap="round"/>
<path d="M6.38759 26.2264C5.40185 23.5977 2.93749 19.0304 0.965998 21.7905C-1.00549 24.5506 3.75894 25.8978 6.38759 26.2264Z" stroke="#00BCFF" stroke-linecap="round"/>
<path d="M2.44462 32.1412C2.44462 31.6483 7.86621 32.0179 7.86621 32.1412C7.86621 32.2644 2.93749 32.634 2.93749 32.634C2.93749 32.634 2.44462 32.634 2.44462 32.1412Z" stroke="#00BCFF" stroke-linecap="round"/>
</svg>
