<svg width="60" height="75" viewBox="0 0 60 75" fill="none" xmlns="http://www.w3.org/2000/svg">
<path d="M10.6884 4.72364C11.9511 0.170239 23.5782 2.82639 29.2339 4.72364C32.6431 4.97663 33.3376 3.82771 33.2587 3.22163C33.3639 2.19395 34.2057 0.217652 36.7311 0.533861C39.2564 0.850069 39.309 2.77367 39.0196 3.69594C38.3252 5.52995 39.993 6.35736 40.9136 6.54182C59.2224 6.92127 60.4324 13.2876 58.7488 16.4233L48.8053 68.3605C48.2371 73.989 43.3075 74.4475 40.9136 73.9732C33.3113 72.5239 16.1811 69.3724 8.47878 68.3605C0.776495 67.3487 0.060982 63.2485 0.666011 61.3249L10.6884 4.72364Z" fill="white"/>
<path d="M29.2339 4.72364C23.5782 2.82639 11.9511 0.170239 10.6884 4.72364L0.666011 61.3249C0.0609821 63.2485 0.776495 67.3487 8.47878 68.3605C16.1811 69.3724 33.3113 72.5239 40.9136 73.9732C43.3075 74.4475 48.2371 73.989 48.8053 68.3605L58.7488 16.4233C60.4324 13.2876 59.2223 6.92127 40.9136 6.54182M29.2339 4.72364C32.6431 4.97663 33.3376 3.82771 33.2587 3.22163C33.3639 2.19395 34.2057 0.217652 36.7311 0.533861C39.2564 0.850069 39.309 2.77367 39.0196 3.69594C38.3252 5.52995 39.993 6.35736 40.9136 6.54182M29.2339 4.72364C27.1821 6.69991 28.7605 10.767 27.9713 10.4944C27.1821 10.2218 21.4685 10.0201 20.7109 12.5498C20.5531 13.1822 21.0108 14.5577 24.1044 15.0004C27.1979 15.4431 39.2301 17.451 44.8595 18.3996C45.8591 18.4787 47.7005 18.1941 47.0692 16.4233C46.4378 14.6526 43.3338 13.6301 41.8606 13.3403C41.545 13.1295 41.103 12.3442 41.8606 10.8897C42.8076 9.07147 42.8077 7.17424 40.9136 6.54182M30.5935 9.29664L34.9918 9.99111M37.5382 10.6856L38.0012 10.7494L39.3902 10.9946" stroke="black" stroke-linecap="round"/>
<path d="M28.2786 9.06535L13.239 6.98193L3.27759 61.866L46.1821 69.0214L55.5944 14.6877L41.4735 11.6117" stroke="black"/>
<path d="M19.1108 18.1261C19.024 17.747 18.7274 17.4186 18.3474 17.1787M18.3474 17.1787C17.3906 16.5749 15.9046 16.5324 15.9046 17.6554C15.9046 19.2245 16.3931 19.4912 15.9046 20.2443C15.2684 21.2642 14.6068 23.6493 17.0497 25.03C16.3626 23.8794 15.6145 21.4996 18.1184 21.1858C20.6223 20.872 19.3143 23.9317 18.3474 25.5007C19.0344 25.2131 20.4696 24.0886 20.7139 21.8919C21.0192 19.146 20.4849 19.8522 21.1719 18.9891C21.8589 18.1261 20.2558 15.6821 18.3474 17.1787Z" stroke="#1A91C0" stroke-width="0.5" stroke-linecap="round"/>
<path d="M17.1672 18.5562C17.532 19.143 18.5983 20.0527 19.9451 18.9963" stroke="#1A91C0" stroke-width="0.5" stroke-linecap="round"/>
<path d="M26.874 22.2192C27.5852 21.4869 29.6398 20.5244 32.1685 22.533C35.3294 25.0438 41.7303 24.4161 42.9156 23.9453C44.101 23.4746 45.0492 23.3961 45.9975 24.4946C46.7561 25.3733 49.3165 24.4946 50.5018 23.9453M23.634 27.4761C25.0301 26.7699 28.407 25.8598 30.7461 27.8684C33.0852 29.877 35.7245 29.8037 36.7518 29.516C38.2796 29.2284 42.2992 28.9982 46.1556 30.3791M13.5981 31.9483C13.9142 31.0853 14.9415 29.6887 16.522 31.0068C18.1024 32.3249 20.3414 32.1837 21.2634 31.9483C22.2116 31.6868 24.3769 31.2579 25.4516 31.6345M31.9314 33.5176C32.2739 33.1776 33.0536 32.6388 33.4329 33.2037C33.907 33.9099 34.5392 34.9298 36.7518 34.3806C38.9645 33.8314 39.2016 33.4391 40.3869 34.1452C41.5722 34.8514 45.2073 36.4206 47.4199 35.7929M14.7045 37.4406C14.7571 36.8652 15.0522 35.9655 15.8108 36.9698C16.7591 38.2252 17.7864 38.3821 18.1024 38.3037C18.4185 38.2252 20.3941 37.3621 20.7892 37.9114C21.1843 38.4606 23.634 39.3237 23.634 39.1667M30.43 41.2852C30.6671 40.9452 31.4941 39.8087 31.9314 40.2652C32.9085 41.2852 38.7302 40.0645 39.7547 40.4221C40.7792 40.7797 41.6355 41.9599 42.2044 41.8344C42.9156 41.6775 45.4444 41.1283 45.9975 41.8344C46.5507 42.5405 47.4199 42.7759 47.4199 42.9329M17.7073 43.9528C18.3659 43.7698 19.9358 43.6861 20.9473 44.8159C21.9588 45.9457 24.2662 45.8098 25.2935 45.6005C26.874 45.0775 30.2562 44.1882 31.1412 44.8159C32.0263 45.4436 33.4065 46.019 33.986 46.2282C34.6972 46.359 36.4199 46.5421 37.6211 46.2282C39.1225 45.8359 42.4415 45.4436 43.5478 45.9928C44.6541 46.5421 46.9458 46.699 47.4199 46.6205M11.8596 49.2882C12.2284 48.8436 13.3453 48.1427 14.8625 48.8959C16.3798 49.6491 17.1805 49.2097 17.3912 48.8959M11.1484 52.8189C11.7806 52.8451 13.3769 53.0229 14.7045 53.5251C16.032 54.0272 16.9961 52.8189 17.7073 52.8189C18.4185 52.8189 19.8093 53.7761 21.2634 53.5251M11.1484 56.585C13.203 56.5589 17.6599 56.5693 19.0507 56.8204M32.1685 60.9004C32.5109 60.9004 33.5119 61.0102 34.7763 61.4496C36.3567 61.9988 35.8036 60.7435 37.305 61.4496C38.8064 62.1558 41.8093 62.2342 42.4415 61.8419" stroke="black" stroke-width="0.5" stroke-linecap="round"/>
</svg>
