<svg width="53" height="50" viewBox="0 0 53 50" fill="none" xmlns="http://www.w3.org/2000/svg">
<path d="M14.0562 49.5C14.8256 47.0924 17.8687 42.009 23.8853 40.9367V11.1515C22.8676 10.4813 21.7259 10.1835 20.9068 7.57728C20.0132 7.62693 17.3028 8.26234 13.6094 10.4069C13.6839 10.7544 13.669 11.6876 13.0137 12.6408L19.6409 28.2036H20.1622C18.8963 34.2351 6.69923 40.2368 0.801758 28.2036H1.47193L7.95021 13.0876C7.2304 12.2933 6.22267 10.2133 7.95021 8.24745C8.81895 7.52764 10.9585 6.51991 12.5669 8.24745C14.354 7.15534 18.4942 5.00091 20.7579 5.12005C21.0805 3.63081 22.6194 0.622534 26.1937 0.503393C29.7679 0.384252 31.4061 3.43227 31.7784 4.97118C32.9698 5.04562 36.2909 5.80512 40.0438 8.24751C40.8629 7.50287 42.9628 6.50507 44.8094 8.47089C46.9804 10.7819 44.8044 12.8295 44.6616 12.9412L51.2133 28.2036H51.809C51.0147 30.4623 48.0411 35.0244 42.5011 35.2031C36.961 35.3819 33.491 30.6112 32.4486 28.2036H32.9698L39.6715 12.7153C39.324 12.1196 38.9269 11.3005 38.9269 10.4069C37.5121 9.5878 34.1016 7.87509 31.7784 7.57728C31.5054 8.57011 30.5125 10.6749 28.7254 11.1515V40.9367C31.1579 41.2098 36.5291 43.3046 38.5545 49.5H14.0562Z" fill="white"/>
<path d="M14.0562 49.5C14.8256 47.0924 17.8687 42.009 23.8853 40.9367V11.1515C22.8676 10.4813 21.7259 10.1835 20.9068 7.57728C20.0132 7.62693 17.3028 8.26234 13.6094 10.4069C13.6839 10.7544 13.669 11.6876 13.0137 12.6408L19.6409 28.2036H20.1622C18.8963 34.2351 6.69923 40.2368 0.801758 28.2036H1.47193L7.95021 13.0876C7.2304 12.2933 6.22267 10.2133 7.95021 8.24745C8.81895 7.52764 10.9585 6.51991 12.5669 8.24745C14.354 7.15534 18.4942 5.00091 20.7579 5.12005C21.0805 3.63081 22.6194 0.622534 26.1937 0.503393C29.7679 0.384252 31.4061 3.43227 31.7784 4.97118C32.9698 5.04562 36.2909 5.80512 40.0438 8.24751C40.8629 7.50287 42.9628 6.50507 44.8094 8.47089C47.1178 10.9282 44.5116 13.0876 44.6605 12.9387L51.2133 28.2036H51.809C51.0147 30.4623 48.0411 35.0244 42.5011 35.2031C36.961 35.3819 33.491 30.6112 32.4486 28.2036H32.9698L39.6715 12.7153C39.324 12.1196 38.9269 11.3005 38.9269 10.4069C37.5121 9.5878 34.1016 7.87509 31.7784 7.57728C31.5054 8.57011 30.5125 10.6749 28.7254 11.1515V40.9367C31.1579 41.2098 36.5291 43.3046 38.5545 49.5H14.0562Z" stroke="black"/>
<path d="M4.22705 28.1292L10.1841 14.0557H10.9287L16.9602 28.1292H4.22705Z" fill="white" stroke="black"/>
<path d="M35.7996 28.1292L41.7566 14.0557H42.5012L48.5327 28.1292H35.7996Z" fill="white" stroke="black"/>
<circle cx="26.3018" cy="6" r="2" fill="#00BCFF" stroke="black"/>
</svg>
