<svg width="306" height="391" viewBox="0 0 306 391" fill="none" xmlns="http://www.w3.org/2000/svg">
<path d="M286.26 388.228C271.136 368.488 265.187 337.498 261.92 324.132C364.148 208.923 246.105 144.935 204.095 140.308C162.084 135.682 46.1048 194.286 118.673 297.609C144.362 334.185 188.356 339.997 217.296 333.057C231.3 356.498 270.856 380.774 286.26 388.228Z" fill="white" stroke="black" stroke-width="6"/>
<path d="M2.29285 296.545C19.8176 275.775 31.7713 242.456 35.5575 228.393C-50.1193 108.965 71.2928 50.9996 123.793 51C176.293 51.0004 310.6 82.3544 218.108 209.733C185.996 253.957 109.659 249.488 76.1242 242.186C59.8975 266.851 20.1422 288.703 2.29285 296.545Z" fill="white" stroke="black" stroke-width="6"/>
<circle cx="81.8033" cy="181.338" r="12.5473" fill="#00BCFF" stroke="black" stroke-width="4"/>
<circle cx="122.37" cy="181.338" r="12.5473" fill="#00BCFF" stroke="black" stroke-width="4"/>
<circle cx="171.05" cy="178.092" r="15.7927" fill="#00BCFF" stroke="black" stroke-width="4"/>
<path d="M159.691 96.1492C151.903 112.376 154.283 132.118 156.446 139.961C161.639 158.785 170.239 156.998 178.352 149.696C186.465 142.394 179.163 116.433 203.503 96.1492C227.843 75.8658 241.312 29.2947 194.579 8.52458C147.846 -12.2456 122.1 21.5059 115.068 40.9779C109.876 81.2201 132.917 83.1684 141.031 74.2432C149.144 65.3179 150.28 48.9296 164.559 51.5258C182.409 54.7712 169.427 75.8658 159.691 96.1492Z" fill="#00BCFF" stroke="black" stroke-width="4"/>
<path d="M35.5574 196.754C16.8968 172.414 13.3269 127.141 41.2368 101.828" stroke="black" stroke-width="4" stroke-linecap="round"/>
<path d="M46.1047 96.1477C47.1865 93.9842 51.135 88.6835 58.2747 84.7891M196.201 212.168C208.101 204.055 231.413 180.364 229.466 150.507" stroke="black" stroke-width="4" stroke-linecap="round"/>
<path d="M113.445 257.57C118.043 274.337 130.483 305.439 166.993 314.397M172.673 316.019C179.163 318.453 177.541 318.453 188.088 319.265M255.429 174.847C264.083 180.797 282.041 198.7 284.637 222.716" stroke="black" stroke-width="4" stroke-linecap="round"/>
</svg>
