<svg width="172" height="12" viewBox="0 0 172 12" fill="none" xmlns="http://www.w3.org/2000/svg">
<path d="M0.101257 5.12147C6.26757 4.7042 5.16254 4.4218 13.0872 3.15735C18.8194 2.24273 18.7646 2.59256 22.9815 2.24273C30.565 1.61362 34.4944 1.32811 38.7092 1.60629C40.1658 1.70243 40.1423 2.44083 39.9336 3.07516C39.0498 5.76239 36.3573 6.79897 35.017 8.48702C34.7494 8.82403 35.2193 9.32788 36.6144 9.54284C43.8422 10.6565 49.5161 8.91483 54.458 8.56499C58.5311 8.27666 63.0204 8.07186 71.4396 7.02236C74.6609 6.62081 77.2202 6.52922 81.7596 5.96865C90.2861 4.9157 97.3082 4.84329 100.391 4.4218C105.98 3.65786 113.008 3.85701 119.78 3.15735C126.646 2.4478 132.827 2.59256 139.785 2.24273C149.324 2.17108 156.603 2.31017 160.164 2.52091C162.752 2.59256 166.925 2.59256 171.224 2.59256" stroke="#00BCFF" stroke-width="3"/>
</svg>
