<svg width="1920" height="534" viewBox="0 0 1920 534" fill="none" xmlns="http://www.w3.org/2000/svg">
<path d="M132.033 386.832C132.484 377.466 132.189 408.733 132.862 387.97C132.908 392.3 132.954 396.656 133 400.986C132.751 402.084 132.502 403.208 132.252 404.307C132.179 398.493 132.105 392.675 132.032 386.832C132.032 386.832 132.033 386.832 132.033 386.832ZM128.91 378.893C129.621 384.221 129.811 401.151 130.467 382.862C130.223 381.409 129.979 379.919 129.735 378.466C129.924 372.116 130.113 365.728 130.302 359.378C130.209 357.094 130.116 354.814 130.023 352.53C130.448 349.622 130.873 346.74 131.298 343.832C131.236 346.414 131.173 349.031 131.111 351.613C131.456 361.82 131.55 370.903 131.614 384.76C131.714 383.543 131.814 382.324 131.914 381.107C131.743 388.14 131.572 395.169 131.402 402.172C131.234 396.09 131.048 389.29 130.891 383.653C130.226 392.673 130.596 408.582 130.735 416.863C130.924 428.14 130.608 425.591 130.741 433.959C130.761 435.294 131.009 435.446 131.013 438.086C131.023 444.473 130.998 453.743 130.905 460C130.854 462.928 131.526 465.019 131.613 465.597C131.779 466.162 131.034 465.347 130.424 461.905C130.359 461.271 130.327 460.636 130.329 460C130.368 438.99 129.939 420.813 130.103 400.005C129.434 405.697 129.206 394.362 128.91 378.893ZM438.364 476.96C431.718 477.285 418.183 477.154 409.013 476.929C409.002 476.929 408.992 476.929 408.981 476.929C406.963 476.879 402.393 476.447 408.981 476.465C419.721 476.495 424.915 477.175 430.552 476.713C433.074 476.799 435.724 476.875 438.364 476.96ZM461.707 476.92C468.295 477.087 465.306 477.599 457.057 477.46C457.057 477.461 457.057 477.461 457.057 477.461C453.614 477.403 460.373 476.999 448.027 477.41C445.505 477.09 443.023 476.799 440.531 476.49C443.554 476.485 446.311 476.476 449.482 476.472C447.348 476.998 455.12 476.755 461.707 476.92ZM134.309 470.72C135.411 471.099 132.141 468.384 131.548 462.155C132.225 467.91 136.226 473.141 141.576 475.353C138.865 474.49 136.338 472.903 134.309 470.72ZM130.686 309.467C130.686 309.457 130.686 309.446 130.686 309.436C130.611 307.151 130.536 304.859 130.463 302.604C130.632 301.239 130.8 299.889 130.968 298.524C130.81 290.452 130.652 282.336 130.492 274.264C131.007 275.245 130.924 289.735 131.284 297.717C131.129 309.587 130.829 315.306 130.393 316.078C130.49 313.883 130.588 311.692 130.686 309.467ZM1791.37 356.081C1791.23 353.381 1791.08 350.715 1790.94 348.015C1790.88 351.605 1790.83 355.166 1790.75 358.785C1791.37 368.251 1790.82 369.14 1790.86 381.542C1790.98 419.557 1791.94 409.471 1790.53 443.803C1790.6 416.239 1789.93 426.832 1789.42 410.213C1789.81 406.771 1790.69 423.238 1790.87 412.079C1790.46 392.852 1790.08 374.362 1789.81 353.028C1789.74 353.651 1789.67 354.271 1789.61 354.894C1789.65 358.278 1789.69 361.633 1789.73 365.016C1789.55 361.365 1789.38 357.798 1789.19 354.088C1789.6 358.776 1789.37 346.827 1789.84 348.426C1790.05 349.139 1790.34 354.419 1790.54 357.535C1790.65 349.495 1790.75 341.248 1790.86 333.118C1791.02 337.33 1791.19 341.539 1791.36 345.722C1791.36 349.162 1791.37 352.577 1791.37 356.017C1791.37 356.038 1791.37 356.059 1791.37 356.081ZM354.828 56.8047C365.037 56.3183 383.588 56.2378 393.352 56.779C380.502 56.7873 367.678 56.7964 354.828 56.8047ZM130.033 316.853C130.115 315.697 130.197 314.577 130.28 313.421C130.433 318.524 130.585 323.658 130.738 328.761C130.499 329.74 130.26 330.741 130.022 331.75C130.025 326.795 130.03 321.807 130.033 316.853ZM299.941 477.701C296.207 477.716 295.877 477.708 291.227 477.674C291.232 477.674 291.237 477.674 291.243 477.674C289.399 477.662 273.978 477.522 275.697 477.338C283.354 477.335 291.52 477.338 299.355 477.338C299.592 477.459 299.645 477.579 299.941 477.701ZM209.814 477.594C209.803 477.593 209.793 477.593 209.782 477.593C206.996 477.565 204.356 477.508 201.48 477.497C211.834 477.208 213.47 477.727 222.877 477.58C232.283 477.432 238.095 477.146 246.077 477.858C243.109 477.964 239.913 478.117 236.857 478.241C223.504 477.956 219.908 478.224 209.197 478.504C209.405 478.2 209.606 477.898 209.814 477.594ZM1738.09 477.929C1735.54 478.281 1732.69 477.936 1732.4 477.931C1732.4 477.931 1732.41 477.931 1732.41 477.93C1709.81 478.256 1735.35 477.735 1714.02 477.681C1717.2 477.593 1720.32 477.5 1723.46 477.411C1728.33 477.58 1733.34 477.773 1738.09 477.929ZM1003.62 477.896C1003.41 477.794 1003.16 477.691 1002.96 477.588C1015.78 477.612 1019.05 477.209 1029.7 477.576C1021 477.684 1012.31 477.791 1003.62 477.897C1003.62 477.897 1003.62 477.896 1003.62 477.896ZM364.558 478.446C350.343 478.642 339.828 478.728 326.177 478.418C326.166 478.417 326.156 478.417 326.145 478.417C325.358 478.397 329.165 478.183 328.138 478.129C325.321 478.161 322.413 478.21 319.566 478.249C319.181 478.077 318.813 477.905 318.428 477.735C326.439 477.783 334.456 477.832 342.497 477.881C341.31 477.78 340.094 477.681 338.907 477.58C345.732 477.529 352.531 477.477 359.355 477.425C356.982 477.707 354.614 477.988 352.271 478.271C356.364 478.33 360.465 478.386 364.558 478.446ZM1217.05 479.017C1214.8 478.905 1218.97 478.718 1215.47 478.622C1211.97 478.527 1205.51 478.735 1207.03 478.42C1211.74 478.377 1216.69 478.329 1221.5 478.284C1206.03 477.715 1190.61 478.23 1190.37 477.527C1205.21 477.709 1217.41 477.625 1231.78 477.43C1231.18 477.988 1216.81 478.47 1225.86 478.994C1222.95 479.001 1219.9 479.012 1217.08 479.016C1217.07 479.016 1217.06 479.017 1217.05 479.017ZM123.038 109.177C123.075 101.555 122.909 85.3941 123.076 74C123.101 71.8399 123.416 69.8227 123.894 68.0617C124.297 66.4137 125.812 62.9994 127.854 60.5584C129.845 58.0682 132.093 56.5312 132.106 56.5979C131.896 56.9926 123.979 66.805 133.105 56.8113C129.672 59.796 127.234 63.712 126.065 68.0768C126.574 67.3752 127.116 66.7223 127.672 66.1394C129.522 61.1956 133.247 56.9735 137.948 54.5047C138.226 54.4763 138.504 54.4536 138.779 54.4369C130.483 59.0268 130.505 62.0088 129.999 62.4652C129.788 63.2378 129.734 62.9136 128.218 67.3759C131.068 59.117 139.54 53.3731 148 53.7012C143.111 53.556 137.535 55.9024 134.398 58.843C134.368 59.2374 136.164 57.6298 138.537 56.4254C140.882 55.1609 143.77 54.4867 144.621 54.4176C147.85 54.3502 144.402 54.0092 139.183 56.5717C133.913 58.9767 128.299 66.5341 128.676 74C128.768 81.7528 128.908 88.3674 129.167 89.7415C129.222 84.604 129.277 79.3017 129.331 74C129.357 71.3414 129.958 68.7053 131.068 66.3356C130.263 68.332 129.817 70.481 129.754 72.6003C129.704 73.0649 129.672 73.5272 129.658 74C129.164 91.9196 128.979 111.903 128.66 132.646C128.682 134.573 128.704 136.505 128.725 138.403C128.962 137.839 129.198 137.306 129.435 136.742C129.462 139.65 129.49 142.595 129.518 145.503C128.738 136.928 128.748 148.803 128.272 163.136C127.998 155.511 128.164 146.104 127.654 146.753C128.047 172.925 127.491 203.575 127.935 229.035C128.045 235.355 128.704 235.335 128.643 250.195C128.57 249.69 128.44 249.604 128.344 249.278C128.66 274.978 128.849 290.571 128.527 317.28C128.764 315.737 129.002 314.22 129.239 312.678C129.121 307.009 129.001 301.332 128.883 295.693C129.274 291.836 129.447 297.536 129.442 280.622C129.439 266.763 129.267 275.013 129.151 271.244C128.992 266.141 129.304 261.662 129.127 256.173C128.991 251.929 128.669 256.52 128.75 245.451C129.168 249.902 129.6 254.443 130.023 258.924C129.929 261.625 129.834 264.305 129.738 267.006C129.627 264.275 129.516 261.591 129.405 258.861C129.605 268.476 129.795 277.56 130.003 287.501C129.398 284.266 129.625 294.542 129.696 300.121C129.808 308.812 129.392 301.366 129.461 307.064C129.532 312.761 129.996 318.906 129.897 329.204C129.628 323.685 129.387 331.193 129.138 329.742C128.89 328.288 128.835 317.395 128.564 327.86C128.77 347.98 129.716 326.147 129.869 339.736C130.053 356.057 128.512 359.941 128.18 355.076C127.919 351.248 127.972 338.075 127.712 334.217C127.243 357.809 128.169 358.014 128.35 362.05C129.009 376.71 127.25 366.863 127.886 384.222C127.557 383.896 127.261 383.631 126.946 383.305C127.006 386.3 127.085 388.289 127.133 391.908C127.774 381.236 127.747 389.971 127.748 394.454C127.75 401.517 128.062 390.608 128.143 392.477C128.359 397.523 128.261 405.501 128.543 400.606C128.412 402.802 128.28 405.182 128.15 407.438C128.314 415.69 129.687 435.083 129.409 416.626C129.92 418.347 129.674 424.318 129.597 428.977C129.519 433.635 129.844 433.549 129.784 437.643C129.544 453.934 128.988 443.277 128.553 440.696C128.799 458.376 128.977 447.302 129.144 460C129.206 462.557 129.629 466.409 132.604 470.702C134.142 472.86 128.247 461.419 133.687 470.6C134.191 471.741 137.282 478.22 148 478.92C150.81 478.981 153.95 479.032 157.437 479.074C159.099 478.932 160.756 478.789 162.418 478.647C171.766 479.216 166.988 479.808 184.29 479.103C175.001 480.401 181.387 479.57 196.878 480.099C200.024 480.206 192.754 480.475 197.147 480.612C199.138 480.674 203.971 480.47 208.834 480.627C211.207 480.705 222.307 481.206 229.993 480.968C224.355 480.338 238.958 479.803 226.435 479.283C249.583 479.411 265.783 479.109 239.846 479.967C245.722 480.157 251.603 480.347 257.479 480.536C261.574 480.386 265.705 480.237 269.83 480.088C270.452 480.605 269.827 480.75 285.961 480.66C278.96 480.782 271.989 480.906 264.959 481.029C264.722 481.133 263.744 481.242 263.979 481.343C272.589 481.144 296.833 481.059 302.708 480.921C308.584 480.784 297.237 480.746 298.928 480.613C313.022 479.512 311.904 480.324 322.018 480.135C327.953 480.023 313.781 479.901 316.957 479.854C328.731 479.679 334.192 480.264 344.632 480.272C340.924 479.94 337.245 479.603 333.625 479.267C344.576 479.285 356.783 479.288 366.962 479.181C370.958 479.14 367.938 478.893 368.591 478.876C371.829 478.791 385.003 478.657 386.398 478.656C396.897 478.654 397.198 478.996 407.4 479.015C403.395 479.044 399.629 479.07 395.713 479.098C393.932 479.652 392.117 480.207 390.336 480.763C400.335 480.803 410.339 480.843 420.368 480.883C413.039 480.698 405.683 480.513 398.354 480.328C409.809 479.88 421.264 479.431 432.719 478.982C438.683 479.257 444.624 479.532 450.589 479.808C466.788 479.735 463.526 478.617 471.211 479.596C475.987 479.514 480.763 479.431 485.539 479.349C484.857 479.489 484.181 479.629 483.499 479.768C489.256 479.683 495.011 479.597 500.768 479.51C494.715 479.016 488.781 478.495 482.787 478.015C494.116 477.908 494.334 478.327 496.024 478.432C500.505 478.709 509.4 478.335 512.961 478.592C514.165 478.68 503.062 478.956 506.888 479.275C507.636 479.336 522.501 480.508 531.986 480.237C531.808 480.025 531.075 479.765 530.689 479.534C543.445 479.405 549.95 480.513 548.259 480.823C555.055 480.606 564.988 480.588 566.382 480.248C569.855 480.24 573.3 480.232 576.772 480.224C573.155 481.05 587.636 480.899 588.586 480.188C582.621 480.171 576.649 480.152 570.684 480.135C575.195 479.263 557.068 478.737 594.785 479.544C601.996 479.998 581.967 479.483 587.842 479.822C598.05 480.02 607.633 479.854 617.337 480.17C629.411 480.564 614.555 480.944 642.687 480.442C580.634 479.184 651.198 479.592 680.341 479.202C688.354 480.444 712.966 480.837 746.857 480.468C743.325 480.122 732.663 480.3 726.519 480.187C720.377 480.073 727.023 479.868 719.371 479.706C711.717 479.545 695.459 479.325 687.711 479.081C694.274 478.886 726.668 478.423 705.249 478.979C721.239 479.321 728.747 479.673 748.565 479.737C754.5 479.198 754.061 478.862 773.378 478.847C761.953 479.596 783.904 480.117 779.071 480.891C765.372 480.711 773.029 479.958 765.107 479.598C764.294 479.562 751.531 479.751 748.565 479.737C761.444 480.413 765.898 480.665 757.974 481.469C767.085 481.398 772.752 481.499 773.583 481.115C775.482 481.282 777.392 481.449 779.261 481.615C782.226 481.611 784.895 481.596 788.038 481.599C783.709 481.02 792.1 481.376 798.064 481.114C804.029 480.851 796.026 480.394 812.408 480.387C806.947 480.252 801.955 480.135 796.672 480.007C807.236 479.858 817.833 479.708 828.396 479.559C820.977 479.205 804.899 478.68 805.339 478.214C810.204 478.39 826.872 478.081 828.696 478.068C835.76 478.02 831.91 478.314 832.445 478.321C843.541 478.464 852.681 478.364 856.894 478.809C865.232 478.608 871.52 478.723 880.362 478.711C885.229 478.705 884.283 478.378 887.131 478.44C906.064 478.854 888.026 479.277 924.548 478.473C920.127 478.245 915.764 478.012 911.343 477.782C915.468 477.697 919.569 477.61 923.694 477.524C926.454 477.566 929.189 477.607 931.949 477.649C931.89 478.142 931.818 478.637 931.759 479.131C934.786 479.158 937.826 479.184 940.853 479.211C935.659 479.259 930.453 479.308 925.259 479.356C924.785 479.443 924.342 479.53 923.868 479.617C931.584 479.752 939.273 479.887 946.989 480.023C947.137 479.851 947.283 479.678 947.431 479.507C964.822 479.746 965.236 479.891 981.765 479.418C994.496 479.423 1004.86 478.705 1012.22 478.403C1014.86 478.499 1017.51 478.597 1020.18 478.693C1021.87 478.55 1023.58 478.408 1025.27 478.265C1028.62 478.464 1032.02 478.663 1035.38 478.86C1037.24 478.409 1038.21 478.269 1025.13 478.11C1029.61 477.549 1052.65 477.797 1062.02 477.985C1069.14 478.128 1061.24 478.596 1062.13 478.653C1065.1 478.846 1076.83 478.679 1079.29 478.711C1089.71 478.845 1097.01 478.821 1106.41 478.925C1108.25 478.946 1113.36 479.242 1113.8 479.251C1117.18 479.302 1125.53 479.446 1126.48 479.45C1175.47 479.672 1123.13 478.385 1168.68 478.521C1167.31 478.351 1166.06 478.183 1164.72 478.013C1168.16 478.003 1171.64 477.993 1175.08 477.983C1179.44 478.124 1174.17 478.382 1182.83 478.174C1182.27 478.383 1181.7 478.592 1181.11 478.8C1184.87 478.688 1188.51 478.576 1192.37 478.463C1198.42 479.188 1220.52 479.353 1218.95 480.205C1218.42 480.495 1202.75 480.792 1211.03 481.101C1217.75 481.162 1213.2 480.816 1215.94 480.798C1235.77 480.672 1234.62 481.157 1242.72 481.028C1243.99 480.82 1245.34 480.608 1246.64 480.398C1249.7 480.459 1252.76 480.52 1255.84 480.581C1256.56 480.441 1257.3 480.301 1258.01 480.161C1255.13 480.152 1251.89 480.143 1249.25 480.133C1252.93 479.592 1286.75 479.349 1273.86 479.811C1268.61 479.998 1258.99 479.918 1265.06 480.558C1274.12 480.465 1284.38 480.371 1293.91 480.279C1294.21 480.417 1294.48 480.555 1294.78 480.692C1307.62 480.603 1295.94 480.053 1295.97 479.758C1298.9 479.75 1301.87 479.743 1304.81 479.734C1306.05 479.868 1307.23 480.007 1308.54 480.136C1308.66 479.924 1310.3 479.431 1319.06 479.614C1324.68 479.733 1315.82 480.269 1326.55 480.194C1325.75 479.863 1321.87 479.46 1333.83 479.353C1335.01 479.699 1336.65 480.016 1337.57 480.379C1352.44 480.047 1359.2 480.58 1376.65 480.194C1387.72 479.95 1402.88 479.083 1410.04 480.419C1418.13 480.454 1415.56 480.122 1417.96 480.047C1429.27 479.693 1437.68 480.326 1439.78 480.364C1453.22 480.602 1459.25 480.383 1470.19 480.682C1469.6 480.435 1469.28 480.201 1468.8 479.959C1458.77 480.33 1453.69 480.313 1439.62 480.233C1444.34 480.183 1449.06 480.132 1453.78 480.083C1453.01 479.882 1452.24 479.681 1451.5 479.482C1407.99 480.272 1418.14 479.023 1454.62 478.75C1457.76 479.121 1461.02 479.492 1464.14 479.864C1485.21 479.301 1495.12 479.79 1518.95 479.907C1521.78 479.92 1532.1 479.706 1536.54 479.696C1536.46 479.694 1536.39 479.693 1536.31 479.692C1539.07 479.341 1535.34 479.179 1534.89 478.866C1537.29 478.826 1539.7 478.787 1542.1 478.748C1547.47 478.987 1545.58 479.183 1556.15 479.126C1554.72 478.888 1553.32 478.65 1551.89 478.412C1563.47 478.404 1571.04 478.663 1581.81 478.551C1580 478.641 1578.21 478.731 1576.4 478.821C1599.85 479.051 1581.19 480.45 1598.91 479.754C1600.03 479.876 1601.13 479.999 1602.26 480.121C1594.96 480.151 1587.66 480.18 1580.39 480.21C1580.24 480.383 1580.08 480.555 1579.96 480.728C1587.77 480.676 1595.61 480.623 1603.41 480.571C1597.72 480.687 1591.99 480.803 1586.29 480.919C1595.34 481.002 1604.39 481.085 1613.44 481.167C1603.83 480.532 1616.29 480.454 1613.95 479.825C1629.97 480.349 1642.56 481.039 1667.4 480.597C1672.32 480.509 1669.65 480.07 1683.63 480.605C1680.24 479.905 1697.75 479.577 1695.5 478.912C1690.64 478.944 1685.59 478.964 1680.87 479.003C1686.24 479.234 1687.14 479.869 1678.98 480.057C1668.56 480.297 1653.37 479.857 1653.99 480.562C1649.84 480.529 1645.97 480.509 1641.94 480.481C1643.6 480.307 1645.23 480.131 1646.86 479.956C1635.38 480.23 1628.16 480.141 1622.64 479.7C1636.32 479.599 1649.97 479.498 1663.65 479.398C1661.64 479.368 1659.59 479.338 1657.58 479.309C1667.94 478.859 1657.25 478.432 1676.57 478.336C1676.45 478.542 1676.36 478.748 1676.24 478.955C1683.27 478.404 1702.53 478.407 1696.39 477.774C1702.2 477.968 1703.39 478.092 1706.68 477.75C1722.03 478.231 1731.88 478.84 1726.42 479.566C1732.12 479.45 1737.82 479.332 1743.48 479.215C1740.19 479.017 1736.89 478.819 1733.6 478.62C1743.51 478.633 1753.5 478.645 1763.38 478.656C1764.33 479.244 1744.3 478.835 1750.08 479.36C1751.23 479.466 1756.57 479.24 1757.97 479.299C1772.75 479.942 1749.55 479.477 1753.9 479.97C1769.38 480.077 1765.28 480.516 1772 480.527C1774.71 480.395 1780.62 480.453 1786.97 473.644C1787.64 473.16 1788.33 472.579 1788.91 472.049C1792.94 465.756 1792.36 463.304 1792.46 460C1792.4 458.435 1792.34 456.552 1792.32 453.656C1792.27 447.988 1792.95 440.875 1792.49 434.615C1792.4 433.499 1791.58 444.029 1791.62 421.9C1791.65 404.726 1792.23 411.874 1792.43 402.591C1792.64 393.302 1791.83 372.052 1792.75 365.791C1792.63 370.656 1792.56 376.854 1792.46 382.253C1792.64 384.449 1792.82 386.587 1792.99 388.753C1792.76 376.408 1793.03 363.647 1792.61 355.337C1793.26 338.867 1792.66 320.446 1791.92 325.432C1792.03 330.853 1792.35 324.956 1792.15 332.485C1791.97 333.257 1791.8 334.07 1791.63 334.842C1791.65 322.021 1791.65 313.118 1792.17 318.964C1792.18 316.976 1792.19 315.006 1792.21 313.018C1791.83 312.662 1791.45 312.346 1791.08 311.99C1791.03 309.616 1790.99 307.232 1790.95 304.858C1791.03 302.218 1791.12 299.572 1791.2 296.903C1791.8 300.494 1791.81 306.61 1792.15 286.37C1791.94 286.311 1791.74 286.224 1791.53 286.165C1791.79 269.22 1792.29 268.773 1792.27 247.499C1792.99 263.82 1791.72 272.75 1793.16 272.691C1793.06 276.786 1792.97 280.915 1792.87 285.01C1793.08 285.634 1793.29 286.251 1793.5 286.845C1793.39 264.856 1792.02 228.33 1792.92 213.608C1792.81 211.828 1792.72 210.041 1792.6 208.231C1793.15 193.808 1791.92 187.58 1792.63 172.949C1792.7 171.44 1793.85 174.598 1793.81 155.553C1793.66 156.028 1793.41 156.275 1793.22 156.66C1793.31 152.537 1793.41 148.435 1793.5 144.341C1793.36 143.599 1793.23 142.821 1793.09 142.079C1793.03 149.113 1792.98 156.127 1792.92 163.16C1792.88 157.316 1792.83 151.434 1792.78 145.59C1792.56 153.215 1792.55 156.654 1792.19 152.058C1792.17 145.44 1792.14 138.813 1792.12 132.195C1792.03 131.514 1791.94 130.837 1791.84 130.155C1791.57 133.36 1791.29 136.597 1791.01 139.802C1791.24 122.561 1791.25 107.571 1791.8 94.3356C1791.89 92.0803 1792.25 100.056 1791.92 84.6888C1792.12 84.4514 1792.27 84.0386 1792.45 83.7716C1792.34 80.0973 1792.27 76.9048 1792.21 74C1791.44 63.2665 1785.69 54.8295 1772 53.6084C1770.9 53.5868 1769.76 53.5641 1768.58 53.5407C1770.01 53.5814 1771.13 53.6145 1772 53.6415C1776.03 53.9824 1774.52 53.8425 1772 53.7697C1770.21 53.7759 1767.91 53.7889 1766.71 53.8605C1764.84 53.9731 1770.71 53.9765 1772 54.0589C1772.24 54.0746 1772.32 54.0945 1772.17 54.1144C1772.13 54.1197 1772.07 54.1256 1772 54.1325C1770.32 54.2967 1760.33 54.8151 1769.56 54.8797C1770.39 54.839 1771.21 54.8015 1772 54.767C1784.86 54.8056 1791.36 64.0937 1791.41 74C1791.31 80.8569 1791.24 88.9082 1791.45 100.393C1791.3 95.7332 1791.15 91.0403 1791 86.381C1790.9 88.5752 1790.81 90.5398 1790.71 92.9123C1790.93 76.0294 1790.78 84.2406 1790.61 77.3035C1790.58 76.3091 1790.56 75.1983 1790.53 74C1790.89 67.162 1784.56 58.5049 1777.99 56.7766C1776.84 56.3996 1776.88 56.3793 1776.56 56.2212C1776.23 56.1054 1775.55 55.6984 1772.77 55.5186C1772.54 55.5081 1772.28 55.5023 1772 55.504C1767.39 55.53 1757.39 55.8403 1754.96 55.418C1753.27 55.1252 1771.25 54.3187 1746.39 54.3207C1741.71 54.0336 1753.63 54.1227 1753.88 54.0881C1756.05 53.7466 1740.77 53.4898 1733.71 53.7506C1733.13 53.7731 1738.71 54.0393 1732.65 54.1437C1718.25 54.3931 1709.94 54.0879 1700.62 53.6749C1699.61 54.1593 1687.5 54.7377 1672.42 54.5587C1671.65 54.6973 1670.92 54.8371 1670.15 54.9768C1672.49 54.9034 1674.83 54.831 1677.17 54.7577C1679.72 54.8446 1682.42 54.9079 1684.92 55.0103C1669.76 55.1294 1667.61 55.7969 1660.34 56.0412C1635.46 56.8754 1650.54 55.1107 1655.03 54.8065C1658.26 54.9296 1661.39 55.0671 1664.6 55.1965C1664.24 55.0278 1663.88 54.8578 1663.55 54.6881C1626.31 54.6932 1657.88 53.593 1638.98 53.2795C1634.11 54.1094 1620.23 54.1894 1602.54 53.6627C1600.58 53.6669 1598.62 53.6679 1596.66 53.6731C1596.33 53.7941 1596.34 53.9791 1595.8 54.0588C1574.5 54.1996 1570.7 52.9214 1568.68 52.8004C1559.72 52.2633 1552.74 53.0064 1550.1 53.0127C1538.97 53.0386 1535.74 52.7087 1525.14 52.8504C1513.75 53.0035 1521.54 53.2567 1518.08 53.4833C1515.3 53.6633 1506.31 53.6953 1502.59 53.8818C1504.07 53.7293 1505.71 53.5797 1507.18 53.4265C1495.37 53.2186 1485.72 53.0158 1472.31 52.9651C1457.17 54.0814 1444.3 52.1984 1449.52 53.7256C1462.22 53.8301 1469.32 54.0042 1476.12 54.3933C1467.78 54.443 1459.44 54.4913 1451.1 54.541C1448.67 54.3734 1446.94 54.21 1444.06 54.0393C1437.83 54.3953 1423.39 54.2425 1417.72 54.3469C1391.16 54.8364 1399.37 55.4436 1375.13 54.4232C1392.6 54.3238 1392.58 53.8282 1409.9 53.8965C1406.17 53.5426 1397.36 53.6159 1403.06 53.1916C1386.29 53.2961 1391.71 53.6749 1385.19 54.0112C1379.56 54.3012 1368.23 54.3174 1368.87 54.6942C1367.71 54.487 1366.81 54.2865 1365.66 54.0796C1354.8 54.0817 1343.94 54.0818 1333.08 54.0839C1337.71 53.8676 1342.33 53.6509 1346.96 53.4357C1343.46 53.354 1339.96 53.2726 1336.46 53.191C1309.75 53.8637 1263.7 52.6308 1271.05 54.3207C1258.18 54.3745 1256.56 54.1625 1249.56 53.8428C1248.79 53.9711 1248.04 54.0778 1247.27 54.2206C1238.96 54.0863 1232.58 54.5679 1225.26 54.4427C1217.93 54.3185 1216.11 53.8635 1215.04 54.6283C1210.29 54.4089 1205.57 54.2267 1200.85 54.0228C1198.01 54.1966 1195.16 54.3683 1192.35 54.541C1187.89 54.4499 1183.43 54.3592 1178.98 54.2682C1176.6 54.6332 1159.1 54.4759 1151.39 54.721C1144.06 54.3275 1144.26 53.0886 1127.03 53.3106C1127.48 53.6179 1127.91 53.9243 1128.36 54.2316C1124.41 54.1674 1120.46 54.1035 1116.48 54.0393C1116.25 53.939 1116.04 53.8387 1115.8 53.7384C1117.82 53.7695 1119.81 53.8003 1121.83 53.8324C1120.08 53.6627 1118.36 53.4937 1116.64 53.324C1110.62 53.5755 1104.59 53.8269 1098.53 54.0784C1106.69 54.2687 1114.86 54.4593 1123.01 54.6496C1112.78 54.8752 1105.65 54.6502 1096.75 54.9017C1089 54.4774 1091.86 54.233 1095.01 53.7726C1092.13 53.8119 1089.22 53.8499 1086.34 53.8892C1088.24 53.4287 1083.37 53.1544 1100.19 53.1916C1099.04 53.0602 1097.86 52.935 1096.73 52.7985C1093.97 52.8192 1092.18 52.7082 1089.16 52.7589C1080.91 52.8975 1074.58 53.7063 1075.14 53.9899C1075.45 54.1384 1083.58 53.8543 1083.26 54.0643C1082.45 54.5764 1063.79 54.3465 1090.71 54.8608C1081.77 55.1868 1079.78 54.9409 1069.93 54.8468C1070.7 55.0174 1071.45 55.187 1072.19 55.3576C1067.62 55.279 1063.04 55.2006 1058.48 55.122C1064.83 54.2455 1031.14 53.9163 1061.46 53.1495C1052.5 53.1101 1043.57 53.0706 1034.64 53.0292C1036.48 52.9392 1038.32 52.8501 1040.16 52.7601C1044.2 52.8077 1048.21 52.8545 1052.25 52.9011C1047.5 52.7366 1042.74 52.573 1038 52.4085C1026.78 52.6124 1022.38 52.926 1017.25 53.313C1030.3 53.5955 1026.04 53.2097 1036.21 53.133C1035.85 53.3781 1036.32 53.6036 1035.43 53.8611C1030.18 53.3534 1013.03 53.7227 1009.06 53.7476C996.955 53.823 1006.44 53.3241 998.35 53.3136C990.248 53.3033 980.692 53.6002 974.074 53.1055C974.193 53.3828 974.722 53.6697 975.197 53.9221C962.584 54.0132 965.101 53.6856 963.795 53.6432C942.962 52.9457 931.658 53.5346 907.828 53.606C910.854 53.6919 913.912 53.7694 916.968 53.8501C898.99 54.4388 911.101 54.2586 926.71 54.4531C912.079 54.3941 903.701 54.8955 893.373 55.0445C883.047 55.1933 865.338 54.9358 858.866 54.7351C873.675 54.4122 889.647 54.6251 906.088 54.5361C904.219 54.2537 902.402 54.0146 900.474 53.7042C890.474 54.2971 884.68 53.9007 881.386 53.822C871.714 53.5914 872.017 54.1002 866.172 53.5529C866.41 53.7412 866.583 53.8995 866.821 54.0753C846.849 53.9967 825.307 53.6638 812.308 54.3591C811.121 53.9069 810.226 53.4712 808.861 53.0097C800.404 53.3501 793.162 53.0015 786.041 53.0811C778.948 53.1608 781.648 53.5263 773.31 53.667C771.767 53.6929 768.553 53.4641 764.754 53.6328C760.919 53.8024 746.773 55.0633 745.081 53.9618C737.93 53.9566 731.162 53.9163 724.159 53.8977C730.984 53.8356 737.811 53.7755 744.607 53.7134C738.791 53.4464 733.011 53.1802 727.195 52.9133C726.453 53.1513 725.709 53.3936 724.997 53.6286C709.328 53.9183 697.957 53.5292 682.14 53.6212C679.499 53.6368 685.729 54.1074 674.011 53.9874C662.29 53.8674 653.591 52.989 633.621 53.3283C632.612 53.3459 626.698 54.0186 619.546 53.5529C617.919 53.4473 624.769 53.2911 621.033 53.1525C617.293 53.0138 600.609 52.8998 599.304 52.5697C599.482 52.6866 600.523 52.8077 601.027 52.9267C598.179 52.9826 595.302 53.0385 592.424 53.0933C592.157 52.8874 591.869 52.6812 591.602 52.4763C575.221 52.9554 566.755 53.737 542.482 53.4784C549.307 53.7775 556.135 54.0778 562.93 54.3768C564.8 54.1667 566.673 53.9552 568.513 53.7451C579.699 53.8289 590.917 53.9122 602.103 53.996C603.943 53.7569 605.75 53.5185 607.59 53.2795C610.557 53.3105 613.495 53.3406 616.462 53.3716C615.72 53.5444 614.972 53.7163 614.201 53.8892C620.075 53.8467 625.957 53.8034 631.802 53.761C619.903 54.7811 598.571 53.6742 600.11 54.5276C597.47 54.3952 594.827 54.2618 592.187 54.1284C591.029 54.5422 585.661 54.4231 576.199 54.3579C578.365 54.5618 580.758 54.7629 582.746 54.9688C573.546 54.6812 557.227 54.7091 547.701 54.5984C543.517 54.5497 547.696 54.2497 546.452 54.2145C540.071 54.0303 527.876 54.5537 525.324 54.5123C510.07 54.266 500.158 53.2736 483.51 53.9276C500.693 54.0891 491.345 54.0209 497.459 54.3841C499.372 54.498 521.571 54.7356 493.774 54.6301C490.515 54.6169 440.078 53.9312 456.657 53.4058C448.496 53.5735 442.106 53.7673 434.628 53.9453C416.347 52.5606 422.674 53.8614 427.986 54.5776C424.988 54.5807 422.137 54.588 419.051 54.588C425.609 53.8356 392.195 53.7889 380.859 54.1687C377.06 54.295 387.681 54.5358 378.898 54.6496C374.715 54.5969 369.97 54.5285 365.55 54.4696C371.96 54.9456 359.38 55.1291 359.557 55.6133C351.515 55.1818 345.364 54.2671 349.783 53.7714C343.137 53.9721 336.456 54.1726 329.81 54.3744C332.896 54.4892 336.022 54.6031 339.109 54.718C317.385 54.4137 289.453 55.1061 284.912 54.0887C282.034 54.096 279.125 54.1023 276.246 54.1095C275.356 54.2813 274.495 54.4534 273.605 54.6252C260.58 54.4762 247.584 54.3262 234.559 54.1772C246.157 54.0706 248.918 53.8261 261.08 54.0247C256.393 53.8271 251.619 53.6284 247.021 53.4308C228.711 53.9628 226.213 54.3124 198.645 54.154C197.398 54.1468 176.568 53.7007 175.856 53.6572C172.593 53.4586 177.546 53.1699 176.093 53.0695C172.057 52.788 147.532 52.0812 148.007 51.9746C154.002 50.6664 236.517 50.6491 258.834 50.5818C490.312 49.8843 716.692 50.8175 946.715 50.6581C949.08 50.6557 948.048 50.4626 949.056 50.4543C955.317 50.4058 961.465 50.7067 963.779 50.7192C968.725 50.7448 966.001 50.4667 969.615 50.4665C1006.95 50.4696 1042.18 50.6331 1079.54 50.5855C1081.97 50.5824 1079.49 50.8049 1083.76 50.7655C1085.97 50.744 1092.88 50.4027 1097.85 50.3975C1115.24 50.3799 1129.85 50.4894 1148.19 50.4842C1158.22 50.4811 1173.27 50.5101 1184.49 50.5049C1189.44 50.5027 1194.6 50.3466 1199.49 50.3414C1206.44 50.3341 1205.02 50.6507 1206.09 50.6703C1210.78 50.7562 1211.43 50.4088 1215.88 50.4171C1224.16 50.4336 1224.6 50.6656 1235.11 50.6459C1242.62 50.6314 1259.8 50.4483 1269.27 50.3945C1291.41 50.6635 1319.3 50.5567 1339.96 50.4677C1352.18 50.4149 1353.32 50.7397 1358.3 50.7387C1375.87 50.7324 1389.2 50.3176 1405.7 50.3041C1427.59 50.2866 1447 50.5609 1468.21 50.5806C1471.65 50.5837 1470.86 50.2861 1474.24 50.2785C1486.73 50.2506 1502.71 50.1964 1513.84 50.2388C1526.24 50.2855 1530.81 50.7174 1542.95 50.6294C1546.51 50.6033 1547.55 50.2246 1553.52 50.176C1563.04 50.0995 1573.48 50.4335 1580.13 50.4708C1589.24 50.5204 1581.32 50.1346 1593.61 50.1864C1594.11 50.1886 1595.95 50.4644 1598.59 50.4512C1606.27 50.414 1605.51 50.1968 1616.76 50.2175C1617.84 50.2203 1632.75 50.4831 1634.23 50.4842C1642.96 50.4883 1660.52 50.5803 1665.69 50.5245C1684.15 50.3258 1669.61 49.9109 1685.31 50.8113C1692.23 50.5909 1699.08 50.3676 1706.41 50.1534C1701.52 50.3531 1721.37 50.6414 1722.76 50.6227C1734.3 50.4726 1727.43 50.1223 1742.06 50.1802C1722.74 50.9896 1760.93 50.2846 1769.45 50.2639C1770.3 50.2618 1771.15 50.2598 1772 50.258C1784.92 49.9673 1796.08 61.5658 1795.76 74C1795.74 102.375 1795.64 129.941 1795.64 159.539C1795.64 173.338 1795.81 191.83 1795.81 206.428C1795.81 209.831 1795.62 207.26 1795.61 210.256C1795.61 213.243 1795.83 209.929 1795.81 213.339C1795.74 234.557 1795.33 251.182 1795.84 270.619C1795.77 271.566 1795.71 271.535 1795.63 273.102C1796.08 289.009 1795.47 319.643 1795.39 331.157C1795.26 349.166 1795.57 353.767 1795.5 366.85C1795.42 384.151 1794.82 410.127 1795.81 398.526C1795.84 410.395 1795.85 421.821 1795.76 433.808C1795.75 435.143 1795.5 434.223 1795.49 434.757C1795.45 438.139 1795.68 439.241 1795.69 441.526C1795.72 447.721 1795.45 437.611 1795.52 446.444C1795.56 450.161 1795.69 452.597 1795.74 460C1795.75 462.218 1795.47 464.853 1794.45 467.8C1791.36 477.071 1781.96 483.902 1772 483.769C1701.04 483.772 1625.69 483.713 1554.12 483.683C1548.63 483.681 1552.24 483.924 1545.36 483.909C1521.44 483.855 1478.63 483.445 1458 483.501C1437.38 483.557 1442.03 483.913 1429.12 484.062C1426.63 484.091 1428.67 483.888 1426.42 483.885C1411.25 483.866 1393.18 483.55 1380.89 483.502C1372.76 483.47 1373.42 483.79 1367.78 483.812C1359.38 483.846 1350.74 483.523 1346.26 483.513C1325.19 483.467 1310.71 483.727 1291.03 483.595C1291.8 483.665 1292.31 483.73 1292.96 483.799C1269.67 483.788 1246.4 483.776 1223.11 483.765C1224.21 483.829 1225.27 483.894 1226.37 483.959C1199.04 483.924 1202.15 483.228 1204.56 484.697C1202.57 484.749 1200.46 484.808 1198.56 484.856C1199.34 484.1 1182.8 483.546 1161.76 483.353C1160.22 483.339 1149.87 484.077 1150.99 483.205C1148.29 483.418 1146.69 483.565 1144.4 483.753C1139.95 483.489 1135.44 483.228 1130.99 482.965C1128.59 483.005 1126.15 483.043 1123.75 483.082C1123.39 483.253 1123.66 483.43 1122.89 483.598C1111.74 483.623 1088.85 483.412 1080.04 483.434C1058.13 483.489 1035.84 483.951 1018.8 483.452C1010.5 483.503 1018.74 483.838 1006.4 483.795C1005.01 483.626 1003.7 483.463 1002.24 483.288C992.158 484.046 990.051 483.585 976.229 483.427C966.882 483.319 960.761 483.504 951.859 483.468C949.604 483.459 949.923 483.236 948.38 483.244C943.212 483.267 928.466 483.573 924.817 483.581C891.76 483.662 863.36 483.627 831.875 483.546C828.492 483.537 832.879 483.757 829.377 483.748C823.743 483.733 827.058 483.396 823.794 483.379C814.69 483.335 814.621 483.691 801.923 483.709C760.11 483.77 712.036 483.503 668.354 483.479C666.989 483.479 667.07 483.688 665.586 483.69C655.914 483.7 646.124 483.418 637.342 483.421C622.771 483.425 611.819 483.718 597.426 483.717C569.293 483.716 544.157 483.566 515.223 483.558C491.54 483.551 470.974 483.578 445.006 483.577C346.904 483.574 247.07 484.068 148 483.974C135.209 484.269 123.743 472.732 124.076 460C124.088 455.017 124.101 450.037 124.117 445.06C124.126 442.154 124.31 443.337 124.302 442.451C124.223 434.023 123.974 433.271 124.495 430.274C124.392 419.537 124.001 416.149 124.029 403.184C124.044 396.273 124.65 401.433 124.337 389.742C124.055 379.185 123.722 390.834 124.062 359.441C124.071 358.61 124.441 354.519 124.344 347.991C124.249 341.433 123.985 349.025 123.905 333.237C123.719 296.172 124.038 249.256 123.94 206.167C123.934 203.467 123.736 177.459 123.645 172.325C123.468 162.389 123.194 164.465 123.126 151.56C123.074 141.589 123.385 133.362 123.323 121.639C123.316 120.274 122.996 117.987 123.038 109.177ZM1790.75 313.049C1790.43 310.616 1789.28 306.224 1789.63 291.51C1789.66 290.115 1790.46 297.645 1790.59 289.517C1790.67 297.47 1790.7 305.215 1790.75 313.049C1790.75 313.049 1790.75 313.049 1790.75 313.049ZM145.527 56.5764C137.12 57.5475 130.131 65.4367 130.254 74C130.247 75.4892 130.239 76.9778 130.231 78.4658C130.204 76.9775 130.176 75.4887 130.149 74C129.996 68.5247 132.565 63.0339 136.914 59.579C139.516 57.8226 142.502 56.7991 145.527 56.5764ZM1072.56 478.144C1072.54 478.144 1072.53 478.144 1072.52 478.144C1084.1 477.995 1095.68 477.846 1107.25 477.697C1106.04 477.807 1104.82 477.917 1103.6 478.027C1094.46 478.199 1085.32 478.372 1076.21 478.545C1074.99 478.411 1073.77 478.278 1072.56 478.144ZM981.116 479.306C973.727 479.175 975.535 478.955 971.469 478.741C971.469 478.742 971.469 478.742 971.469 478.742C970.396 478.687 965.399 478.638 963.467 478.63C964.179 478.767 965.099 478.903 965.871 479.04C948.629 479.373 914.91 478.189 958.565 477.712C957.912 477.885 957.288 478.058 956.635 478.232C978.329 478.184 1002.51 478.561 981.116 479.306ZM1790.25 138.616C1789.68 120.098 1789.56 114.16 1789.95 91.6946C1790.11 94.8679 1790.27 98.0416 1790.43 101.215C1790.27 104.925 1790.11 108.607 1789.94 112.317C1789.94 112.327 1789.94 112.338 1789.94 112.348C1790.11 113.09 1790.29 113.834 1790.46 114.546C1790.39 122.558 1790.32 130.604 1790.25 138.616ZM272.25 478.894C267.088 477.758 268.577 478.418 283.32 478.162C288.424 478.073 283.449 477.874 286.625 477.841C303.772 477.66 305.144 478.422 301.316 478.818C291.612 478.845 281.807 478.87 272.281 478.894C272.27 478.894 272.26 478.894 272.25 478.894ZM128.869 170.759C128.869 170.748 128.869 170.738 128.869 170.727C129.147 170.282 129.221 177.195 129.484 169.399C129.483 175.33 129.481 181.261 129.48 187.222C129.454 185.473 129.429 183.688 129.403 181.94C129.308 183.483 129.212 185.03 129.117 186.573C129.435 188.68 129.25 190.638 129.143 196.869C129.484 195.147 129.825 193.434 130.165 191.713C130.064 198.953 129.962 206.218 129.861 213.458C129.775 213.547 129.689 213.638 129.603 213.727C129.713 216.456 129.823 219.158 129.933 221.887C129.831 222.629 129.729 223.343 129.627 224.085C129.704 227.378 129.782 230.676 129.861 233.969C129.612 234.971 129.505 227.714 129.568 240.58C129.314 236.633 129.06 232.695 128.805 228.719C128.826 209.4 128.848 190.078 128.869 170.759ZM406.372 478.545C385.094 478.592 391.087 478.413 396.013 477.85C399.455 478.081 402.93 478.313 406.372 478.545ZM1502.6 479.046C1508.77 478.662 1514.97 478.282 1521.29 477.911C1533.87 477.697 1546.46 478.397 1536.99 478.671C1525.6 479 1513.7 478.632 1502.6 479.046ZM1786.3 472.324C1774.88 481.193 1786.03 473.072 1787 469.901C1788.66 467.896 1790.31 464.699 1790.38 460C1790.39 457.633 1790.4 454.965 1790.41 451.932C1790.42 454.548 1790.47 457.321 1790.53 460C1790.78 466.143 1787.44 471.149 1786.3 472.325C1786.3 472.325 1786.3 472.325 1786.3 472.324ZM1254.85 478.614C1248.68 478.626 1242.54 478.733 1237.03 478.603C1238.69 478.236 1249.73 478.57 1241.83 478.025C1245.78 478.016 1249.73 478.007 1253.65 477.997C1251.16 478.222 1254.51 478.391 1254.83 478.613C1254.84 478.614 1254.84 478.614 1254.85 478.614ZM612.529 478.112C624.637 478.547 626.932 478.361 639.129 478.06C640.847 478.413 626.304 479.006 617.194 479.137C615.651 478.795 614.102 478.454 612.529 478.112ZM516.357 55.7067C519.264 55.2556 540.713 55.1968 551.37 55.3301C550.101 55.397 548.828 55.4648 547.559 55.5328C537.172 55.5907 526.744 55.6488 516.357 55.7067ZM1790.44 447.393C1790.43 448.99 1790.42 450.503 1790.41 451.932C1790.41 450.343 1790.42 448.81 1790.44 447.393ZM1532.15 53.5974C1537.22 53.1721 1522.14 53.0292 1540.45 53.1958C1540.45 53.1954 1540.45 53.195 1540.45 53.1946C1552.56 53.3043 1555.23 53.3336 1566.45 53.3667C1562.41 53.9131 1539.66 54.1084 1571.02 54.2212C1571.44 54.2217 1570.61 53.8966 1575.62 53.941C1577.17 53.9549 1582.12 54.2217 1589.65 54.2993C1592.09 54.3241 1610.37 54.4064 1585.44 54.4116C1586.19 54.7925 1584.85 55.1779 1584.91 55.5474C1575.18 55.6548 1567.7 54.909 1557.41 54.9273C1542.12 54.9563 1534.35 55.7104 1531.41 54.721C1544.26 54.478 1566.33 54.4721 1569.2 55.0671C1581.64 55.0743 1585.21 54.5869 1575.18 54.3457C1532.24 54.652 1563.39 53.6221 1525.79 54.0112C1525.35 54.1488 1523.8 54.2969 1524.04 54.4263C1512.56 53.942 1530.34 53.7496 1532.15 53.5974ZM1621.94 54.6496C1614.53 54.9404 1607.13 55.2336 1599.74 55.5254C1599.74 55.0515 1603.82 54.6261 1615.51 54.3591C1617.64 54.4563 1619.81 54.5535 1621.94 54.6496ZM997.843 54.7741C996.775 55.0318 993.927 55.268 991.85 55.5132C989.594 55.2959 936.175 55.0874 963.352 54.8742C967.299 54.8432 991.374 55.2988 997.843 54.7741ZM528.459 478.5C534.751 478.673 541.017 478.846 547.279 479.019C537.64 479.129 527.993 479.241 518.354 479.353C521.731 479.069 525.082 478.784 528.459 478.5ZM1605.01 479.498C1602.35 479.488 1611.18 479.134 1600.71 479.19C1608.52 478.963 1615.82 478.771 1623.45 478.558C1625.74 478.726 1628.05 478.893 1630.33 479.06C1632.11 478.953 1633.93 478.846 1635.71 478.738C1634.64 478.982 1633.69 479.221 1632.56 479.469C1619.71 478.946 1616.76 479.539 1605.01 479.498ZM1222.92 480.453C1220.61 479.922 1239.22 479.607 1220.91 479.522C1224.38 479.173 1229.97 478.99 1240.68 478.959C1242.4 479.093 1244.11 479.225 1245.83 479.358C1246.07 479.001 1248.83 478.869 1254.85 478.614C1254.85 478.615 1254.86 478.615 1254.86 478.616C1271.15 478.59 1270.18 478.709 1274.09 479.295C1256.85 478.964 1256.34 479.5 1244.58 479.819C1236.51 480.038 1225.98 479.939 1222.92 480.453ZM1054.76 54.768C1042.57 55.2161 1053.51 55.6341 1031.88 55.158C1033.27 55.0442 1034.67 54.9313 1036.07 54.8175C1042.3 54.7999 1048.53 54.7836 1054.76 54.768ZM1162.75 478.634C1164.14 479.456 1175.62 480.095 1177.58 478.758C1166.39 478.486 1171.86 479.243 1162.75 478.634ZM1783.33 476.678C1778.61 479.821 1774.45 480.054 1772 479.976C1766.18 479.73 1767.7 479.288 1772 478.947C1772.94 478.869 1773.99 478.727 1775.11 478.475C1776.4 478.431 1777.7 478.25 1778.96 477.941C1782.31 476.562 1785.23 474.214 1787.3 471.284C1786.33 473.237 1785 475.081 1783.33 476.678ZM783.467 479.537C799.908 478.95 765.72 479.21 777.205 478.844C786.375 478.551 798.459 479.142 793.889 479.513C790.713 479.523 787.179 479.53 783.499 479.537C783.488 479.537 783.478 479.537 783.467 479.537ZM878.607 479.369C875.907 478.742 879.799 478.924 866.809 479.037C863.1 479.069 833.622 478.834 845.998 479.353C856.531 479.353 867.659 479.362 878.607 479.369ZM1791.24 230.798C1791.52 230.601 1792.12 253.299 1791.97 256.212C1791.97 256.212 1791.97 256.212 1791.97 256.212C1791.56 264.077 1791.5 240.133 1790.94 250.519C1791.43 227.521 1790.24 220.64 1791.81 222.243C1791.88 235.791 1791.56 229.377 1791.24 230.798ZM234.733 54.4214C234.723 54.4214 234.712 54.4214 234.702 54.4214C236.226 54.4342 248.786 54.8349 247.258 54.9737C232.154 54.8547 234.846 54.5909 220.785 55.0244C220.014 54.8848 219.354 54.7494 218.523 54.6087C224.103 54.5259 227.195 54.3582 234.733 54.4214ZM940.089 54.2236C945.639 54.1522 955.766 54.4481 962.087 54.4305C941.966 55.5669 917.923 54.5072 940.089 54.2236ZM128.908 378.845C128.909 378.861 128.909 378.877 128.91 378.893C128.909 378.888 128.908 378.882 128.908 378.877C128.908 378.866 128.908 378.856 128.908 378.845ZM1370.13 54.9054C1369.42 54.8316 1369.01 54.7675 1368.87 54.7113C1368.87 54.706 1368.87 54.7007 1368.87 54.6954C1369.25 54.7645 1369.66 54.8343 1370.13 54.9054ZM1791.16 183.624C1791.54 174.17 1792.15 205.668 1792 215.854C1791.83 215.142 1791.67 215.031 1791.47 213.371C1791.92 205.15 1791.1 185.197 1791.16 183.624ZM1361.66 479.302C1386.56 479.312 1354.15 480.815 1352.82 479.616C1352.87 479.593 1361.02 479.304 1361.66 479.302ZM1791.32 379.976C1791.77 386.32 1791.9 373.571 1791.82 393.956C1791.7 395.142 1791.58 396.328 1791.46 397.514C1791.42 391.67 1791.37 385.821 1791.32 379.976ZM1524.77 481.275C1556.11 481.022 1586.08 480.574 1565.67 479.319C1563.29 479.36 1560.89 479.399 1558.52 479.439C1558.16 480.051 1549.41 479.717 1536.6 479.697C1534.77 479.94 1527.67 479.996 1526.33 480.203C1523.76 480.602 1531.92 480.883 1524.77 481.275ZM201.749 480.279C202.253 480.174 202.746 480.069 203.251 479.966C208.207 479.848 213.176 479.73 218.132 479.612C217.332 479.813 216.529 480.013 215.729 480.214C211.072 480.236 206.437 480.258 201.78 480.279C201.77 480.279 201.759 480.279 201.749 480.279ZM1652.48 53.3576C1649.64 54.5081 1659.58 54.2962 1679.76 53.7146C1670.68 53.5956 1661.56 53.4766 1652.48 53.3576ZM1021.21 480.809C1020.55 480.482 1019.91 480.156 1019.23 479.829C1008.52 480.17 1010.51 480.544 1015.64 480.977C1017.51 480.921 1019.34 480.865 1021.21 480.809ZM866.888 480.948C871.333 481.016 869.065 480.752 869.529 480.758C880.777 480.896 882.361 481.018 896.161 480.819C897.852 480.749 899.515 480.677 901.206 480.605C894.826 479.92 890.194 480.294 876.693 479.891C879.127 480.126 881.55 480.361 883.984 480.597C876.477 480.548 869.002 480.499 861.496 480.449C860.605 480.521 859.714 480.593 858.823 480.666C861.493 480.759 864.248 480.863 866.888 480.948ZM144.458 479.668C137.238 478.417 131 472.809 128.961 465.806C128.722 465.601 128.488 465.399 128.256 465.177C130.29 472.67 136.946 478.548 144.458 479.668ZM1502.59 53.8818C1502.01 53.9417 1501.45 54.0019 1500.95 54.0631C1501 53.9885 1501.63 53.9302 1502.59 53.8818ZM215.471 53.4961C207.193 53.3782 195.263 53.4556 186.183 53.4308C186.897 53.854 209.976 53.737 218.081 53.9935C219.383 53.9176 218.971 53.5458 215.471 53.4961ZM1754.17 480.124C1752.1 480.335 1750.02 480.545 1747.97 480.757C1742.96 480.734 1737.93 480.71 1732.89 480.687C1732.74 480.86 1732.59 481.034 1732.44 481.207C1754.67 480.982 1749.54 481.481 1760.55 481.972C1758.41 481.357 1756.31 480.741 1754.17 480.124ZM126.922 255.572C127.039 271.627 127.258 277.321 127.776 268.271C127.657 262.604 127.538 256.905 127.419 251.239C127.254 252.692 127.088 254.148 126.922 255.572ZM1210.2 53.4912C1196.76 53.685 1196.54 52.9891 1183.41 53.3777C1190.44 53.506 1197.47 53.6358 1204.48 53.7641C1206.37 53.6733 1208.31 53.582 1210.2 53.4912ZM1794.42 139.707C1794.66 134.039 1793.51 123.444 1794.36 107.509C1794.11 103.712 1793.86 101.332 1793.62 98.0678C1793.89 96.1685 1794.16 94.0109 1794.43 92.2007C1794.43 92.1901 1794.43 92.1796 1794.43 92.169C1794.34 77.7164 1794 87.0869 1793.71 86.7605C1793.59 86.6073 1793.79 75.8809 1793.53 79.2328C1793.09 85.0198 1793.34 106.643 1792.8 106.703C1792.98 99.1054 1792.83 84.2704 1792.47 88.6582C1792.07 93.4655 1792.74 107.446 1792.41 116.349C1793.27 103.591 1793.01 129.941 1792.34 132.939C1792.85 148.4 1793.06 134.189 1793.04 118.342C1793.55 128.016 1793.27 113.776 1793.7 111.431C1793.95 121.407 1793.74 155.642 1794.42 139.707ZM1394.25 481.482C1404.94 481.449 1421.63 481.74 1428.95 481.31C1433.21 481.06 1416.48 480.866 1428.02 480.473C1417.61 480.511 1415.23 480.665 1417.01 481.009C1414.64 481.051 1412.23 481.091 1409.86 481.131C1408.76 481.064 1407.64 480.998 1406.54 480.93C1405.29 481.072 1404.04 481.213 1402.82 481.355C1400.3 481.327 1397.75 481.299 1395.23 481.27C1394.94 481.341 1394.43 481.403 1394.25 481.482ZM824.438 53.5126C827.405 53.5085 830.343 53.5043 833.31 53.4992C832.983 53.4153 832.594 53.3279 832.219 53.2416C831.95 53.1735 831.681 53.1053 831.412 53.0372C833.132 53.2807 847.266 53.6854 853.22 53.4253C856.214 53.2949 849.402 52.8318 862.092 52.7509C852.895 52.7747 844.375 52.8379 835.445 52.8773C836.246 52.7396 837.016 52.6005 837.817 52.4628C837.812 52.4626 837.806 52.4624 837.801 52.4622C834.835 52.4312 831.833 52.3987 828.866 52.3676C827.382 52.7495 825.922 53.1307 824.438 53.5126ZM1029.9 481.455C1040.02 481.185 1043.41 481.045 1038.63 480.608C1038.62 480.608 1038.61 480.608 1038.6 480.608C1034.83 480.801 1031.06 480.995 1027.29 481.188C1028.15 481.277 1029.01 481.366 1029.9 481.455ZM1415.42 52.4403C1393.91 54.0992 1442.36 53.0822 1433.14 52.5172C1432.72 52.4913 1417.44 52.6234 1415.42 52.4403ZM1786.75 474.484C1782.94 478.409 1777.5 480.724 1772 480.707C1771.38 480.708 1770.75 480.709 1770.13 480.711C1770.75 480.803 1771.37 480.895 1772 480.988C1772.8 481.099 1773.6 481.166 1774.4 481.188C1779.2 480.447 1783.63 477.992 1786.75 474.484ZM126.169 325.472C125.714 331.687 125.549 347.643 126.044 355.44C126.102 351.345 126.16 347.248 126.218 343.152C126.275 350.895 126.338 358.55 126.391 366.352C127.026 366.767 126.658 357.776 126.833 344.243C126.861 342.148 127.648 328.753 127.055 324.127C126.933 323.197 126.85 337.447 126.495 327.543C126.467 331.874 126.473 335.611 126.458 339.705C126.307 340.001 126.156 340.295 126.004 340.622C126.059 335.56 126.115 330.533 126.169 325.472ZM1456.47 481.432C1471.15 481.467 1472.96 481.214 1476.01 480.766C1469.19 480.816 1462.36 480.866 1455.53 480.917C1455.86 481.088 1456.14 481.26 1456.47 481.432ZM126.024 456.668C126.011 458.116 126.012 459.191 126.023 460C126.265 464.03 126.371 462.008 126.924 464.819C129.857 475.448 138.155 481.358 148 481.502C149.828 481.494 151.723 481.479 153.72 481.452C152.919 481.522 152.183 481.588 151.411 481.656C151.422 481.656 151.432 481.656 151.443 481.656C206.596 481.953 180.614 481.194 148 481.26C146.724 481.263 145.437 481.153 144.164 480.926C143.351 480.64 142.592 480.314 141.834 479.939C130.716 476.885 126.342 465.143 126.523 460C126.389 457.706 126.227 456.453 126.024 456.668ZM1606.57 52.3835C1605.92 52.2986 1611.47 51.7593 1601.05 52.0118C1592.81 52.7992 1606.33 52.4084 1609.72 52.7112C1606.9 52.7868 1604.02 52.8603 1601.23 52.9358C1618.08 53.1584 1620.54 52.9711 1614.4 52.3957C1613.96 52.357 1607.23 52.4681 1606.57 52.3835ZM1495.79 51.9953C1493.48 53.1555 1514.75 52.6338 1513.98 52.2736C1511.04 52.2593 1508.76 52.4557 1505.65 52.3689C1502.5 52.2819 1501.7 52.0109 1495.79 51.9953ZM1793.72 375.849C1793.73 375.225 1794.21 368.964 1793.83 369.586C1792.93 377.332 1793.51 392.938 1793.82 390.208C1793.81 385.046 1793.67 381.604 1793.72 375.849C1793.72 375.849 1793.72 375.849 1793.72 375.849ZM125.896 228.656C125.863 228.952 125.668 244.573 125.849 246.589C126.054 248.25 126.274 249.075 126.486 250.321C126.289 241.715 126.439 224.295 125.896 228.687C125.896 228.677 125.896 228.666 125.896 228.656Z" fill="#00BCFF"/>
</svg>
