<svg width="164" height="174" viewBox="0 0 164 174" fill="none" xmlns="http://www.w3.org/2000/svg">
<path d="M13.7295 107.551C15.3589 87.9994 33.0779 85.4875 41.7337 86.6756L115.563 81.3293C119.84 74.4046 129.056 72.334 133.129 72.1643C159.606 76.2376 163.849 116.292 162.661 135.81C161.235 151.085 149.168 158.468 143.313 160.25C63.6788 181.228 30.8715 169.84 24.422 161.523C20.179 151.679 12.1002 127.104 13.7295 107.551Z" fill="white" stroke="black" stroke-width="2" stroke-linecap="round"/>
<path d="M32.5686 127.409C30.9392 101.136 47.8436 99.829 56.4994 102.46C64.8498 98.3864 99.3544 96.8589 115.563 96.6043C118.618 89.0686 124.983 86.8453 127.783 86.6755C150.186 90.7489 151.459 141.666 140.767 160.25C104.761 170.571 66.1737 174.507 52.6807 170.179C38.6277 168.346 33.502 140.562 32.5686 127.409Z" fill="white" stroke="black" stroke-width="2" stroke-linecap="round"/>
<circle cx="88.577" cy="108.315" r="0.763752" fill="#00BCFF"/>
<circle cx="124.728" cy="156.686" r="0.763752" fill="#00BCFF"/>
<circle cx="115.563" cy="157.195" r="0.763752" fill="#00BCFF"/>
<circle cx="135.42" cy="156.177" r="0.763752" fill="#00BCFF"/>
<circle cx="103.852" cy="157.704" r="0.763752" fill="#00BCFF"/>
<circle cx="98.7603" cy="136.319" r="0.763752" fill="#00BCFF"/>
<circle cx="85.5219" cy="140.902" r="0.763752" fill="#00BCFF"/>
<circle cx="93.6687" cy="130.21" r="0.763752" fill="#00BCFF"/>
<circle cx="86.0311" cy="133.774" r="0.763752" fill="#00BCFF"/>
<circle cx="81.4486" cy="126.136" r="0.763752" fill="#00BCFF"/>
<circle cx="93.6687" cy="120.026" r="0.763752" fill="#00BCFF"/>
<circle cx="85.5219" cy="122.063" r="0.763752" fill="#00BCFF"/>
<circle cx="81.4486" cy="116.462" r="0.763752" fill="#00BCFF"/>
<circle cx="137.966" cy="148.03" r="0.763752" fill="#00BCFF"/>
<circle cx="125.237" cy="144.975" r="0.763752" fill="#00BCFF"/>
<circle cx="138.985" cy="136.829" r="0.763752" fill="#00BCFF"/>
<circle cx="133.893" cy="142.939" r="0.763752" fill="#00BCFF"/>
<circle cx="139.494" cy="129.7" r="0.763752" fill="#00BCFF"/>
<circle cx="131.347" cy="134.283" r="0.763752" fill="#00BCFF"/>
<circle cx="137.966" cy="124.1" r="0.763752" fill="#00BCFF"/>
<circle cx="89.5953" cy="161.778" r="0.763752" fill="#00BCFF"/>
<circle cx="91.6319" cy="154.14" r="0.763752" fill="#00BCFF"/>
<circle cx="98.7603" cy="162.287" r="0.763752" fill="#00BCFF"/>
<circle cx="74.3203" cy="165.342" r="0.763752" fill="#00BCFF"/>
<circle cx="81.9578" cy="163.815" r="0.763752" fill="#00BCFF"/>
<circle cx="75.8477" cy="158.723" r="0.763752" fill="#00BCFF"/>
<circle cx="63.1186" cy="159.741" r="0.763752" fill="#00BCFF"/>
<circle cx="50.8985" cy="159.232" r="0.763752" fill="#00BCFF"/>
<circle cx="58.0269" cy="165.851" r="0.763752" fill="#00BCFF"/>
<circle cx="46.316" cy="154.14" r="0.763752" fill="#00BCFF"/>
<circle cx="138.475" cy="115.953" r="0.763752" fill="#00BCFF"/>
<circle cx="121.673" cy="134.283" r="0.763752" fill="#00BCFF"/>
<circle cx="131.347" cy="127.154" r="0.763752" fill="#00BCFF"/>
<circle cx="124.219" cy="126.645" r="0.763752" fill="#00BCFF"/>
<circle cx="117.09" cy="134.792" r="0.763752" fill="#00BCFF"/>
<circle cx="128.801" cy="119.517" r="0.763752" fill="#00BCFF"/>
<circle cx="132.365" cy="109.843" r="0.763752" fill="#00BCFF"/>
<circle cx="124.219" cy="109.334" r="0.763752" fill="#00BCFF"/>
<circle cx="116.072" cy="149.558" r="0.763752" fill="#00BCFF"/>
<circle cx="111.49" cy="144.975" r="0.763752" fill="#00BCFF"/>
<circle cx="97.2329" cy="145.994" r="0.763752" fill="#00BCFF"/>
<circle cx="70.2469" cy="153.631" r="0.763752" fill="#00BCFF"/>
<circle cx="88.577" cy="149.049" r="0.763752" fill="#00BCFF"/>
<circle cx="77.8845" cy="148.03" r="0.763752" fill="#00BCFF"/>
<circle cx="61.0819" cy="148.539" r="0.763752" fill="#00BCFF"/>
<circle cx="52.4261" cy="149.049" r="0.763752" fill="#00BCFF"/>
<circle cx="41.7335" cy="144.975" r="0.763752" fill="#00BCFF"/>
<circle cx="54.9719" cy="139.884" r="0.763752" fill="#00BCFF"/>
<circle cx="42.7519" cy="136.319" r="0.763752" fill="#00BCFF"/>
<circle cx="45.2977" cy="127.154" r="0.763752" fill="#00BCFF"/>
<circle cx="51.4077" cy="130.21" r="0.763752" fill="#00BCFF"/>
<circle cx="40.206" cy="113.407" r="0.763752" fill="#00BCFF"/>
<circle cx="44.7885" cy="114.425" r="0.763752" fill="#00BCFF"/>
<circle cx="39.1877" cy="122.063" r="0.763752" fill="#00BCFF"/>
<circle cx="85.0128" cy="106.278" r="0.763752" fill="#00BCFF"/>
<circle cx="134.402" cy="101.696" r="0.763752" fill="#00BCFF"/>
<circle cx="131.347" cy="94.5677" r="0.763752" fill="#00BCFF"/>
<circle cx="127.274" cy="102.205" r="0.763752" fill="#00BCFF"/>
<circle cx="122.182" cy="97.1134" r="0.763752" fill="#00BCFF"/>
<circle cx="45.8068" cy="106.278" r="0.763752" fill="#00BCFF"/>
<path d="M50.8988 102.205C42.6672 93.6341 27.9353 71.655 34.86 52.3066C39.8686 38.3118 55.0353 36.0822 67.7012 37.4291C77.2736 28.9894 87.3042 31.3958 91.1229 33.6539C95.1374 30.5102 99.0981 29.921 101.052 30.1578C120.604 38.1008 123.455 48.997 120.909 71.1458C112.508 92.5309 114.884 90.5791 115.563 95.8405C119.229 101.747 118.788 114.086 118.109 119.517C111.999 141.92 102.07 139.374 102.07 135.556C102.07 131.737 99.7788 106.788 92.3959 102.205C80.7868 93.4474 77.036 112.473 76.6117 123.081C78.4447 138.763 73.981 143.363 71.52 143.702C53.8009 145.332 50.3896 116.716 50.8988 102.205Z" fill="white"/>
<path d="M80.4305 40.0866C77.0258 38.983 72.5465 37.9443 67.7012 37.4291M86.0313 39.3228C87.6325 36.8593 89.3828 35.0166 91.1229 33.6539M91.1229 33.6539C95.1374 30.5102 99.0981 29.921 101.052 30.1578C120.604 38.1008 123.455 48.997 120.909 71.1458C112.508 92.5309 114.884 90.5791 115.563 95.8405C119.229 101.747 118.788 114.086 118.109 119.517C111.999 141.92 102.07 139.374 102.07 135.556C102.07 131.737 99.7788 106.788 92.3959 102.205C80.7868 93.4474 77.036 112.473 76.6117 123.081C78.4447 138.763 73.981 143.363 71.52 143.702C53.8009 145.332 50.3896 116.716 50.8988 102.205C42.6672 93.6341 27.9353 71.655 34.86 52.3066C39.8686 38.3118 55.0353 36.0822 67.7012 37.4291M91.1229 33.6539C87.3042 31.3958 77.2736 28.9894 67.7012 37.4291M50.8988 47.9787C51.2382 45.8571 54.8702 42.0214 66.6829 43.6507C74.2355 44.6691 90.6138 44.5672 95.7055 36.0132" stroke="black" stroke-width="2" stroke-linecap="round"/>
<path d="M1.00024 82.6021L19.3303 76.7467M6.34651 41.8687C9.40151 43.2265 16.5808 46.0439 20.8578 46.4512M40.7153 13.1007C43.0066 18.2772 48.1492 28.7831 50.3895 29.3941M78.9443 1C79.2838 6.43112 80.5737 17.8535 83.0177 20.0938M120.4 6.22694C119.127 8.9425 115.665 15.1883 111.999 18.447M139.239 26.0845C135.251 29.1395 127.07 35.6568 126.256 37.2862M129.82 60.9625C133.978 59.2653 143.262 55.4125 147.131 53.5795" stroke="#00BCFF" stroke-width="2" stroke-linecap="round"/>
</svg>
