<svg width="286" height="178" viewBox="0 0 286 178" fill="none" xmlns="http://www.w3.org/2000/svg">
<path d="M282.435 176.281C288.412 159.879 278.96 150.392 272.878 150.913C266.797 151.435 260.716 157.516 254.808 155.083C248.901 152.651 248.38 141.705 254.808 142.052C261.237 142.4 266.102 147.96 265.233 158.211C264.365 168.462 253.418 170.258 248.727 169.505C228.398 165.509 222.838 143.442 222.838 134.059C222.838 128.379 219.919 124.131 217.394 121.723" stroke="#00BCFF" stroke-width="2" stroke-linecap="round"/>
<path d="M177.084 16.2577C177.779 16.2577 184.382 15.9102 184.382 15.9102C184.243 12.2961 187.683 11.856 189.42 12.0876C191.551 4.70446 208.775 3.10915 211.834 4.78847C214.894 6.46779 217.742 13.8236 214.788 18.1671C214.322 18.8522 213.609 19.4714 212.703 20.0068C208.255 26.3422 210.85 44.4713 212.703 52.7439C217.221 59.6939 218.611 67.5128 220.001 76.3741C221.391 85.2354 220.348 99.6568 220.001 101.568C219.937 101.917 219.933 102.727 219.97 103.827C220.094 107.543 220.686 114.579 221.043 118.422C218.958 123.009 213.804 121.955 211.487 120.854C211.371 116.742 210.861 108.171 209.749 106.781C208.359 105.043 205.579 96.5293 205.579 94.0967C205.579 91.6642 205.232 85.9304 203.842 75.6791C202.452 65.4277 201.931 56.3927 202.452 54.1339C202.973 51.8751 200.714 32.415 201.062 29.9825C201.34 28.0364 204.189 23.8868 205.579 22.0552C200.704 22.5202 194.889 21.6284 190.289 18.6901C186.397 19.6631 184.845 18.2847 184.555 17.4739C184.555 17.4739 178.648 17.8214 177.605 17.8214C176.562 17.8214 176.389 16.2577 177.084 16.2577Z" fill="white"/>
<path d="M184.382 15.9102C184.382 15.9102 177.779 16.2577 177.084 16.2577C176.389 16.2577 176.562 17.8214 177.605 17.8214C178.648 17.8214 184.555 17.4739 184.555 17.4739M184.382 15.9102L184.555 17.4739M184.382 15.9102C184.243 12.2961 187.683 11.856 189.42 12.0876M184.555 17.4739C184.845 18.2847 186.397 19.6631 190.289 18.6901M189.42 12.0876C188.725 14.8677 189.71 17.6477 190.289 18.6901M189.42 12.0876C191.551 4.70446 208.775 3.10915 211.834 4.78847C214.894 6.46779 217.742 13.8236 214.788 18.1671C214.322 18.8522 213.609 19.4714 212.703 20.0068M190.289 18.6901C194.889 21.6284 200.704 22.5202 205.579 22.0552M205.579 22.0552C204.189 23.8868 201.34 28.0364 201.062 29.9825C200.714 32.415 202.973 51.8751 202.452 54.1339M205.579 22.0552C208.411 21.7851 210.927 21.0573 212.703 20.0068M202.452 54.1339C201.931 56.3927 202.452 65.4277 203.842 75.6791C205.232 85.9304 205.579 91.6642 205.579 94.0967C205.579 96.5293 208.359 105.043 209.749 106.781M202.452 54.1339C206.761 56.0799 211.081 54.0181 212.703 52.7439M209.749 106.781C210.861 108.171 211.371 116.742 211.487 120.854C213.804 121.955 218.958 123.009 221.043 118.422C220.686 114.579 220.094 107.543 219.97 103.827M209.749 106.781C212.103 107.534 217.443 107.997 219.97 103.827M212.703 52.7439C217.221 59.6939 218.611 67.5128 220.001 76.3741C221.391 85.2354 220.348 99.6568 220.001 101.568C219.937 101.917 219.933 102.727 219.97 103.827M212.703 52.7439C210.85 44.4713 208.255 26.3422 212.703 20.0068M204.711 64.2115C203.147 64.3852 203.043 68.3468 208.186 68.2078C211.313 67.8603 216.908 66.4703 214.267 63.6902C212.656 63.0536 210.097 64.559 208.707 64.7327C207.317 64.9065 206.274 64.0377 204.711 64.2115ZM206.448 70.814C204.884 70.9878 204.78 74.9493 209.923 74.8103C213.051 74.4628 218.472 72.7253 215.831 69.9453C214.219 69.3086 211.834 71.1615 210.444 71.3353C209.054 71.509 208.012 70.6403 206.448 70.814ZM207.143 78.4591C205.579 78.6329 205.649 82.2469 210.792 82.1079C213.919 81.7604 219.688 80.1966 217.047 77.4166C215.436 76.7799 212.877 78.2854 211.487 78.4591C210.097 78.6329 208.707 78.2854 207.143 78.4591Z" stroke="black" stroke-width="2" stroke-linecap="round"/>
<path d="M177.084 16.2578C177.779 16.2578 184.381 15.9103 184.381 15.9103C184.242 12.2963 187.683 11.8562 189.42 12.0878C188.725 14.8679 189.71 17.6478 190.289 18.6903C186.397 19.6633 184.845 18.2849 184.555 17.4741C184.555 17.4741 178.648 17.8216 177.605 17.8216C176.562 17.8216 176.389 16.2578 177.084 16.2578Z" fill="#00BCFF"/>
<path d="M184.381 15.9103C184.381 15.9103 177.779 16.2578 177.084 16.2578C176.389 16.2578 176.562 17.8216 177.605 17.8216C178.648 17.8216 184.555 17.4741 184.555 17.4741M184.381 15.9103L184.555 17.4741M184.381 15.9103C184.242 12.2963 187.683 11.8562 189.42 12.0878C188.725 14.8679 189.71 17.6478 190.289 18.6903C186.397 19.6633 184.845 18.2849 184.555 17.4741" stroke="black" stroke-width="2" stroke-linecap="round"/>
<path d="M143.666 10.4295C144.91 7.11223 148.642 1.09959 153.618 3.58758C158.594 6.07557 157.627 13.194 156.521 16.4422C155.346 19.8977 154.448 29.0065 160.253 37.7974C162.05 41.5294 166.1 52.3936 167.924 65.9946L173.315 87.1425C175.043 91.773 179.037 104.227 181.194 116.998C181.746 123.011 182.811 138.146 182.645 150.586C182.714 152.867 184.843 159.336 192.804 166.965C190.109 166.482 179.535 162.819 179.328 153.489C179.12 144.159 179.95 138.561 177.876 134.207C175.803 129.853 172.278 119.486 172.278 119.486C169.79 110.64 164.814 92.3673 164.814 90.0452C164.814 87.1425 161.29 70.1413 160.253 69.1046C159.216 68.068 153.618 51.4814 154.033 39.6634C152.858 34.8948 150.083 23.9644 151.752 19.3448C153.569 14.3188 155.672 -1.12227 143.666 10.4295Z" fill="white"/>
<path d="M160.253 37.7974C154.448 29.0065 155.346 19.8977 156.521 16.4422C157.627 13.194 158.594 6.07557 153.618 3.58758C148.642 1.09959 144.91 7.11223 143.666 10.4295C155.672 -1.12227 153.569 14.3188 151.752 19.3448C150.083 23.9644 152.858 34.8948 154.033 39.6634M160.253 37.7974C162.05 41.5294 166.1 52.3936 167.924 65.9946M160.253 37.7974C157.765 36.9681 155.07 38.6959 154.033 39.6634M167.924 65.9946L173.315 87.1425M167.924 65.9946C164.275 65.9946 161.29 68.068 160.253 69.1046M173.315 87.1425C175.043 91.773 179.037 104.227 181.194 116.998M173.315 87.1425C168.837 87.1425 165.782 89.0776 164.814 90.0452M181.194 116.998C181.746 123.011 182.811 138.146 182.645 150.586C182.714 152.867 184.843 159.336 192.804 166.965C190.109 166.482 179.535 162.819 179.328 153.489C179.12 144.159 179.95 138.561 177.876 134.207C175.803 129.853 172.278 119.486 172.278 119.486M181.194 116.998C177.544 115.671 173.73 118.104 172.278 119.486M172.278 119.486C169.79 110.64 164.814 92.3673 164.814 90.0452M164.814 90.0452C164.814 87.1425 161.29 70.1413 160.253 69.1046M160.253 69.1046C159.216 68.068 153.618 51.4814 154.033 39.6634" stroke="black" stroke-width="2" stroke-linecap="round"/>
<path d="M182.645 150.586C182.811 138.146 181.746 123.011 181.193 116.998C177.544 115.671 173.729 118.104 172.278 119.486C172.278 119.486 175.803 129.853 177.876 134.207C179.949 138.561 179.12 144.159 179.327 153.489C179.535 162.819 190.109 166.482 192.804 166.965C184.842 159.336 182.714 152.867 182.645 150.586Z" fill="#00BCFF" stroke="black" stroke-width="2" stroke-linecap="round"/>
<path d="M153.618 3.58758C148.642 1.09959 144.91 7.11223 143.666 10.4295C155.672 -1.12227 153.569 14.3188 151.752 19.3448C150.083 23.9644 152.858 34.8948 154.033 39.6634C155.07 38.6959 157.237 36.5823 159.725 37.4117C153.92 28.6208 155.346 19.8977 156.521 16.4422C157.627 13.194 158.594 6.07557 153.618 3.58758Z" fill="#00BCFF" stroke="black" stroke-width="2" stroke-linecap="round"/>
<path d="M96.8896 4.50514C99.8152 3.636 103.009 4.41245 105.839 6.52136C108.67 8.63042 111.077 12.0388 112.332 16.2652C113.588 20.4916 113.432 24.6614 112.212 27.9736C110.993 31.2855 108.741 33.68 105.815 34.5491C102.89 35.4183 99.6956 34.6417 96.8655 32.5329C94.0352 30.4239 91.6282 27.0154 90.3726 22.7891C89.117 18.5627 89.2727 14.3929 90.4924 11.0807C91.712 7.76864 93.9639 5.37431 96.8896 4.50514Z" fill="white" stroke="black" stroke-width="2"/>
<path d="M111.381 31.2432L113.334 27.8704C116.316 28.4384 119.31 41.7169 120.434 48.2851C120.739 47.9349 124.517 53.6241 123.985 53.9657C132.328 65.5044 135.701 86.9843 136.944 96.0377C137.938 103.281 147.417 144.856 152.033 164.738C152.565 167.578 146.175 169.886 145.287 168.998C144.4 168.111 132.92 121.305 127.358 99.2331C119.263 80.061 117.949 62.6049 118.304 56.2734C117.026 55.2793 117.298 50.7703 117.594 48.6401C116.174 36.2848 112.86 31.8941 111.381 31.2432Z" fill="white"/>
<path d="M117.594 48.6401C116.174 36.2848 112.86 31.8941 111.381 31.2432L113.334 27.8704C116.316 28.4384 119.31 41.7169 120.434 48.2851M117.594 48.6401L120.434 48.2851M117.594 48.6401C117.298 50.7703 117.026 55.2793 118.304 56.2734M120.434 48.2851C120.739 47.9349 124.517 53.6241 123.985 53.9657M118.304 56.2734C118.304 56.2734 123.452 54.3073 123.985 53.9657M118.304 56.2734C117.949 62.605 119.263 80.061 127.358 99.2331M123.985 53.9657C132.328 65.5044 135.701 86.9843 136.944 96.0377M127.358 99.2331C132.92 121.305 144.4 168.111 145.287 168.998M127.358 99.2331C129.547 99.7065 134.529 99.7301 136.944 96.0377M145.287 168.998C146.175 169.886 152.565 167.578 152.033 164.738M145.287 168.998C144.48 167.79 149.989 163.643 152.033 164.738M152.033 164.738C147.417 144.856 137.938 103.281 136.944 96.0377" stroke="black" stroke-width="2" stroke-linecap="round"/>
<path d="M97.7598 7.99631C99.9702 7.33974 102.402 7.9201 104.577 9.54082C106.752 11.1618 108.611 13.7902 109.582 17.0594C110.554 20.3286 110.431 23.5458 109.494 26.0915C108.556 28.6368 106.836 30.4506 104.626 31.1074C102.415 31.7641 99.9831 31.184 97.8079 29.5631C95.6326 27.9422 93.7735 25.3137 92.8023 22.0445C91.831 18.7753 91.9535 15.5582 92.891 13.0124C93.8284 10.4669 95.5492 8.65304 97.7598 7.99631Z" fill="#00BCFF" stroke="black" stroke-width="2"/>
<path d="M51.6665 23.6796L63.13 22.5996L57.6665 19.1797C62.9063 18.5975 76.1324 19.4946 79.0434 26.675C81.3722 32.4193 81.5663 42.9119 81.3722 47.4401C79.1987 46.5085 75.809 49.122 74.3859 50.5451C74.3859 50.5451 71.863 30.5563 70.1164 28.0334C68.3698 25.5106 51.6665 23.6796 51.6665 23.6796Z" fill="#00BCFF"/>
<path d="M63.13 22.5996L51.6665 23.6796C51.6665 23.6796 68.3698 25.5106 70.1164 28.0334C71.863 30.5563 74.3859 50.5451 74.3859 50.5451M63.13 22.5996C66.6232 23.3758 72.8333 24.5402 73.6096 26.0928C74.3859 27.6454 74.3859 50.5451 74.3859 50.5451M63.13 22.5996L57.6665 19.1797C62.9063 18.5975 76.1324 19.4946 79.0434 26.675C81.3722 32.4194 81.5663 42.9119 81.3722 47.4401C79.1987 46.5085 75.809 49.122 74.3859 50.5451" stroke="black" stroke-width="2" stroke-linecap="round"/>
<path d="M74.116 51.2887C74.4445 50.3165 78.5497 45.4553 80.6844 47.3998C82.8192 49.3443 82.9506 49.1109 82.8192 53.622C82.8192 53.622 86.9149 65.8102 89.2235 72.8723C89.8476 73.9967 90.1438 74.748 91.0298 77.1837C91.6137 78.7888 92.2398 80.6187 92.8887 82.5946C93.4152 84.1978 93.9567 85.897 94.5029 87.6501C94.9583 89.1116 95.4168 90.6105 95.8726 92.1224C96.3401 93.6731 96.8047 95.2374 97.2599 96.7891C97.664 98.1663 98.0606 99.5336 98.4454 100.872C98.8277 102.203 99.1983 103.505 99.5526 104.761C100.018 106.41 100.455 107.979 100.854 109.428C101.161 110.543 101.446 111.586 101.704 112.539L117.468 158.428C118.617 169.706 107.123 169.123 104.988 165.234C102.853 161.345 90.0446 120.512 90.0446 120.512C89.5741 119.379 89.0818 118.068 88.5758 116.623C88.093 115.243 87.5977 113.74 87.0969 112.15C86.6589 110.76 86.2167 109.302 85.7751 107.802C85.3155 106.242 84.8565 104.636 84.4034 103.011C84.0347 101.689 83.6699 100.355 83.3119 99.024C82.8281 97.2251 82.3567 95.431 81.9045 93.678C81.5099 92.1478 81.13 90.649 80.7695 89.2057C80.2298 87.0448 79.7336 85.0084 79.2967 83.1779C78.954 81.7418 78.6477 80.4324 78.3855 79.289C77.7287 77.7334 75.9223 61.2703 75.1012 53.2332C73.9189 53.2332 73.7875 52.261 74.116 51.2887Z" fill="white"/>
<path d="M82.8192 53.622C82.9506 49.1109 82.8192 49.3443 80.6844 47.3998C78.5497 45.4553 74.4445 50.3165 74.116 51.2887C73.7875 52.261 73.9189 53.2332 75.1012 53.2332M82.8192 53.622C82.8192 53.622 86.9149 65.8102 89.2235 72.8723M82.8192 53.622C79.5349 48.0219 76.3054 51.0294 75.1012 53.2332M75.1012 53.2332C75.9223 61.2703 77.7287 77.7334 78.3855 79.289M78.3855 79.289C79.9729 77.863 81.9982 74.8167 89.2235 72.8723M78.3855 79.289C78.6477 80.4324 78.954 81.7418 79.2967 83.1779M90.0446 120.512C90.0446 120.512 102.853 161.345 104.988 165.234C107.123 169.123 118.617 169.706 117.468 158.428L101.704 112.539M90.0446 120.512C89.5741 119.379 89.0818 118.068 88.5757 116.623M90.0446 120.512C91.5225 118.567 95.9234 114.25 101.704 112.539M101.704 112.539C101.446 111.586 101.161 110.543 100.854 109.428M89.2235 72.8723C89.8476 73.9967 90.1438 74.748 91.0298 77.1837M79.2967 83.1779C81.8393 80.9966 87.7456 76.744 91.0298 77.1837M79.2967 83.1779C79.7336 85.0084 80.2298 87.0448 80.7695 89.2057M91.0298 77.1837C91.6137 78.7888 92.2398 80.6187 92.8887 82.5946M80.7695 89.2057C82.6373 86.6779 87.6759 81.8168 92.8887 82.5946M80.7695 89.2057C81.13 90.649 81.5099 92.1478 81.9045 93.678M92.8887 82.5946C93.4152 84.1978 93.9567 85.897 94.5029 87.6501M81.9045 93.678C83.4848 91.6687 88.2169 87.6501 94.5029 87.6501M81.9045 93.678C82.3567 95.431 82.8281 97.2251 83.3119 99.024M94.5029 87.6501C94.9583 89.1116 95.4168 90.6105 95.8726 92.1224M83.3119 99.024C85.0625 96.6586 90.0255 91.9668 95.8726 92.1224M83.3119 99.024C83.6699 100.355 84.0347 101.689 84.4034 103.011M95.8726 92.1224C96.3401 93.6731 96.8047 95.2374 97.2599 96.7891M84.4034 103.011C86.3866 100.872 91.7344 96.6335 97.2599 96.7891M84.4034 103.011C84.8565 104.636 85.3155 106.242 85.7751 107.802M97.2599 96.7891C97.664 98.1663 98.0606 99.5336 98.4454 100.872M85.7751 107.802C87.8177 105.428 93.2114 100.717 98.4454 100.872M85.7751 107.802C86.2167 109.302 86.6589 110.76 87.0969 112.15M98.4454 100.872C98.8277 102.203 99.1983 103.505 99.5526 104.761M87.0969 112.15C89.1634 109.558 94.5476 104.45 99.5526 104.761M87.0969 112.15C87.5977 113.74 88.093 115.243 88.5757 116.623M99.5526 104.761C100.018 106.41 100.455 107.979 100.854 109.428M88.5757 116.623C90.4149 114.095 95.4453 109.117 100.854 109.428" stroke="black" stroke-width="2" stroke-linecap="round"/>
<path d="M82.3719 65.0623C84.3303 65.0623 85.6659 66.8587 85.6659 68.739C85.6658 70.6192 84.3302 72.4148 82.3719 72.4148C80.4138 72.4147 79.0781 70.6191 79.078 68.739C79.078 66.8588 80.4137 65.0624 82.3719 65.0623Z" fill="white" stroke="black" stroke-width="2"/>
<path d="M6.31607 123.459C4.94881 105.989 7.57319 84.4917 9.02907 75.8197L25.4703 70.4668C26.8375 73.5052 34.2943 79.15 37.2694 81.682C47.5998 89.5817 55.4996 99.9121 58.1581 104.09C68.6598 118.612 72.2863 132.052 72.6927 142.639C73.0388 151.656 71.0494 158.604 68.9823 162.388C65.0019 167.743 61.1965 167.136 60.4369 161.819C59.6773 156.502 61.0066 144.348 61.0066 144.348C59.4963 130.893 54.9819 119.852 49.6926 111.306C43.277 100.941 35.7213 94.2464 31.0028 91.3668C22.5495 88.1795 22.2497 86.3827 21.1091 81.1911C21.9949 86.6575 19.9248 93.6356 18.6594 96.6839C16.3078 105.04 16.391 113.947 17.7568 122.32C19.7074 134.277 24.2739 145.143 28.1019 151.754C29.7323 154.57 31.2288 156.614 32.3321 157.641C37.8391 162.768 39.9913 164.984 41.637 167.326C43.5844 174.361 42.4057 175.821 37.2694 175.112C28.8356 172.361 21.7293 165.319 16.4421 156.312C10.7769 146.661 7.2001 134.755 6.31607 123.459Z" fill="white"/>
<path d="M6.31607 123.459C4.94881 105.989 7.57319 84.4917 9.02907 75.8197L25.4703 70.4668C26.8375 73.5052 34.2943 79.15 37.2694 81.682C47.5998 89.5817 55.4996 99.9121 58.1581 104.09M6.31607 123.459C8.43621 122.89 13.6926 121.864 17.7568 122.32M6.31607 123.459C7.2001 134.755 10.7769 146.661 16.4421 156.312M61.0066 144.348C61.0066 144.348 59.6773 156.502 60.4369 161.819C61.1965 167.136 65.0019 167.743 68.9823 162.388C71.0494 158.604 73.0388 151.656 72.6927 142.639M61.0066 144.348C59.4963 130.893 54.9819 119.852 49.6926 111.306M61.0066 144.348C63.6701 143.525 69.7362 142.031 72.6927 142.639M58.1581 104.09L49.6926 111.306M58.1581 104.09C68.6598 118.612 72.2863 132.052 72.6927 142.639M17.7568 122.32C16.3909 113.947 16.3078 105.04 18.6594 96.6839C20.052 93.329 22.4194 85.2141 20.7483 79.5931C22.2675 86.0496 21.7358 87.8726 31.0028 91.3668C35.7213 94.2464 43.277 100.941 49.6926 111.306M17.7568 122.32C19.7074 134.277 24.2739 145.143 28.1019 151.754M16.4421 156.312C21.7293 165.319 28.8356 172.361 37.2694 175.112C42.4057 175.821 43.5844 174.361 41.637 167.326C39.9913 164.984 37.8391 162.768 32.3321 157.641C31.2288 156.614 29.7323 154.57 28.1019 151.754M16.4421 156.312C18.7287 155.172 24.2619 152.666 28.1019 151.754" stroke="black" stroke-width="2" stroke-linecap="round"/>
<path d="M9.35433 66.8701C-3.93856 59.654 1.56853 44.5887 5.93617 40.4743C5.02472 52.0201 11.1267 59.464 14.2916 61.7427C16.0073 56.7171 14.3619 45.8226 9.35433 39.9046C22.027 39.1429 21.3221 55.5529 21.1279 57.9449C20.9804 59.7619 18.8491 62.8822 17.7098 64.2115C16.6993 64.0278 15.6635 64.094 14.6714 64.3073C12.382 64.7996 10.3259 66.0751 9.35433 66.8701Z" fill="#00BCFF"/>
<path d="M14.2916 61.7427C16.0073 56.7171 14.3619 45.8226 9.35433 39.9046C22.027 39.1429 21.3221 55.5529 21.1279 57.9449C20.9804 59.7619 18.8491 62.8822 17.7098 64.2115C16.6993 64.0278 15.6635 64.094 14.6714 64.3073M14.2916 61.7427L14.6714 64.3073M14.2916 61.7427C11.1267 59.464 5.02472 52.0201 5.93617 40.4743C1.56853 44.5887 -3.93856 59.654 9.35433 66.8701C10.3259 66.0751 12.382 64.7996 14.6714 64.3073" stroke="black" stroke-width="2" stroke-linecap="round"/>
<path d="M16.9504 64.2622C21.992 64.2624 25.8241 67.771 25.8244 71.8071C25.8244 75.8434 21.9922 79.3529 16.9504 79.353C11.9084 79.353 8.07538 75.8435 8.07538 71.8071C8.07567 67.771 11.9086 64.2622 16.9504 64.2622Z" fill="white" stroke="black" stroke-width="2"/>
<circle cx="17.5196" cy="71.8073" r="3.36764" fill="#00BCFF" stroke="black" stroke-width="2"/>
<path d="M17.235 68.1992V75.7951" stroke="black" stroke-width="2" stroke-linecap="round"/>
</svg>
