<svg width="311" height="182" viewBox="0 0 311 182" fill="none" xmlns="http://www.w3.org/2000/svg">
<path d="M244.197 27.5084C237.539 22.3301 227.244 30.6935 222.929 35.5225C220.956 38.7283 215.12 41.9954 212.449 43.2282C205.791 40.2692 199.195 45.6941 196.729 48.7764C189.824 64.558 204.332 81.0382 212.449 87.3057C222.066 115.91 250.978 127.068 250.978 118.129C244.197 110.012 232.854 92.7306 241.731 88.5386C250.608 84.3466 261.458 104.053 265.773 114.43C271.938 113.197 270.705 81.4492 269.164 78.9834C267.623 76.5175 261.15 61.414 261.766 51.5505C262.383 41.687 252.519 33.9813 244.197 27.5084Z" fill="white"/>
<path d="M208.134 50.3177C209.88 50.1123 216.518 46.3723 222.929 35.5225M222.929 35.5225C227.244 30.6935 237.539 22.3301 244.197 27.5084C252.519 33.9813 262.383 41.687 261.766 51.5505C261.15 61.414 267.623 76.5175 269.164 78.9834C270.705 81.4492 271.938 113.197 265.773 114.43C261.458 104.053 250.608 84.3466 241.731 88.5386C232.854 92.7306 244.197 110.012 250.978 118.129C250.978 127.068 222.066 115.91 212.449 87.3057C204.332 81.0382 189.824 64.558 196.729 48.7764C199.195 45.6941 205.791 40.2692 212.449 43.2282C215.12 41.9954 220.956 38.7283 222.929 35.5225ZM228.477 42.3035C228.785 39.9404 231.189 34.9059 238.34 33.673" stroke="black" stroke-width="2" stroke-linecap="round"/>
<path d="M66.0373 112.889C66.777 94.3954 81.7578 94.7037 92.5457 94.7037C101.793 91.3129 106.005 87.9223 110.115 85.4565C119.876 82.7853 138.226 87.0597 133.541 125.527C131.075 128.486 131.691 135.185 132.308 138.165C138.719 157.399 130.869 172.276 126.143 177.31C124.417 178.543 123.369 171.248 123.061 167.447C118.869 147.72 109.19 142.788 104.875 142.788C100.93 151.912 103.848 164.673 105.8 169.913C112.951 179.283 110.423 180.598 108.266 180.085C90.2647 178.605 80.4216 154.604 77.7501 142.788C73.5376 140.528 65.2975 131.384 66.0373 112.889Z" fill="white" stroke="black" stroke-width="2"/>
<path d="M133.233 80.2162C137.918 72.3254 150.596 71.9966 156.35 72.8186C160.296 71.5856 161.122 69.428 165.597 63.8797C185.287 50.3429 189.009 55.8449 196.073 66.2866L196.112 66.3456C201.784 74.7295 202.585 95.525 202.277 104.875C209.921 135.205 205.462 145.048 202.277 146.178C199.503 139.397 187.482 121.211 180.701 116.588C175.276 112.889 175.358 120.595 176.077 124.91C188.407 149.569 187.996 154.706 186.249 154.192C162.823 151.418 153.576 127.376 152.651 124.91C151.912 122.937 143.713 116.69 139.706 113.814C135.596 105.902 128.547 88.107 133.233 80.2162Z" fill="white"/>
<path d="M146.795 82.0656C147.72 80.0107 152.343 76.3325 163.44 78.0586C164.878 75.079 168.803 69.1814 172.995 69.428M156.35 72.8186C150.596 71.9966 137.918 72.3254 133.233 80.2162C128.547 88.107 135.596 105.902 139.706 113.814C143.713 116.69 151.912 122.937 152.651 124.91C153.576 127.376 162.823 151.418 186.249 154.192C187.996 154.706 188.407 149.569 176.077 124.91C175.358 120.595 175.276 112.889 180.701 116.588C187.482 121.211 199.503 139.397 202.277 146.178C205.462 145.048 209.921 135.205 202.277 104.875C202.585 95.525 201.784 74.7295 196.112 66.3456C189.023 55.8656 185.324 50.3174 165.597 63.8797C161.122 69.428 160.296 71.5856 156.35 72.8186Z" stroke="black" stroke-width="2" stroke-linecap="round"/>
<path d="M82.6823 103.642C84.3262 102.923 88.3538 101.916 91.3128 103.642M96.2445 103.642C97.4775 100.354 102.224 93.655 111.348 93.1619" stroke="black" stroke-width="2" stroke-linecap="round"/>
<path d="M1.00024 130.458C39.2213 145.562 219.846 93.162 309.234 1" stroke="black" stroke-width="2" stroke-linecap="round"/>
<path d="M91.3126 127.993C90.0798 127.686 85.1479 115.356 86.0726 113.506C86.9973 111.657 103.025 105.184 106.416 105.492C109.807 105.801 113.814 119.67 111.656 120.904C109.498 122.138 92.5454 128.301 91.3126 127.993Z" fill="#00BCFF"/>
<path d="M95.6281 113.506C96.5528 115.561 98.4022 119.793 98.4022 120.287M100.868 111.656C100.868 111.656 103.95 117.205 103.95 118.437M86.0726 113.506C85.1479 115.356 90.0798 127.686 91.3126 127.993C92.5454 128.301 109.498 122.138 111.656 120.904C113.814 119.67 109.807 105.801 106.416 105.492C103.025 105.184 86.9973 111.657 86.0726 113.506Z" stroke="black" stroke-width="2" stroke-linecap="round"/>
<path d="M160.319 101.166C159.192 100.88 154.685 89.4054 155.53 87.6842C156.375 85.963 171.023 79.9394 174.122 80.2262C177.221 80.5131 180.883 93.4204 178.911 94.5684C176.939 95.7165 161.446 101.452 160.319 101.166Z" fill="#00BCFF"/>
<path d="M164.263 87.6842C165.108 89.596 166.798 93.5346 166.798 93.9941M168.68 86.0728C168.68 86.0728 171.145 91.3983 171.145 92.5457M155.53 87.6842C154.685 89.4054 159.192 100.88 160.319 101.166C161.446 101.452 176.939 95.7165 178.911 94.5684C180.883 93.4204 177.221 80.5131 174.122 80.2262C171.023 79.9394 156.375 85.963 155.53 87.6842Z" stroke="black" stroke-width="2" stroke-linecap="round"/>
<path d="M222.62 70.9691C220.155 68.8115 214.914 60.7974 217.38 57.7151C219.846 54.6327 234.95 45.6939 238.032 46.3104C241.114 46.9269 245.738 56.1739 243.272 59.8727C240.805 63.5715 225.085 73.1268 222.62 70.9691Z" fill="#00BCFF"/>
<path d="M226.319 57.0986C227.655 59.2563 229.402 62.3386 230.326 63.8798M231.559 54.6327C232.484 56.9959 234.642 60.181 235.258 61.1057M217.38 57.7151C214.914 60.7974 220.155 68.8115 222.62 70.9691C225.085 73.1268 240.805 63.5715 243.272 59.8727C245.738 56.1739 241.114 46.9269 238.032 46.3104C234.95 45.6939 219.846 54.6327 217.38 57.7151Z" stroke="black" stroke-width="2" stroke-linecap="round"/>
</svg>
