<svg width="83" height="177" viewBox="0 0 83 177" fill="none" xmlns="http://www.w3.org/2000/svg">
<path d="M51.6662 0.209961C51.5236 12.5457 44.9078 41.0902 19.5852 56.5816C28.4253 58.7332 45.7633 70.9542 44.3945 102.626C43.6816 91.4373 48.2442 66.565 72.198 56.5816C63.643 53.9997 47.5598 39.1107 51.6662 0.209961ZM11.4581 119.838C12.0284 125.576 11.3725 138.6 4.1864 144.797C7.46578 145.657 14.0246 150.563 14.0246 163.3C13.1691 157.276 13.6824 144.108 22.5795 139.633C18.8723 138.199 11.4581 132.231 11.4581 119.838ZM67.065 127.584C67.2076 133.608 65.5251 147.034 57.6546 152.542C61.6469 153.116 70.1448 158.653 72.198 176.21C70.3444 168.751 68.9471 153.145 78.1864 150.391C74.4793 147.952 67.065 139.977 67.065 127.584Z" stroke="#00BCFF" stroke-width="4" stroke-linecap="round"/>
</svg>
