<svg width="150" height="164" viewBox="0 0 150 164" fill="none" xmlns="http://www.w3.org/2000/svg">
<path d="M17.4228 96.7719L1.16931 63.046C43.4283 8.43446 95.9811 -0.884179 116.975 1.28295C119.142 4.39819 124.208 12.0102 127.133 17.5364C130.059 23.0626 122.393 37.4469 118.194 43.9482L120.226 61.4207L118.194 67.9221L17.4228 96.7719Z" fill="white"/>
<path d="M17.4228 96.7719L1.16931 63.046C43.4283 8.43446 95.9811 -0.884179 116.975 1.28295C119.142 4.39819 124.208 12.0102 127.134 17.5364M17.4228 96.7719L118.194 67.9221L120.226 61.4207M17.4228 96.7719L23.1115 88.6452M120.226 61.4207L118.194 43.9482C122.393 37.4469 130.059 23.0626 127.134 17.5364M120.226 61.4207L23.1115 88.6452M127.134 17.5364C98.2024 3.55845 39.2295 46.3862 13.3594 69.5474L23.1115 88.6452" stroke="black" stroke-width="2" stroke-linecap="round"/>
<path d="M18.6418 139.844L15.3911 102.867L114.131 73.2046L116.975 77.268V94.7404C139.08 97.341 147.315 115.87 148.669 124.809V139.844C100.559 181.453 41.9384 157.181 18.6418 139.844Z" fill="white"/>
<path d="M15.3911 102.867L18.6418 139.844C41.9384 157.181 100.559 181.453 148.669 139.844V124.809M15.3911 102.867L114.131 73.2046L116.975 77.268M15.3911 102.867L23.5178 108.149M148.669 124.809C147.315 115.87 139.08 97.341 116.975 94.7404V77.268M148.669 124.809C112.587 164.468 51.0132 144.584 24.7368 129.685L23.5178 108.149M116.975 77.268L23.5178 108.149" stroke="black" stroke-width="2" stroke-linecap="round"/>
<path d="M40.5839 94.7401V90.6767L47.4916 82.1436L97.4709 67.9219L98.6899 102.867L48.7106 117.089L47.4916 98.3971L40.5839 94.7401Z" fill="white"/>
<path d="M47.4916 98.3971L40.5839 94.7401V90.6767L47.4916 82.1436M47.4916 98.3971L48.7106 117.089L98.6899 102.867L97.4709 67.9219L47.4916 82.1436M47.4916 98.3971V82.1436" stroke="black" stroke-width="2" stroke-linecap="round"/>
<path d="M41.3966 74.0169C33.5949 77.2676 27.0394 69.4117 24.7368 65.0775C98.2837 7.37776 118.6 19.9742 120.226 20.7868C121.526 21.437 122.122 27.2882 122.257 30.1326C123.476 52.4811 104.785 63.4521 102.753 63.4521C101.128 63.4521 89.0734 53.7001 83.2492 48.824C76.7478 45.5733 51.1487 69.9535 41.3966 74.0169Z" fill="white" stroke="black" stroke-width="2" stroke-linecap="round"/>
<path d="M47.0852 107.337L33.6761 129.279C99.3401 151.384 130.384 136.864 137.698 126.841V117.495C134.122 106.118 112.099 95.9593 101.534 92.3022L96.2519 104.492L113.724 120.746C87.3938 134.074 58.3272 117.36 47.0852 107.337Z" fill="white" stroke="black" stroke-width="2" stroke-linecap="round"/>
<path d="M47.0854 78.8933C39.6088 87.3451 38.8233 75.3717 39.365 68.3285C39.4697 66.0531 44.8263 67.6513 47.4916 68.7348C45.2161 59.9579 52.774 60.7435 56.8373 62.2334C56.1872 53.4566 62.526 55.0549 65.7767 56.9511C63.5012 45.2487 70.5173 48.0118 74.3098 50.8561C71.7092 34.6027 79.7276 39.4786 84.0618 43.9483C83.4117 30.9455 89.7505 34.4671 93.0012 37.8533C93.9764 25.1756 101.805 30.1329 105.598 34.1963C106.248 22.8189 111.015 27.0177 113.318 30.5393C116.569 28.2638 119.278 30.4038 120.226 31.7583C120.876 30.458 122.393 30.4038 123.07 30.5393C128.596 35.7404 129.707 41.104 129.571 43.1357C128.746 43.4659 128.077 43.5935 127.54 43.5822C130.465 47.5153 127.133 49.5284 125.102 50.0433C126.077 53.294 121.445 54.6485 119.007 54.9194C117.381 60.1205 112.912 60.4726 110.474 60.2017C106.248 66.378 101.67 63.7233 100.315 61.4207C98.3649 53.6191 103.295 53.294 106.004 54.1067C105.029 49.5557 109.661 48.9598 112.099 49.2307C110.799 47.2802 112.058 44.1938 112.85 42.8944C111.927 42.7308 111.104 42.522 110.474 42.323C108.523 46.5489 101.534 47.0636 98.2836 46.7927C96.6583 51.0186 90.2923 51.2624 87.3125 50.8561C86.0122 55.7321 80.8111 56.9511 78.3731 56.9511C79.3483 61.5021 74.1743 62.9107 71.4654 63.0462C72.7657 67.5971 66.5894 69.5475 63.3387 69.9539C64.5577 75.2362 55.6183 76.4553 52.774 77.6743C50.4985 78.6495 48.0335 78.8933 47.0854 78.8933Z" fill="#00BCFF"/>
<path d="M52.774 77.6743C50.4985 78.6495 48.0335 78.8933 47.0854 78.8933C39.6088 87.3451 38.8233 75.3717 39.365 68.3285C39.4697 66.0531 44.8263 67.6513 47.4916 68.7348M52.774 77.6743C55.6183 76.4553 64.5577 75.2362 63.3387 69.9539M52.774 77.6743L47.4916 68.7348M63.3387 69.9539C66.5894 69.5475 72.7657 67.5971 71.4654 63.0462M63.3387 69.9539L56.8373 62.2334M71.4654 63.0462C74.1743 62.9107 79.3483 61.5021 78.3731 56.9511M71.4654 63.0462L65.7767 56.9511M78.3731 56.9511C80.8111 56.9511 86.0122 55.7321 87.3125 50.8561M78.3731 56.9511L74.3098 50.8561M87.3125 50.8561C90.2923 51.2624 96.6583 51.0186 98.2836 46.7927M87.3125 50.8561L84.0618 43.9483M98.2836 46.7927C101.534 47.0636 108.523 46.5489 110.474 42.323M98.2836 46.7927L93.0012 37.8533M110.474 42.323L105.598 34.1963M110.474 42.323C111.104 42.522 111.927 42.7308 112.85 42.8944M121.445 41.5104C122.257 41.9167 124.695 42.7293 125.508 41.5104M121.445 41.5104L113.318 30.5393M121.445 41.5104C119.481 43.4741 115.694 43.3989 112.85 42.8944M125.508 41.5104C125.833 40.5352 122.122 34.6026 120.226 31.7583M125.508 41.5104C125.508 42.3187 125.96 43.5492 127.54 43.5822M120.226 31.7583C120.876 30.458 122.393 30.4038 123.07 30.5393C128.596 35.7404 129.707 41.104 129.571 43.1357C128.746 43.4659 128.078 43.5935 127.54 43.5822M120.226 31.7583C119.278 30.4038 116.569 28.2638 113.318 30.5393M113.318 30.5393C111.015 27.0177 106.248 22.8189 105.598 34.1963M105.598 34.1963C101.805 30.1329 93.9764 25.1756 93.0012 37.8533M93.0012 37.8533C89.7505 34.4671 83.4117 30.9455 84.0618 43.9483M84.0618 43.9483C79.7276 39.4786 71.7092 34.6027 74.3098 50.8561M74.3098 50.8561C70.5173 48.0118 63.5012 45.2487 65.7767 56.9511M65.7767 56.9511C62.526 55.0549 56.1872 53.4566 56.8373 62.2334M56.8373 62.2334C52.774 60.7435 45.2161 59.9579 47.4916 68.7348M106.004 54.1067C103.295 53.294 98.3649 53.6191 100.315 61.4207C101.67 63.7233 106.248 66.378 110.474 60.2017M106.004 54.1067C105.029 49.5557 109.661 48.9598 112.099 49.2307M106.004 54.1067L110.474 60.2017M110.474 60.2017C112.912 60.4726 117.381 60.1205 119.007 54.9194M119.007 54.9194C121.445 54.6485 126.077 53.294 125.102 50.0433C127.133 49.5284 130.465 47.5153 127.54 43.5822M119.007 54.9194L112.099 49.2307M127.54 43.5822C126.727 43.7043 125.833 44.1109 125.508 43.1357C125.183 42.1605 122.393 42.052 121.445 42.3229C119.616 43.1102 115.336 44.3267 112.85 42.8944M112.85 42.8944C112.058 44.1938 110.799 47.2802 112.099 49.2307M102.753 61.0144C103.295 61.1499 104.622 61.2582 105.598 60.6081C106.817 59.7954 106.004 59.7954 107.629 59.3891M111.286 57.7637C112.099 57.7637 113.806 57.6012 114.131 56.951C114.537 56.1384 114.537 55.732 115.35 54.9194M118.6 52.075C119.684 51.6687 121.445 50.2871 119.819 48.0117C118.194 45.7362 121.309 45.1673 123.07 45.1673" stroke="black" stroke-width="2" stroke-linecap="round"/>
<path d="M45.46 110.993C46.1101 102.542 50.6069 102.596 52.774 103.679C54.3994 104.083 55.3475 106.015 55.6183 106.93C58.544 106.605 60.9007 109.233 61.7134 110.587C64.3139 110.262 65.5059 112.077 65.7767 113.025C67.4021 112.05 69.9756 113.431 71.0591 114.244C73.0095 113.269 76.206 114.65 77.5605 115.463C80.8112 113.513 83.2492 115.463 84.0619 116.682C89.263 115.057 93.0013 117.088 94.2203 118.307C98.1211 113.756 103.701 116.14 106.004 117.901C108.605 114.975 112.505 115.869 114.131 116.682C116.731 114.732 120.632 114.244 122.257 114.244L127.133 110.587C124.695 109.91 119.819 107.58 119.819 103.679C116.84 103.95 111.205 102.785 112.505 95.9589C109.255 97.3134 102.428 97.8281 101.128 89.0512C101.263 86.0714 103.241 80.6807 110.067 82.9562C112.099 83.6334 116.244 85.7193 116.569 88.6449C119.007 88.9158 124.289 90.7578 125.914 95.9589C128.759 95.9589 134.041 97.8281 132.416 105.305C136.886 108.962 136.479 116.682 135.26 118.714C134.285 120.339 132.687 118.849 132.01 117.901C132.416 121.558 131.197 122.371 129.978 123.996C129.003 125.296 127.675 122.642 127.133 121.152C127.133 122.777 126.321 123.996 124.289 125.621C122.664 126.922 121.987 123.996 121.851 122.371C121.851 125.215 119.413 127.247 117.788 128.466C116.487 129.441 114.537 126.163 113.724 124.402C112.912 127.247 110.88 130.091 108.442 131.717C106.541 132.984 105.257 128.435 104.818 125.821C104.806 125.753 104.795 125.687 104.785 125.621C104.379 128.059 101.534 130.904 98.69 132.529C96.4145 133.829 94.4912 128.195 93.8139 125.215C93.4076 127.247 91.3759 129.685 87.7189 130.904C84.7933 131.879 83.5201 126.163 83.2492 123.183C82.4365 124.402 80.161 127.003 77.5605 127.653C74.9599 128.303 72.1427 123.861 71.0591 121.558C69.9756 122.777 66.752 125.296 62.5261 125.621C58.3002 125.947 57.5146 119.526 57.65 116.276L53.5867 118.714C50.6069 119.662 44.8098 119.445 45.46 110.993Z" fill="#00BCFF"/>
<path d="M57.65 116.276L53.5867 118.714C50.6069 119.662 44.8098 119.445 45.46 110.993C46.1101 102.542 50.6069 102.596 52.774 103.679C54.3994 104.083 55.3475 106.015 55.6183 106.93C58.544 106.605 60.9007 109.233 61.7134 110.587M57.65 116.276C57.5146 119.526 58.3002 125.947 62.5261 125.621C66.752 125.296 69.9756 122.777 71.0591 121.558M57.65 116.276C58.3002 114.325 60.6298 111.671 61.7134 110.587M71.0591 121.558C72.1427 123.861 74.9599 128.303 77.5605 127.653C80.161 127.003 82.4365 124.402 83.2492 123.183M71.0591 121.558V114.244M83.2492 123.183C83.5201 126.163 84.7933 131.879 87.7189 130.904C91.3759 129.685 93.4076 127.247 93.8139 125.215M83.2492 123.183L84.0619 116.682M93.8139 125.215C94.4912 128.195 96.4145 133.829 98.69 132.529C101.534 130.904 104.379 128.059 104.785 125.621C104.795 125.687 104.806 125.753 104.818 125.821M93.8139 125.215L94.2203 118.307M113.724 124.402C112.912 127.247 110.88 130.091 108.442 131.717C106.541 132.984 105.257 128.435 104.818 125.821M113.724 124.402C114.537 126.163 116.487 129.441 117.788 128.466C119.413 127.247 121.851 125.215 121.851 122.371M113.724 124.402L114.131 116.682M121.851 122.371C121.987 123.996 122.664 126.922 124.289 125.621C126.321 123.996 127.133 122.777 127.133 121.152M121.851 122.371L122.257 114.244M127.133 121.152C127.675 122.642 129.003 125.296 129.978 123.996C131.197 122.371 132.416 121.558 132.01 117.901M127.133 121.152V110.587M132.01 117.901C132.687 118.849 134.285 120.339 135.26 118.714C136.479 116.682 136.886 108.962 132.416 105.305M132.01 117.901C132.66 113.025 130.655 109.368 129.572 108.149M132.416 105.305C132.28 105.034 131.522 105.223 129.572 108.149M132.416 105.305C134.041 97.8281 128.759 95.9589 125.914 95.9589M129.572 108.149C127.621 111.075 127.133 110.993 127.133 110.587M127.133 110.587L122.257 114.244M127.133 110.587C124.695 109.91 119.819 107.58 119.819 103.679M122.257 114.244C120.632 114.244 116.731 114.732 114.131 116.682M114.131 116.682C112.505 115.869 108.605 114.975 106.004 117.901M106.004 117.901C103.701 116.14 98.1211 113.756 94.2203 118.307M106.004 117.901L104.818 125.821M94.2203 118.307C93.0013 117.088 89.263 115.057 84.0619 116.682M84.0619 116.682C83.2492 115.463 80.8112 113.513 77.5605 115.463C76.206 114.65 73.0095 113.269 71.0591 114.244M71.0591 114.244C69.9756 113.431 67.4021 112.05 65.7767 113.025C65.5059 112.077 64.3139 110.262 61.7134 110.587M119.819 103.679C116.84 103.95 111.205 102.785 112.505 95.9589M119.819 103.679C118.194 98.1531 123.206 96.2298 125.914 95.9589M112.505 95.9589C109.255 97.3134 102.428 97.8281 101.128 89.0512C101.263 86.0714 103.241 80.6807 110.067 82.9562C112.099 83.6334 116.244 85.7193 116.569 88.6449M112.505 95.9589C111.53 91.3079 114.808 89.145 116.569 88.6449M116.569 88.6449C119.007 88.9158 124.289 90.7578 125.914 95.9589M104.818 86.2069C106.026 85.936 108.442 86.0444 108.442 88.6449C109.255 88.9158 111.043 89.4576 111.693 89.4576M115.35 92.7083C116.162 92.8437 117.788 95.1463 117.788 95.1463C117.788 95.1463 120.388 94.8208 121.038 95.9589M123.476 100.022C124.56 99.4805 126.808 99.1284 127.133 102.054C127.675 102.054 129.003 102.298 129.978 103.273" stroke="black" stroke-width="2" stroke-linecap="round"/>
</svg>
