<svg width="234" height="158" viewBox="0 0 234 158" fill="none" xmlns="http://www.w3.org/2000/svg">
<path d="M200.652 41.8593C201.601 45.2026 201.465 53.4138 193.333 59.512C196.722 60.5819 203.417 64.888 203.091 73.5539C203.227 69.1407 204.799 59.833 210.004 57.9072C206.886 58.0409 200.652 55.0186 200.652 41.8593ZM218.135 18.5898C218 23.4042 216.509 34.1563 211.63 38.6497C213.798 40.522 217.891 45.9515 216.916 52.6916C217.322 48.6797 219.599 40.0138 225.454 37.4461C222.337 35.4401 216.509 28.8605 218.135 18.5898ZM222.608 57.1048C222.608 60.9831 220.412 69.5419 211.63 72.7515C215.154 73.5539 222.039 77.2449 221.388 85.5898C221.388 82.1128 223.177 74.6773 230.333 72.7515C227.487 71.4142 221.957 66.4126 222.608 57.1048Z" stroke="#00BCFF" stroke-width="2" stroke-linecap="round"/>
<path d="M1.19466 74.7251C0.26976 71.4879 2.86461 72.2202 4.27765 72.9909C6.52564 71.7706 11.6382 67.1333 14.1046 58.3468C16.571 49.5603 30.4188 32.4625 37.0344 25.0119C40.567 16.4052 48.48 -0.307146 51.8713 1.6968C55.2626 3.70075 53.2843 10.753 51.8713 14.0287C49.3021 18.2036 44.9345 26.8617 48.0175 28.0949C49.4306 27.9022 53.1045 25.5128 56.4958 17.4971C60.1568 12.8084 68.0955 3.08421 70.5619 1.6968C72.553 0.669109 76.304 0.00107443 75.3791 5.55046C74.223 12.4872 65.7447 24.8192 60.7349 30.2145C59.4503 32.9121 58.307 37.5751 64.0106 34.6463C67.4789 29.9575 75.4562 19.2697 79.6182 14.0287C84.8208 7.47741 95.6112 8.24816 89.2526 19.2313C82.8939 30.2145 81.9305 32.1414 78.0767 35.9951C74.223 39.8488 71.14 41.9684 72.1034 44.4733C72.7457 45.501 75.3791 46.1304 80.7743 40.4269C87.5184 33.2975 92.7209 26.1681 100.814 28.673C101.585 30.6641 99.5035 37.9606 85.0135 51.2174C81.6735 54.9427 73.6449 62.9328 68.2497 65.0909C65.6805 66.8892 61.39 70.7943 64.7813 72.0275C66.7724 71.3852 71.3327 69.6382 73.6449 67.7884C76.5352 65.4762 88.6745 66.0543 89.2526 69.5226C89.8306 72.9909 87.5184 79.9278 73.6449 84.1669C62.5461 87.5582 57.6519 86.4791 46.8614 87.0572C43.2004 88.0848 34.5294 91.5274 29.1342 97.0769C30.6757 99.1964 28.1708 100.353 25.8585 99.3891C23.5463 98.4257 2.35078 78.7715 1.19466 74.7251Z" fill="white"/>
<path d="M4.27765 72.9909C2.86461 72.2202 0.26976 71.4879 1.19466 74.7251C2.35078 78.7715 23.5463 98.4257 25.8585 99.3891C28.1708 100.353 30.6757 99.1964 29.1342 97.0769M4.27765 72.9909C12.0493 80.313 27.901 95.3812 29.1342 97.0769M4.27765 72.9909C6.52564 71.7706 11.6382 67.1333 14.1046 58.3468C16.571 49.5603 30.4188 32.4625 37.0344 25.0119C40.567 16.4052 48.48 -0.307146 51.8713 1.6968C55.2626 3.70075 53.2843 10.753 51.8713 14.0287C49.3021 18.2036 44.9345 26.8617 48.0175 28.0949C49.4306 27.9022 53.1045 25.5128 56.4958 17.4971C60.1568 12.8084 68.0955 3.08421 70.5619 1.6968C72.553 0.669109 76.304 0.00107445 75.3791 5.55046C74.223 12.4872 65.7447 24.8192 60.7349 30.2145C59.4503 32.9121 58.307 37.5751 64.0106 34.6463C67.4789 29.9575 75.4562 19.2697 79.6182 14.0287C84.8208 7.47741 95.6112 8.24816 89.2526 19.2313C82.8939 30.2145 81.9305 32.1414 78.0767 35.9951C74.223 39.8488 71.14 41.9684 72.1034 44.4733C72.7457 45.501 75.3791 46.1304 80.7743 40.4269C87.5184 33.2975 92.7209 26.1681 100.814 28.673C101.585 30.6641 99.5035 37.9606 85.0135 51.2174C81.6735 54.9427 73.6449 62.9328 68.2497 65.0909C65.6805 66.8892 61.39 70.7943 64.7813 72.0275C66.7724 71.3852 71.3327 69.6382 73.6449 67.7884C76.5352 65.4762 88.6745 66.0543 89.2526 69.5226C89.8306 72.9909 87.5184 79.9278 73.6449 84.1669C62.5461 87.5582 57.6519 86.4791 46.8614 87.0572C43.2004 88.0848 34.5294 91.5274 29.1342 97.0769M70.7546 72.9909C72.2961 71.8991 76.6894 69.9466 81.9305 70.8715M106.402 23.0851C107.172 23.7274 108.406 25.7441 107.172 28.673M114.495 20.7728C114.88 21.7363 115.419 24.3183 114.495 26.9388" stroke="black" stroke-width="2" stroke-linecap="round"/>
<path d="M95.9967 134.265C97.0886 132.724 99.3109 129.101 99.4651 126.943C99.6577 124.246 98.1162 107.867 100.621 96.6913C103.126 85.5155 106.209 80.1202 106.209 76.0738C106.209 72.0274 113.146 67.0175 115.458 73.1835C117.77 79.3495 118.348 85.13 116.614 88.0204C114.88 90.9107 114.302 94.9571 115.458 95.1498C116.614 95.3425 121.817 90.5253 124.129 82.6251C126.441 74.7249 143.398 50.2537 147.637 52.3732C151.876 54.4928 152.454 57.3832 150.72 62.2003C148.986 67.0175 146.095 74.725 143.398 77.808C140.7 80.891 138.773 86.8643 140.507 86.4789C142.242 86.0935 148.986 77.808 153.032 71.4493C157.078 65.0907 169.025 51.7952 172.108 57.9612C173.906 59.6312 175.345 65.4761 166.713 75.4958C155.922 88.0204 152.839 90.718 152.261 92.2595C151.683 93.801 150.527 96.4985 154.574 95.1498C158.62 93.801 169.218 79.5422 172.108 77.808C174.998 76.0738 184.055 69.3298 181.742 79.1568C180.458 81.2121 179.045 84.3594 176.155 88.0204C173.264 91.6813 166.559 98.3484 162.088 100.352C159.969 102.536 157.271 106.441 163.437 104.592C167.676 100.738 177.696 93.7625 183.862 96.6913C191.569 100.352 167.484 113.07 166.713 113.648C165.942 114.226 156.308 120.392 152.261 124.824C148.215 129.255 140.893 133.687 138.195 135.614C135.498 137.541 124.129 150.836 124.129 153.149C125.979 155.923 123.358 156.232 121.817 156.039C115.073 156.424 105.053 147.368 99.4651 143.322C93.8771 139.275 92.5283 136.963 92.5283 135.036C92.5283 133.495 94.8406 133.88 95.9967 134.265Z" fill="white"/>
<path d="M95.9967 134.265C97.0886 132.724 99.3109 129.101 99.4651 126.943C99.6577 124.246 98.1162 107.867 100.621 96.6913C103.126 85.5155 106.209 80.1202 106.209 76.0738C106.209 72.0274 113.146 67.0175 115.458 73.1835C117.77 79.3495 118.348 85.13 116.614 88.0204C114.88 90.9107 114.302 94.9571 115.458 95.1498C116.614 95.3425 121.817 90.5253 124.129 82.6251C126.441 74.7249 143.398 50.2537 147.637 52.3732C151.876 54.4928 152.454 57.3832 150.72 62.2003C148.986 67.0175 146.095 74.725 143.398 77.808C140.7 80.891 138.773 86.8643 140.507 86.4789C142.242 86.0935 148.986 77.808 153.032 71.4493C157.078 65.0907 169.025 51.7952 172.108 57.9612C173.906 59.6312 175.345 65.4761 166.713 75.4958C155.922 88.0204 152.839 90.718 152.261 92.2595C151.683 93.801 150.527 96.4985 154.574 95.1498C158.62 93.801 169.218 79.5422 172.108 77.808C174.998 76.0738 184.055 69.3298 181.742 79.1568C180.458 81.2121 179.045 84.3594 176.155 88.0204C173.264 91.6813 166.559 98.3484 162.088 100.352C159.969 102.536 157.271 106.441 163.437 104.592C167.676 100.738 177.696 93.7625 183.862 96.6913C191.569 100.352 167.484 113.07 166.713 113.648C165.942 114.226 156.308 120.392 152.261 124.824C148.215 129.255 140.893 133.687 138.195 135.614C135.498 137.541 124.129 150.836 124.129 153.149M95.9967 134.265C94.8406 133.88 92.5283 133.495 92.5283 135.036C92.5283 136.963 93.8771 139.275 99.4651 143.322C105.053 147.368 115.073 156.424 121.817 156.039C123.358 156.232 125.979 155.923 124.129 153.149M95.9967 134.265C101.392 139.468 114.572 150.528 124.129 153.149M114.302 79.1568C114.687 80.9552 115.034 85.2456 113.339 88.0204M148.6 58.732C148.944 60.8832 147.346 64.6871 146.481 65.476" stroke="black" stroke-width="2" stroke-linecap="round"/>
</svg>
