<svg width="298" height="412" viewBox="0 0 298 412" fill="none" xmlns="http://www.w3.org/2000/svg">
<path d="M31.7193 230.357C26.7877 231.449 26.2398 235.591 26.5822 237.526C27.4041 237.526 31.491 250.044 33.4317 256.303C34.3057 272.074 33.0373 280.575 38.9112 296.245C48.7745 316.455 64.9391 315.361 71.7885 312.289C105.693 301.366 112.543 243.672 108.433 238.55C102.786 231.512 37.8838 228.991 31.7193 230.357Z" fill="#00BCFF"/>
<path d="M98.012 206L108.322 207.369C116.341 225.054 131.692 273.087 127.911 274.456C124.131 275.826 108.597 251.592 108.322 236.805M108.322 236.805C95.0335 233.611 60.8957 227.701 30.6528 229.617M108.322 236.805C108.704 257.924 102.572 296.839 77.7357 309.83M25.4978 236.805C30.1717 242.556 32.9439 260.423 33.7458 268.638C33.623 285.029 37.1533 295.883 41.9043 302.866M41.9043 302.866C47.7884 311.514 55.5449 314.224 60.552 314.161C67.0879 313.979 72.7836 312.42 77.7357 309.83M41.9043 302.866C31.8532 294.993 10.377 283.698 2.81579 278.906C-4.74537 274.114 22.7484 233.725 22.7484 233.725M77.7357 309.83C81.1724 321.998 85.9837 351.47 77.7357 372.007C76.0173 377.94 73.6115 390.969 77.7357 395.624C82.8909 401.443 87.7022 407.262 87.3586 410M43.3689 312.45C43.8571 321.691 44.5406 341.817 43.3689 348.389C41.9043 356.604 41.9043 375.772 41.9043 382.275C41.9043 388.779 36.0831 401.511 27.5601 401.785" stroke="black" stroke-width="3" stroke-linecap="round"/>
<path d="M108.438 174.5C108.438 198.524 88.0947 218 63 218C37.9053 218 16.1853 211.786 17.5621 174.5C17.5621 150.476 37.9053 131 63 131C88.0947 131 109.815 142.738 108.438 174.5Z" fill="white"/>
<path d="M44.2804 135.837C34.2946 137.783 15.0118 150.808 17.7665 187.342C21.2098 233.01 88.6998 217.215 97.3082 205.884C105.917 194.553 130.02 131.373 61.4971 130M37.3935 190.776C40.6073 190.318 47.7925 190.501 50.8227 194.896" stroke="black" stroke-width="3" stroke-linecap="round"/>
<path d="M72.476 145C75.6178 148.782 78.7138 159.82 78.4884 161.18M55.5 149.82C58.6418 153.602 61.7378 164.64 61.5123 166" stroke="black" stroke-width="3" stroke-linecap="round"/>
<path d="M211.35 143.995H195.462L188.24 136.533L190.647 123.533L204.128 122.089L211.35 126.663V143.995Z" fill="#00BCFF"/>
<path d="M211.35 143.995H195.462L188.24 136.533L190.647 123.533L204.128 122.089L211.35 126.663V143.995ZM211.35 143.995L204.128 136.533" stroke="black" stroke-width="2"/>
<path d="M165.13 53.2399L157.667 43.6107C158.437 35.9073 172.111 22.4265 178.851 16.6489C188.079 9.50729 219.174 -2.17841 225.312 14.4822C237.108 46.4996 231.33 57.0917 216.165 78.7573C210.387 85.6903 207.177 101.225 206.295 108.126L191.129 108.608L184.629 99.4603L201.239 50.8326C203.245 46.2587 204.898 36.8703 195.462 35.9073C186.025 34.9444 181.58 45.9377 180.536 51.5548L165.13 53.2399Z" fill="#00BCFF"/>
<path d="M180.536 51.5548L165.13 53.2399L157.667 43.6107C158.437 35.9073 172.111 22.4265 178.851 16.6489C188.079 9.50729 219.174 -2.17841 225.312 14.4822C237.108 46.4996 231.33 57.0917 216.165 78.7573C210.387 85.6903 207.177 101.225 206.295 108.126M180.536 51.5548L173.074 43.6107M180.536 51.5548C181.58 45.9377 186.025 34.9444 195.462 35.9073C204.898 36.8703 203.245 46.2587 201.239 50.8326L184.629 99.4603L191.129 108.608L206.295 108.126M206.295 108.126L198.832 99.4603" stroke="black" stroke-width="2"/>
<path d="M173.315 43.6113H157.667C155.982 24.5939 176.685 1.24251 202.684 1.00178C223.483 0.809201 228.843 16.248 228.442 24.3526C229.982 35.715 220.016 52.4378 214.479 59.2585C204.657 70.621 199.554 91.1151 199.073 99.7011H184.388C180.151 81.5982 194.82 57.4931 202.684 47.7034C208.846 39.0371 208.461 28.3202 205.332 25.0748C192.332 11.5939 176.765 32.0563 173.315 43.6113Z" fill="white" stroke="black" stroke-width="2"/>
<path d="M188.24 136.533V121.848H204.128V136.533H188.24Z" fill="white" stroke="black" stroke-width="2"/>
<path d="M160.439 158.505L149.925 160.766L144.084 156.856L143.827 147.911L152.542 145.037L157.972 147.036L160.439 158.505Z" fill="#00BCFF"/>
<path d="M160.439 158.505L149.925 160.766L144.084 156.856L143.827 147.911L152.542 145.037L157.972 147.036L160.439 158.505ZM160.439 158.505L154.598 154.595" stroke="black" stroke-width="2"/>
<path d="M116.937 105.029L110.628 99.7196C110.041 94.5125 117.171 83.6459 120.809 78.8634C125.898 72.8243 144.811 60.6659 151.244 70.8169C163.607 90.3244 161.291 98.1557 154.339 114.651C151.503 120.061 151.59 130.797 151.988 135.49L142.021 137.967L136.418 132.839L140.488 98.2968C141.165 94.9847 140.922 88.5369 134.541 89.2429C128.16 89.9488 126.783 97.856 126.892 101.721L116.937 105.029Z" fill="#00BCFF"/>
<path d="M126.892 101.721L116.937 105.029L110.628 99.7196C110.041 94.5125 117.171 83.6459 120.809 78.8634C125.898 72.8243 144.811 60.6659 151.244 70.8169C163.607 90.3244 161.291 98.1557 154.339 114.651C151.503 120.061 151.59 130.797 151.988 135.49M126.892 101.721L120.823 97.5268M126.892 101.721C126.783 97.856 128.16 89.9488 134.541 89.2429C140.922 88.5369 141.165 94.9847 140.488 98.2968L136.418 132.839L142.021 137.967L151.988 135.49M151.988 135.49L145.817 130.817" stroke="black" stroke-width="2"/>
<path d="M120.982 97.4927L110.628 99.7198C106.806 87.3755 117.182 68.9769 134.352 65.1172C148.087 62.0294 153.832 71.4826 154.72 76.9026C157.356 84.2021 153.142 96.6863 150.449 101.988C145.567 110.904 145.107 125.192 146.01 130.942L136.293 133.032C130.913 121.656 137.188 103.618 140.999 96.0204C143.843 89.4086 142.063 82.3719 139.53 80.6698C129.01 73.5995 121.621 89.3554 120.982 97.4927Z" fill="white" stroke="black" stroke-width="2"/>
<path d="M144.084 156.856L141.994 147.139L152.508 144.878L154.598 154.595L144.084 156.856Z" fill="white" stroke="black" stroke-width="2"/>
<path d="M256.543 163.215L245.894 160.148L242.494 153.753L246.616 145.506L255.93 147.139L259.888 151.598L256.543 163.215Z" fill="#00BCFF"/>
<path d="M256.543 163.215L245.894 160.148L242.494 153.753L246.616 145.506L255.93 147.139L259.888 151.598L256.543 163.215ZM256.543 163.215L253.143 156.819" stroke="black" stroke-width="2"/>
<path d="M243.08 93.4701L239.937 85.5764C241.94 80.5623 253.705 74.1661 259.338 71.5948C266.901 68.5893 289.996 66.7583 290.894 79.1089C292.621 102.843 286.705 108.827 272.359 120.421C267.149 123.952 262 133.745 260.077 138.199L249.82 135.595L247.229 128.21L267.745 98.8253C269.973 96.147 272.892 90.1738 266.754 87.7074C260.615 85.2409 255.514 91.7508 253.731 95.314L243.08 93.4701Z" fill="#00BCFF"/>
<path d="M253.731 95.314L243.08 93.4701L239.937 85.5764C241.94 80.5623 253.705 74.1661 259.338 71.5948C266.901 68.5893 289.996 66.7583 290.894 79.1089C292.621 102.843 286.705 108.827 272.359 120.421C267.149 123.952 262 133.745 260.077 138.199M253.731 95.314L250.263 88.5497M253.731 95.314C255.514 91.7508 260.615 85.2409 266.754 87.7074C272.892 90.1738 269.973 96.147 267.745 98.8253L247.229 128.21L249.82 135.595L260.077 138.199M260.077 138.199L256.748 130.951" stroke="black" stroke-width="2"/>
<path d="M250.424 88.5964L239.937 85.5767C242.477 72.506 260.859 60.8512 278.33 65.7072C292.307 69.592 292.919 80.9735 291.087 86.3278C289.926 94.2403 280.02 103.525 274.993 107.027C266.217 112.747 258.842 125.497 256.862 131.159L247.021 128.325C247.675 115.375 262.158 102.05 269.317 97.0067C275.12 92.3878 276.93 85.131 275.459 82.352C269.348 70.8084 254.966 81.5181 250.424 88.5964Z" fill="white" stroke="black" stroke-width="2"/>
<path d="M242.495 153.753L245.328 143.911L255.977 146.978L253.143 156.819L242.495 153.753Z" fill="white" stroke="black" stroke-width="2"/>
</svg>
