<svg width="48" height="53" viewBox="0 0 48 53" fill="none" xmlns="http://www.w3.org/2000/svg">
<path d="M16.7586 0.143694C18.3034 -0.339314 19.5355 0.525654 19.9605 0.823615C20.0968 0.9192 20.2318 1.01961 20.3323 1.09389C20.4425 1.17537 20.5248 1.23535 20.6005 1.2871C20.7112 1.36289 20.7603 1.38629 20.7638 1.38846L20.7408 1.38107C21.2894 1.55899 21.8276 1.77193 22.3339 1.96491C22.8583 2.16479 23.4336 2.37674 24.1658 2.60471C26.0378 3.18747 27.0269 3.42004 28.4424 3.92866C29.6272 4.35439 30.9694 5.01938 32.012 5.93991C32.1975 6.10375 32.6781 6.38431 33.5936 6.83205C34.3862 7.21969 35.4575 7.71294 36.3891 8.22462C36.7248 8.40901 37.0758 8.56535 37.5674 8.78418C38.0425 8.99566 38.6131 9.25056 39.2642 9.59502C39.3649 9.64831 39.4644 9.69571 39.5627 9.74177C39.8044 9.46378 40.0406 9.21183 40.2551 9.01645L40.3839 8.90771C40.758 8.61353 41.6318 8.09487 42.7238 8.55824C43.6929 8.96956 43.9924 9.86629 44.0467 10.0216C44.2285 10.5418 44.2753 11.1764 44.3002 11.5155C44.3742 12.527 44.3848 13.2353 44.5054 13.7115C44.7071 14.5062 44.7882 15.25 44.8542 15.7196C44.926 16.2299 44.9899 16.5223 45.1035 16.7912C45.5235 17.785 45.8244 18.9261 46.0451 19.8255C46.3011 20.8686 46.4193 21.4293 46.5165 21.6932C46.8618 22.6304 47.19 23.5122 47.7409 25.0242C47.7791 25.1291 47.9162 25.4832 47.9713 25.8413C48.0391 26.2817 48.0649 27.3465 47.1093 28.0965C46.7849 28.3511 46.4447 28.5169 46.1101 28.6222C46.008 28.7838 45.8942 28.9328 45.7707 29.0646C45.3309 29.5342 44.7929 29.8097 44.4824 29.9578C44.1686 30.1075 43.7405 30.2798 43.5293 30.3706C43.2478 30.4916 43.0863 30.574 42.9888 30.6377C42.6887 30.834 42.3441 31.0082 42.0786 31.1498C41.7699 31.3144 41.3466 31.546 40.7034 31.9353C39.1423 32.88 37.7609 33.6589 36.7127 34.2379C36.1922 34.5255 35.7444 34.769 35.415 34.9495C35.2472 35.0415 35.1114 35.1158 35.0055 35.1755C34.9531 35.2049 34.9117 35.2286 34.8798 35.2473C34.8641 35.2564 34.8521 35.264 34.8431 35.2694C34.8339 35.2749 34.8295 35.2779 34.8295 35.2779C34.159 35.7009 33.3598 36.1677 32.6624 36.5786C31.9302 37.01 31.3385 37.3632 30.9813 37.6069C30.4671 37.9578 30.0599 38.2995 29.3725 38.8179C28.7357 39.2981 27.9841 39.8276 27.0452 40.3213C25.8269 40.9618 24.9761 41.6266 24.06 42.2882C23.0016 43.0528 22.0154 43.5651 21.3253 43.9564C20.8974 44.1989 20.4839 44.4466 20.0652 44.6986C19.6557 44.945 19.2301 45.2018 18.8167 45.4355C18.4196 45.6601 18.1695 45.9879 17.2948 46.8671C17.2926 46.8695 17.245 46.9223 17.0529 47.318C16.9096 47.613 16.5972 48.3061 16.0568 48.8837C15.9872 48.958 15.8835 49.106 15.6776 49.4823C15.6025 49.6196 15.5032 49.8041 15.3885 50.0112C15.3006 50.41 15.2206 50.7541 15.1634 51.0491C15.1015 51.368 14.9484 51.7877 14.5967 52.1629C14.2328 52.5512 13.7887 52.7509 13.388 52.8249C13.2586 52.8488 13.1344 52.8559 13.0172 52.8576C12.9991 52.8645 12.9814 52.8732 12.9628 52.8798C12.4756 53.0506 11.524 53.1478 10.7443 52.3941C10.1738 51.8425 10.0996 51.181 10.0834 51.028C10.058 50.7875 10.0753 50.5883 10.0866 50.4885C10.0977 50.39 10.1132 50.2957 10.1306 50.2108C10.1036 50.1341 10.0768 50.0614 10.0541 49.9922C9.83119 49.3141 9.81105 49.1471 9.63933 48.6767C9.34844 47.8799 9.17985 46.9376 9.06011 46.0911C8.93822 45.2295 8.84454 44.284 8.75636 43.4897C8.73315 43.2807 8.64311 42.9776 8.43376 42.3748C8.25928 41.8724 7.98474 41.1152 7.85559 40.3393C7.81761 40.1113 7.71768 39.8236 7.45653 39.1779C7.21531 38.5815 6.88326 37.7826 6.57566 36.7644C6.09169 35.1625 5.7847 33.8901 5.64032 32.6564C5.49932 31.4515 5.04876 29.8446 4.69766 28.5821C4.38418 27.455 4.19016 26.3558 4.03046 25.3071C3.80496 23.8263 3.71983 22.0504 3.61987 21.0734C3.58314 20.7145 3.50525 20.3539 3.3884 19.8044C3.27815 19.286 3.14333 18.6399 3.06894 17.8945C2.96177 16.8211 2.70169 15.7663 2.44678 14.9098C2.35122 14.5887 2.25786 14.2605 2.17026 13.9522C2.08108 13.6383 1.99738 13.3444 1.91469 13.0685C1.80594 12.7057 1.71308 12.4287 1.63713 12.226C1.49572 12.147 1.39081 12.0868 1.33862 12.0581C0.847807 11.7892 0.449365 11.3611 0.217891 10.8461C0.0350409 10.4392 -0.153893 9.67135 0.196943 8.88342C0.284762 8.04341 0.858851 7.29785 1.71149 7.03898C2.3341 6.84995 3.13341 6.62175 4.44628 6.15001C5.15036 5.89702 6.41001 5.31686 7.8095 4.90842C8.03887 4.84148 8.2544 4.76429 8.45995 4.68671C8.79563 4.50399 9.13827 4.31251 9.51468 4.10392C9.79284 3.94979 10.0804 3.81812 10.3516 3.70378C10.5697 3.55832 10.7693 3.41777 10.9528 3.28569C11.4671 2.91548 11.6797 2.60191 12.6265 1.68091C12.6593 1.63545 12.6749 1.60927 12.7606 1.48136C12.8251 1.38512 12.9421 1.2133 13.0926 1.03794C13.2477 0.857295 13.4815 0.619798 13.8112 0.419252L14.0217 0.305228C14.5283 0.0593516 15.3971 -0.167299 16.2736 0.333734C16.4391 0.259101 16.6003 0.193205 16.7586 0.143694ZM29.8972 23.9958C29.4301 24.3291 29.099 24.5869 28.8572 24.8563C28.6944 25.0376 28.5434 25.2613 28.2434 25.7421C27.956 26.2025 27.5761 26.824 27.019 27.6013C26.2944 28.6121 25.9245 29.0596 25.5578 29.6706C25.2866 30.1228 24.8855 30.9085 24.3292 31.9427C23.8136 32.9012 23.1889 34.0228 22.5748 34.9062C22.2943 35.3097 21.7838 35.9511 21.6143 36.1806C21.3559 36.5307 21.1803 36.814 21.0592 37.1096C20.6624 38.0785 20.0878 39.1315 19.6463 39.9465C20.3032 39.5801 20.8908 39.2576 21.5609 38.7736C22.3594 38.1968 23.5063 37.3038 25.0603 36.4867C25.712 36.1441 26.2569 35.7661 26.8022 35.3549C27.2968 34.9819 27.9576 34.448 28.5765 34.0257C29.0766 33.6844 29.8058 33.2529 30.4974 32.8454C31.2238 32.4174 31.9523 31.9915 32.5535 31.6122C32.8672 31.4143 33.7064 30.967 34.6504 30.4456C35.6695 29.8826 36.998 29.133 38.4944 28.2274C39.2162 27.7905 39.7094 27.5206 40.0728 27.3268C40.1899 27.2644 40.28 27.2159 40.3514 27.1779C40.2169 27.126 40.0912 27.0807 39.9723 27.0439C37.7932 26.3691 35.3191 25.1418 32.9232 24.1183C32.7476 24.2295 32.5504 24.3348 32.3346 24.4129C31.9588 24.5488 31.3853 24.6603 30.7404 24.4593C30.4014 24.3536 30.1231 24.1858 29.8972 23.9958ZM6.7003 14.1824C6.95441 15.1036 7.21666 16.2444 7.33817 17.4616C7.38662 17.9471 7.47476 18.3883 7.58326 18.8985C7.68515 19.3776 7.8214 19.9882 7.88701 20.629C8.03275 22.053 8.05806 23.256 8.27036 24.6504C8.42056 25.6367 8.5844 26.5362 8.82863 27.4144C9.14683 28.5586 9.71211 30.5342 9.90118 32.1496C10.0025 33.0156 10.2288 34.0088 10.6804 35.5038C10.922 36.3034 11.1782 36.9247 11.4293 37.5457C11.6372 38.0595 11.8962 38.6999 12.041 39.3901C12.0528 39.1139 12.0671 38.8272 12.0766 38.5286C12.1682 35.676 12.2798 30.3545 12.2264 27.5422C12.162 24.1464 12.1468 23.8198 12.0871 23.5292C11.906 22.647 11.8279 21.7863 11.7666 21.0492C11.7021 20.274 11.6562 19.652 11.554 19.0485C11.5044 18.7558 11.4195 18.4222 11.3047 18.0032C11.1994 17.6189 11.0575 17.1224 10.9496 16.6518C10.8826 16.3591 10.8055 15.9869 10.7632 15.5686C10.2201 15.406 9.69951 15.257 9.14809 15.0544C8.26518 14.7302 7.57094 14.4185 6.7003 14.1824ZM15.7017 17.9029C15.731 18.0403 15.7586 18.1797 15.7824 18.32C15.9229 19.1493 15.984 19.9892 16.0421 20.6881C16.1035 21.4253 16.164 22.0526 16.2872 22.6529C16.4519 23.4551 16.4582 24.3806 16.5166 27.4598C16.5621 29.8577 16.4899 33.9173 16.4129 36.8816C16.6706 36.3914 16.9059 35.9181 17.0937 35.4595C17.407 34.6946 17.8139 34.0851 18.1726 33.5992C18.6203 32.9927 18.763 32.8551 19.0618 32.4252C19.5206 31.7651 20.0424 30.8393 20.5575 29.8818C21.0318 29.0001 21.5464 28.0006 21.8867 27.4334C22.3737 26.6216 22.9863 25.8432 23.5416 25.0685C24.0051 24.4218 24.3136 23.9176 24.612 23.4394C24.7901 23.1541 24.9877 22.8422 25.2185 22.5262C24.9435 22.4729 24.6679 22.4103 24.4088 22.3298C23.3574 22.0032 22.0198 21.4233 20.8885 20.8179C19.5143 20.0826 18.2551 19.4271 15.7017 17.9029ZM39.8916 16.3985C39.3503 17.3327 38.5208 18.5819 37.5517 19.5162C37.293 19.7655 37.1262 19.9963 36.6771 20.5308C36.5764 20.6506 36.4674 20.7747 36.3514 20.9045C38.0799 21.6751 39.4934 22.3309 40.851 22.787C40.7569 22.2528 40.6678 21.7058 40.585 21.1864C40.3764 19.8775 40.0908 18.1213 39.9649 17.1491C39.9343 16.9127 39.911 16.6484 39.8916 16.3985ZM29.3997 9.36908C29.4654 10.107 29.4968 10.7047 29.5181 11.2093C29.5612 12.2308 29.5688 12.5649 29.6584 12.9366C29.8819 13.8632 29.9542 14.6003 29.9999 15.1706C30.0502 15.7977 30.0617 15.988 30.1099 16.1767C30.1602 16.3739 30.2999 16.6918 30.6158 17.1861C30.9288 17.6758 31.3183 18.1947 31.7962 18.8394C31.8621 18.9283 31.9231 19.0188 31.9816 19.1076C32.0883 19.0111 32.2002 18.9143 32.3157 18.8215C32.7718 18.4547 33.0913 18.107 33.4029 17.7361C33.6752 17.4121 34.1108 16.8496 34.5865 16.3911C35.2731 15.7291 35.9887 14.6116 36.4121 13.8181C36.5289 13.5993 36.6641 13.3892 36.8039 13.1868C36.4733 13.0253 36.1581 12.8844 35.834 12.7402C35.3778 12.5372 34.857 12.3073 34.3362 12.0212C33.5229 11.5745 32.6533 11.1787 31.7208 10.7226C30.9903 10.3653 30.0822 9.90688 29.3997 9.36908ZM25.2646 12.1563C24.3982 12.8988 23.3123 13.4115 21.674 13.9871C21.0543 14.2048 20.5007 14.443 19.9846 14.6765C19.8635 14.7312 19.7368 14.7892 19.6075 14.8486C19.884 14.9696 20.1469 15.0821 20.3899 15.1833C21.3521 15.5837 22.3663 15.9229 23.9333 16.4607C24.7322 16.735 25.3823 16.9838 25.9412 17.1977C25.7888 16.5702 25.7566 15.9215 25.7244 15.519C25.6866 15.0474 25.6364 14.5658 25.4898 13.9575C25.3414 13.3422 25.2925 12.7371 25.2646 12.1563ZM12.4841 7.50352C12.4266 7.52547 12.372 7.54754 12.3196 7.56792C11.7584 7.91801 11.0683 8.29703 10.2384 8.63215C9.61425 8.96138 8.89545 9.30863 8.05355 9.60874C7.80619 9.69691 7.5427 9.78286 7.29523 9.86319C7.38396 9.88979 7.47166 9.91692 7.56022 9.9392C8.80764 10.253 9.9876 10.7608 10.6166 10.9918C10.9575 11.117 11.5123 11.2641 12.2275 11.4891C12.2438 11.387 12.259 11.2831 12.2715 11.1713C12.3573 10.4046 12.4753 9.76341 12.57 9.19488C12.6599 8.65441 12.7401 8.10357 12.8004 7.38105C12.6866 7.42433 12.5806 7.46667 12.4841 7.50352ZM17.5137 4.56951C17.4447 5.17809 17.351 5.80955 17.2697 6.33372C17.1688 6.9848 17.1065 7.38355 17.0916 7.57637C17.0171 8.54455 16.9072 9.26923 16.8005 9.9107C16.7031 10.4953 16.6224 10.9443 16.5564 11.4806C16.6745 11.421 16.7944 11.3668 16.9115 11.3202C17.2524 11.1843 17.622 11.0056 18.2291 10.731C18.7943 10.4754 19.4737 10.1799 20.2611 9.9033C22.0401 9.2783 22.4092 8.95947 22.6293 8.72717C23.1289 8.19967 23.494 7.66965 23.8579 7.02737C23.5753 6.94253 23.2592 6.84868 22.9006 6.73703C22.0478 6.47155 21.3799 6.22407 20.8173 6.0096C20.2365 5.78823 19.8421 5.6324 19.4263 5.49754C18.9003 5.32691 18.4739 5.05807 18.1904 4.86408C18.0432 4.76338 17.9045 4.66168 17.7955 4.58113C17.7439 4.54302 17.6982 4.50987 17.6572 4.47977C17.6119 4.50715 17.5645 4.53761 17.5137 4.56951Z" fill="white"/>
</svg>
