<svg width="4704" height="229" viewBox="0 0 4704 229" fill="none" xmlns="http://www.w3.org/2000/svg">
<path d="M1.2627 29.792C123.222 101.172 433.214 87.6219 766.763 60.7546C1194.89 26.2693 1357.15 49.0554 1527.26 85.7895C1710.76 125.416 1901.76 206.29 2040.76 224.79C2125.71 236.096 2373.76 155.405 2373.76 74.7891C2373.76 20.7891 2271.26 27.2901 2254.26 91.7891C2243.76 18.7893 2188.05 -12.6468 2165.26 16.2892C2133.76 56.2891 2190.37 136.739 2239.26 164.79C2398.76 256.29 2819.24 20.3993 2955.26 4.20693C3091.28 -11.9854 2955.26 91.7901 3034.76 114.29C3097.37 132.01 3393.76 41.292 3691.26 41.292C3988.76 41.292 4694.13 107.607 4701.76 96.8604" stroke="#00BCFF" stroke-width="5"/>
</svg>
