<svg width="324" height="39" viewBox="0 0 324 39" fill="none" xmlns="http://www.w3.org/2000/svg">
<path d="M1.00024 31.964C12.2402 35.37 23.1395 37.2949 31.4765 37.2975C35.9484 37.2989 40.1903 35.7519 47.4746 34.3843C64.1204 31.2592 67.387 26.1324 70.486 24.143C73.0998 22.465 74.7874 19.9293 75.9976 17.9528C76.8032 16.6369 77.378 14.7738 77.1226 12.7121C76.7843 9.98204 72.5786 9.26738 70.0757 8.31266C67.0533 7.15977 62.9437 6.67673 60.5362 6.93218C59.63 7.02833 59.4912 7.69854 59.4034 8.81324C58.9753 14.2526 65.8078 20.3938 69.5441 23.3586C71.3099 24.7597 75.6234 26.2769 91.8511 26.7182C96.9621 26.8571 100.41 26.2872 104.185 26.0318C108.028 25.7717 113.977 24.5687 121.107 24.0553C126.083 23.6968 129.826 22.6748 133.771 22.4193C135.854 22.2844 138.057 21.653 149.927 20.8789C161.796 20.1048 183.254 19.083 194.904 18.7269C207.741 18.3345 210.678 19.2326 213.939 19.7461C219.542 20.6281 223.745 24.3778 227.37 27.5671C228.063 28.177 228.575 28.5166 228.838 29.1179C230.058 31.9048 229.447 34.0231 228.934 34.8823C227.867 36.6674 222.94 36.0925 217.936 34.9804C213.986 34.1023 211.566 31.7988 209.669 30.3358C207.658 28.7843 207.943 22.5406 209.736 18.3888C211.435 14.4556 215.844 12.5341 221.822 10.0518C226.492 8.11279 234.954 6.03681 242.573 4.46796C250.193 2.89912 256.835 2.21792 269.793 1.86699C282.752 1.51607 301.826 1.51607 322.509 1" stroke="white" stroke-width="2" stroke-linecap="round"/>
</svg>
