<svg width="669" height="150" viewBox="0 0 669 150" fill="none" xmlns="http://www.w3.org/2000/svg">
<path d="M622.715 88.1278C615.96 88.1278 609.772 87.0171 604.15 84.7958C598.529 82.5744 593.656 79.4464 589.53 75.4118C585.45 71.3318 582.277 66.5718 580.01 61.1318C577.789 55.6918 576.678 49.7532 576.678 43.3159C576.678 37.0146 577.812 31.2346 580.078 25.9759C582.345 20.6719 585.541 16.0933 589.666 12.24C593.792 8.34131 598.642 5.32665 604.218 3.19599C609.84 1.06533 616.005 0 622.715 0C629.333 0 635.453 1.06533 641.075 3.19599C646.696 5.32665 651.57 8.34131 655.695 12.24C659.866 16.0933 663.084 20.6719 665.351 25.9759C667.663 31.2346 668.819 37.0146 668.819 43.3159C668.819 49.7532 667.686 55.6918 665.419 61.1318C663.198 66.5718 660.024 71.3318 655.899 75.4118C651.774 79.4464 646.878 82.5744 641.211 84.7958C635.589 87.0171 629.424 88.1278 622.715 88.1278ZM622.715 80.9878C630.059 80.9878 636.541 79.3558 642.163 76.0918C647.83 72.7825 652.272 68.2945 655.491 62.6278C658.755 56.9158 660.387 50.4785 660.387 43.3159C660.387 36.3346 658.732 30.1466 655.423 24.7519C652.159 19.3119 647.694 15.0506 642.027 11.968C636.36 8.83998 629.923 7.27598 622.715 7.27598C615.461 7.27598 609.001 8.81731 603.334 11.9C597.713 14.9826 593.27 19.2439 590.006 24.6839C586.788 30.0786 585.178 36.2892 585.178 43.3159C585.178 50.4785 586.765 56.9158 589.938 62.6278C593.157 68.2945 597.577 72.7825 603.198 76.0918C608.865 79.3558 615.371 80.9878 622.715 80.9878ZM644.747 36.1079C644.747 31.4386 642.866 27.5399 639.103 24.4119C635.34 21.2839 629.9 19.7199 622.783 19.7199H603.878C601.793 19.7199 600.75 20.6039 600.75 22.3719C600.75 23.7773 601.408 24.7519 602.722 25.2959L604.218 25.7719C604.717 25.9986 605.102 26.3386 605.374 26.7919C605.646 27.2453 605.782 27.9253 605.782 28.8319V57.8678C605.782 58.8198 605.646 59.5225 605.374 59.9758C605.102 60.3838 604.717 60.7012 604.218 60.9278L602.79 61.4038C601.476 62.0385 600.818 62.9678 600.818 64.1918C600.818 65.8692 601.861 66.7078 603.946 66.7078H619.111C621.151 66.7078 622.171 65.8692 622.171 64.1918C622.171 63.5572 622.057 63.0585 621.831 62.6958C621.604 62.3332 621.196 61.9478 620.607 61.5398L619.315 61.0638C618.771 60.7918 618.385 60.4518 618.159 60.0438C617.932 59.5905 617.819 58.8652 617.819 57.8678V25.9079H622.647C625.775 25.9079 628.177 26.8826 629.855 28.8319C631.577 30.7812 632.439 33.2746 632.439 36.3119C632.439 38.9412 631.668 40.9812 630.127 42.4319C628.585 43.8372 626.387 44.5399 623.531 44.5399C621.944 44.5399 620.403 44.3585 618.907 43.9959C617.456 43.6332 615.892 42.9079 614.215 41.8199L614.147 47.3959C615.552 48.1665 617.207 48.8692 619.111 49.5039C621.015 50.0932 623.009 50.3879 625.095 50.3879C626.863 50.3879 628.336 50.1385 629.515 49.6399C630.739 49.1412 632.167 48.7559 633.799 48.4839C637.063 47.8945 639.692 46.4665 641.687 44.1999C643.727 41.8879 644.747 39.1906 644.747 36.1079ZM624.279 48.1439L630.263 59.6358C630.58 60.1798 630.693 60.6558 630.603 61.0638C630.557 61.4265 630.331 61.6985 629.923 61.8798L628.835 62.1518C628.109 62.6958 627.747 63.3758 627.747 64.1918C627.747 65.9145 628.721 66.7758 630.671 66.7758H644.543C645.495 66.7758 646.243 66.5265 646.787 66.0278C647.376 65.4838 647.671 64.7358 647.671 63.7838C647.671 63.1945 647.512 62.7185 647.195 62.3558C646.923 61.9478 646.379 61.5625 645.563 61.1998C645.064 60.9732 644.543 60.6785 643.999 60.3158C643.5 59.9078 643.024 59.2958 642.571 58.4798L635.771 46.7159L624.279 48.1439Z" fill="#20262A"/>
<path d="M528.393 103.448L533.561 108.14L522.885 122.012C521.298 123.961 520.482 125.48 520.437 126.568C520.437 127.61 521.049 128.449 522.273 129.083L524.993 130.035C525.899 130.579 526.579 131.169 527.033 131.803C527.486 132.393 527.713 133.163 527.713 134.115C527.713 135.339 527.305 136.314 526.489 137.039C525.718 137.765 524.607 138.127 523.157 138.127H506.292C504.887 138.127 503.776 137.787 502.96 137.107C502.144 136.382 501.736 135.385 501.736 134.115C501.736 133.118 502.031 132.234 502.62 131.463C503.21 130.693 504.32 129.877 505.952 129.015C507.222 128.426 508.355 127.701 509.352 126.84C510.35 125.978 511.37 124.913 512.412 123.644C513.5 122.374 514.724 120.878 516.084 119.156L528.393 103.448ZM533.901 88.4196L545.461 102.904L546.889 104.264L563.345 124.664C564.614 126.25 565.566 127.383 566.201 128.063C566.881 128.698 567.765 129.31 568.853 129.899C569.941 130.534 570.757 131.169 571.301 131.803C571.845 132.393 572.117 133.163 572.117 134.115C572.117 135.339 571.709 136.314 570.893 137.039C570.122 137.765 569.034 138.127 567.629 138.127H541.653C540.247 138.127 539.114 137.787 538.253 137.107C537.437 136.382 537.029 135.385 537.029 134.115C537.029 133.163 537.21 132.393 537.573 131.803C537.935 131.214 538.457 130.715 539.137 130.307L541.109 129.695C541.925 129.333 542.31 128.925 542.265 128.471C542.265 127.973 541.947 127.293 541.313 126.431L528.529 109.976L527.169 108.48L512.208 89.4396C510.984 87.8983 509.874 86.6969 508.876 85.8356C507.924 84.9289 506.859 84.2263 505.68 83.7276C504.638 83.229 503.867 82.6396 503.368 81.9596C502.87 81.2796 502.62 80.4636 502.62 79.5116C502.62 78.197 503.028 77.1996 503.844 76.5196C504.66 75.7943 505.771 75.4316 507.176 75.4316H533.153C534.603 75.4316 535.714 75.7943 536.485 76.5196C537.301 77.1996 537.709 78.197 537.709 79.5116C537.709 80.4183 537.527 81.1663 537.165 81.7556C536.802 82.345 536.281 82.889 535.601 83.3876L533.901 83.9996C532.994 84.4983 532.541 85.0876 532.541 85.7676C532.586 86.4476 533.039 87.3316 533.901 88.4196ZM543.421 110.588L538.253 106.372L551.173 90.3236C552.351 88.8729 552.873 87.6489 552.737 86.6516C552.601 85.6543 551.83 84.8156 550.425 84.1356L548.453 83.5236C547.455 82.9343 546.707 82.345 546.209 81.7556C545.755 81.1663 545.529 80.4183 545.529 79.5116C545.529 78.197 545.937 77.1996 546.753 76.5196C547.569 75.7943 548.679 75.4316 550.085 75.4316H566.609C568.014 75.4316 569.125 75.7943 569.941 76.5196C570.757 77.1996 571.165 78.197 571.165 79.5116C571.165 80.509 570.87 81.3476 570.281 82.0276C569.737 82.6623 568.808 83.3423 567.493 84.0676C565.952 84.9289 564.478 86.0396 563.073 87.3996C561.668 88.7143 559.9 90.6183 557.769 93.1116L543.421 110.588Z" fill="#20262A"/>
<path d="M462.536 74.126C469.245 74.126 475.116 75.5313 480.148 78.342C485.18 81.1526 489.102 85.0286 491.912 89.9699C494.768 94.9113 496.196 100.623 496.196 107.106C496.196 113.271 494.746 118.825 491.844 123.766C488.943 128.707 484.908 132.629 479.74 135.53C474.617 138.386 468.656 139.814 461.856 139.814C455.192 139.814 449.321 138.408 444.244 135.598C439.212 132.787 435.29 128.889 432.48 123.902C429.669 118.915 428.264 113.158 428.264 106.63C428.264 100.51 429.692 95.0019 432.548 90.1059C435.449 85.1646 439.461 81.266 444.584 78.41C449.752 75.554 455.736 74.126 462.536 74.126ZM467.636 129.818C470.311 129.274 472.487 127.869 474.164 125.602C475.841 123.29 476.907 120.298 477.36 116.626C477.813 112.954 477.519 108.783 476.476 104.114C475.388 99.1272 473.847 95.0473 471.852 91.8739C469.857 88.6553 467.591 86.3886 465.052 85.0739C462.513 83.714 459.839 83.3286 457.028 83.918C454.353 84.462 452.155 85.8673 450.432 88.1339C448.755 90.4006 447.667 93.3699 447.168 97.0419C446.714 100.669 447.009 104.885 448.052 109.69C449.185 114.722 450.749 118.825 452.744 121.998C454.739 125.171 457.005 127.415 459.544 128.73C462.128 130.045 464.825 130.407 467.636 129.818Z" fill="#20262A"/>
<path d="M373.284 41.85V131.813L366.416 136.845C364.92 137.57 363.514 138.137 362.2 138.545C360.93 138.998 359.706 139.225 358.528 139.225C357.44 139.225 356.556 138.908 355.876 138.273C355.241 137.638 354.924 136.686 354.924 135.417L354.991 56.3339C354.991 54.7472 354.765 53.6366 354.312 53.0019C353.858 52.3672 353.201 51.9139 352.339 51.6419L349.415 51.3019C348.509 50.9393 347.806 50.4633 347.307 49.8739C346.854 49.2846 346.627 48.5366 346.627 47.63C346.627 46.6326 346.945 45.7713 347.579 45.046C348.214 44.3207 349.234 43.7087 350.639 43.21L361.656 39.1301C363.333 38.4954 364.738 38.0194 365.872 37.7021C367.005 37.3847 368.07 37.2261 369.068 37.2261C370.428 37.2261 371.47 37.6567 372.196 38.5181C372.921 39.334 373.284 40.4447 373.284 41.85ZM369.408 96.7254L366.28 92.0335C369.68 86.4122 373.646 82.0376 378.18 78.9096C382.758 75.7363 387.836 74.1497 393.412 74.1497C398.58 74.1497 403.159 75.4643 407.148 78.0936C411.183 80.7229 414.333 84.3722 416.6 89.0415C418.867 93.7108 420 99.1734 420 105.429C420 112.547 418.617 118.689 415.852 123.857C413.132 128.98 409.415 132.924 404.7 135.689C400.031 138.454 394.749 139.837 388.856 139.837C383.688 139.837 379.064 138.568 374.984 136.029C370.904 133.49 367.594 129.909 365.056 125.285L369.884 118.485C371.833 122.384 374.168 125.262 376.888 127.121C379.653 128.934 382.554 129.841 385.592 129.841C388.539 129.841 391.145 128.98 393.412 127.257C395.724 125.489 397.56 122.928 398.92 119.573C400.28 116.219 400.96 112.161 400.96 107.401C400.96 102.641 400.28 98.6294 398.92 95.3654C397.56 92.1015 395.701 89.6308 393.344 87.9535C390.987 86.2762 388.312 85.4376 385.32 85.4376C382.056 85.4376 379.064 86.3895 376.344 88.2935C373.669 90.1975 371.357 93.0081 369.408 96.7254Z" fill="#20262A"/>
<path d="M335.15 86.1528C336.441 88.902 336.644 91.3609 335.76 93.5293C334.875 95.6977 332.996 97.4564 330.124 98.8053L295.04 115.281L292.207 109.249L315.658 98.2365C318.202 97.0417 318.915 95.2544 317.797 92.8744C316.024 89.0994 313.673 86.5978 310.742 85.3698C307.811 84.1417 304.889 84.2118 301.976 85.58C299.555 86.7169 297.709 88.3851 296.438 90.5846C295.167 92.7841 294.575 95.416 294.662 98.4804C294.771 101.484 295.673 104.792 297.369 108.403C300.76 115.625 305.066 120.314 310.286 122.47C315.527 124.566 320.959 124.294 326.581 121.654C330.027 120.036 332.708 117.851 334.621 115.099C336.534 112.348 337.728 109.558 338.203 106.731C338.554 105.664 338.908 104.872 339.265 104.354C339.604 103.794 340.029 103.419 340.54 103.229C341.156 102.94 341.784 102.945 342.426 103.245C343.109 103.525 343.681 104.158 344.144 105.143C345.543 108.442 345.85 112.029 345.065 115.904C344.302 119.718 342.457 123.414 339.53 126.992C336.625 130.51 332.982 133.806 327.935 136.176C321.985 138.97 315.912 139.836 310.385 139.477C304.838 139.077 299.832 137.271 295.369 134.058C290.927 130.785 287.357 126.276 284.659 120.532C281.922 114.705 280.675 108.955 280.916 103.283C281.137 97.5697 282.847 92.3593 286.046 87.652C289.266 82.8844 294.015 79.0264 300.293 76.0781C305.258 73.7464 310.031 72.6572 314.61 72.8104C319.19 72.9636 323.276 74.1999 326.869 76.519C330.463 78.8382 333.223 82.0494 335.15 86.1528Z" fill="#20262A"/>
<path d="M267.388 41.85V123.857C267.388 125.67 267.592 126.962 268 127.733C268.453 128.458 269.088 129.002 269.904 129.365L271.808 130.045C272.76 130.544 273.463 131.133 273.916 131.813C274.415 132.448 274.664 133.264 274.664 134.261C274.664 135.53 274.256 136.528 273.44 137.253C272.669 137.933 271.581 138.273 270.176 138.273H246.172C244.766 138.273 243.656 137.933 242.84 137.253C242.069 136.528 241.684 135.53 241.684 134.261C241.684 133.264 241.91 132.448 242.364 131.813C242.862 131.133 243.588 130.544 244.54 130.045L246.444 129.365C247.305 129.002 247.94 128.458 248.348 127.733C248.801 126.962 249.028 125.67 249.028 123.857V56.3339C249.028 54.7472 248.801 53.6366 248.348 53.0019C247.94 52.3672 247.305 51.9139 246.444 51.6419L243.452 51.3019C242.545 50.9393 241.842 50.4633 241.344 49.8739C240.89 49.2846 240.664 48.5366 240.664 47.63C240.664 46.6326 240.981 45.7713 241.616 45.046C242.25 44.3207 243.293 43.7087 244.744 43.21L255.692 39.1301C257.414 38.4954 258.82 38.0194 259.908 37.7021C261.041 37.3847 262.129 37.2261 263.172 37.2261C264.486 37.2261 265.506 37.6567 266.232 38.5181C267.002 39.334 267.388 40.4447 267.388 41.85Z" fill="#20262A"/>
<path d="M228.298 78.9679V123.78C228.298 125.548 228.502 126.817 228.91 127.588C229.363 128.358 230.02 128.925 230.882 129.288L232.786 129.968C233.692 130.466 234.395 131.056 234.894 131.736C235.392 132.37 235.642 133.186 235.642 134.184C235.642 135.453 235.234 136.45 234.418 137.176C233.647 137.856 232.536 138.196 231.086 138.196H207.15C205.744 138.196 204.633 137.856 203.817 137.176C203.001 136.45 202.593 135.453 202.593 134.184C202.593 133.186 202.843 132.37 203.341 131.736C203.84 131.056 204.543 130.466 205.449 129.968L207.422 129.288C208.283 128.925 208.918 128.358 209.326 127.588C209.734 126.817 209.938 125.548 209.938 123.78V93.5199C209.938 91.9332 209.711 90.8225 209.258 90.1879C208.85 89.5079 208.215 89.0319 207.354 88.7599L204.429 88.4879C203.523 88.0799 202.82 87.6039 202.321 87.0599C201.868 86.4705 201.641 85.7225 201.641 84.8159C201.641 83.8185 201.959 82.9572 202.593 82.2319C203.228 81.5066 204.248 80.8719 205.653 80.3279L216.602 76.3159C218.324 75.6812 219.73 75.2052 220.818 74.8879C221.951 74.5706 223.039 74.4119 224.082 74.4119C225.442 74.4119 226.484 74.8426 227.21 75.7039C227.935 76.5199 228.298 77.6079 228.298 78.9679ZM217.758 64.5519C214.222 64.5519 211.388 63.6226 209.258 61.7639C207.127 59.8599 206.061 57.3666 206.061 54.284C206.061 51.2013 207.127 48.7306 209.258 46.872C211.388 45.0133 214.222 44.084 217.758 44.084C221.339 44.084 224.195 45.0133 226.326 46.872C228.502 48.7306 229.59 51.1786 229.59 54.216C229.59 57.344 228.502 59.8599 226.326 61.7639C224.195 63.6226 221.339 64.5519 217.758 64.5519Z" fill="#20262A"/>
<path d="M104.306 78.7628V123.575C104.306 125.479 104.487 126.861 104.85 127.723C105.258 128.539 105.893 129.128 106.754 129.491L108.726 130.239C110.313 131.1 111.106 132.347 111.106 133.979C111.106 136.653 109.746 137.991 107.026 137.991H83.2258C81.8205 137.991 80.7098 137.651 79.8938 136.971C79.0778 136.245 78.6698 135.248 78.6698 133.979C78.6698 132.981 78.9191 132.165 79.4178 131.531C79.9165 130.851 80.6191 130.261 81.5258 129.763L83.4978 129.083C84.3592 128.72 84.9938 128.176 85.4018 127.451C85.8098 126.68 86.0138 125.388 86.0138 123.575V93.3148C86.0138 91.7281 85.7872 90.6174 85.3338 89.9828C84.9258 89.3028 84.2912 88.8268 83.4298 88.5548L80.5058 88.2828C79.5991 87.8748 78.8964 87.3988 78.3978 86.8548C77.9444 86.2655 77.7178 85.5175 77.7178 84.6108C77.7178 83.6135 78.0351 82.7521 78.6698 82.0268C79.3045 81.3015 80.3245 80.6668 81.7298 80.1228L92.6099 76.1108C94.2873 75.4762 95.6926 75.0002 96.8259 74.6828C97.9593 74.3655 99.0473 74.2068 100.09 74.2068C101.405 74.2068 102.425 74.6375 103.15 75.4988C103.921 76.3148 104.306 77.4028 104.306 78.7628ZM102.402 95.4228L98.594 91.0028L101.79 87.9428C106.913 82.9108 111.559 79.3068 115.73 77.1308C119.946 74.9095 123.913 73.7988 127.63 73.7988C133.025 73.7988 137.4 75.5895 140.754 79.1708C144.109 82.7521 145.786 87.5801 145.786 93.6548V123.575C145.786 125.479 145.968 126.839 146.33 127.655C146.738 128.471 147.396 129.083 148.302 129.491L150.274 130.239C151.861 131.1 152.654 132.347 152.654 133.979C152.654 136.653 151.272 137.991 148.506 137.991H124.774C122.054 137.991 120.694 136.653 120.694 133.979C120.694 132.347 121.487 131.1 123.074 130.239L125.046 129.491C125.953 129.128 126.588 128.539 126.95 127.723C127.358 126.861 127.562 125.479 127.562 123.575V98.2108C127.562 94.5388 126.701 91.7508 124.978 89.8468C123.256 87.9428 120.943 86.9908 118.042 86.9908C116.093 86.9908 114.007 87.4668 111.786 88.4188C109.61 89.3708 107.343 90.9121 104.986 93.0428L102.402 95.4228ZM144.222 95.2868L140.346 90.8668L143.134 88.0788C148.257 83.0015 152.904 79.3522 157.074 77.1308C161.291 74.9095 165.257 73.7988 168.975 73.7988C174.369 73.7988 178.744 75.5895 182.099 79.1708C185.453 82.7521 187.131 87.5801 187.131 93.6548V123.575C187.131 125.388 187.335 126.68 187.743 127.451C188.196 128.176 188.853 128.72 189.715 129.083L191.619 129.763C192.525 130.307 193.228 130.896 193.727 131.531C194.225 132.165 194.475 132.981 194.475 133.979C194.475 135.248 194.067 136.245 193.251 136.971C192.48 137.651 191.369 137.991 189.919 137.991H166.119C163.399 137.991 162.039 136.653 162.039 133.979C162.039 132.347 162.832 131.1 164.419 130.239L166.391 129.491C167.297 129.128 167.932 128.539 168.295 127.723C168.703 126.861 168.907 125.479 168.907 123.575V98.2108C168.907 94.5388 168.045 91.7508 166.323 89.8468C164.6 87.9428 162.288 86.9908 159.387 86.9908C157.437 86.9908 155.352 87.4895 153.13 88.4868C150.954 89.4388 148.688 91.0481 146.33 93.3148L144.222 95.2868Z" fill="#20262A"/>
<path d="M36.9244 140.151C33.3883 140.151 30.351 139.811 27.8123 139.131C25.2736 138.451 23.1882 137.794 21.5562 137.159C19.9242 136.479 18.6775 136.139 17.8162 136.139C17.0002 136.139 16.2975 136.343 15.7081 136.751C15.1641 137.159 14.6655 137.635 14.2121 138.179C13.7588 138.678 13.2601 139.131 12.7161 139.539C12.2175 139.993 11.5601 140.219 10.7441 140.219C9.33876 140.219 8.25075 139.811 7.48007 138.995C6.7094 138.179 6.12006 136.865 5.71205 135.051L1.42801 116.76C1.15601 115.4 1.29201 114.221 1.83602 113.224C2.42536 112.226 3.37737 111.546 4.69205 111.184C6.00672 110.821 7.1854 110.889 8.22808 111.388C9.27076 111.886 10.2908 112.952 11.2881 114.584C13.1921 118.165 15.3908 121.112 17.8842 123.424C20.3775 125.736 23.1202 127.458 26.1122 128.592C29.1043 129.68 32.3003 130.224 35.7003 130.224C40.1431 130.224 43.6564 129.09 46.2404 126.824C48.8698 124.557 50.2071 121.678 50.2525 118.188C50.2525 115.83 49.7311 113.7 48.6885 111.796C47.6911 109.892 45.7644 108.078 42.9084 106.356C40.0977 104.633 35.995 102.842 30.6003 100.984C22.8936 98.5812 16.8188 95.7932 12.3761 92.6199C7.93341 89.4466 4.76005 85.888 2.85603 81.9441C0.952009 78.0001 0 73.6708 0 68.9562C0 63.6069 1.24668 58.847 3.74004 54.6764C6.27873 50.5058 9.83743 47.2418 14.4161 44.8845C18.9948 42.4818 24.3442 41.2805 30.4643 41.2805C34.2723 41.2805 37.4684 41.6659 40.0524 42.4365C42.6817 43.1618 44.8578 43.9098 46.5804 44.6805C48.3031 45.4511 49.7538 45.8365 50.9325 45.8365C51.9298 45.8365 52.6778 45.4511 53.1765 44.6805C53.6752 43.9098 54.2192 43.1392 54.8085 42.3685C55.3979 41.5525 56.3045 41.1445 57.5285 41.1445C58.9339 41.1445 60.0446 41.6205 60.8606 42.5725C61.7219 43.5245 62.5153 45.2471 63.2406 47.7405L69.0207 66.5762C69.5647 68.2536 69.542 69.6815 68.9527 70.8602C68.4087 71.9935 67.3886 72.7642 65.8926 73.1722C64.5326 73.5802 63.3086 73.5122 62.2206 72.9682C61.1779 72.3788 60.2712 71.3588 59.5006 69.9082C57.4152 65.6469 54.9445 62.1563 52.0885 59.4363C49.2325 56.7163 46.1498 54.699 42.8404 53.3844C39.531 52.0697 36.131 51.4124 32.6403 51.4124C28.3789 51.4124 24.9789 52.6137 22.4402 55.0164C19.9015 57.419 18.6322 60.4336 18.6322 64.0603C18.6322 66.5536 19.2215 68.8429 20.4002 70.9282C21.5789 72.9682 23.6189 74.9175 26.5203 76.7761C29.4216 78.5894 33.4337 80.4254 38.5564 82.2841C46.2178 84.868 52.2018 87.724 56.5085 90.852C60.8606 93.9346 63.9206 97.3572 65.6886 101.12C67.502 104.837 68.4087 108.962 68.4087 113.496C68.3633 118.437 67.094 122.925 64.6006 126.96C62.1073 130.994 58.5032 134.213 53.7885 136.615C49.1191 138.973 43.4977 140.151 36.9244 140.151Z" fill="#20262A"/>
</svg>
